<svg xmlns="http://www.w3.org/2000/svg" viewBox="0 0 57.24 57.24"><defs><style>.cls-1{fill:#fff;stroke:#279cd7;stroke-miterlimit:10;stroke-width:1.35px;}.cls-2{fill:#279cd7;}</style></defs><g id="Layer_2" data-name="Layer 2"><g id="Layer_1-2" data-name="Layer 1"><circle class="cls-1" cx="28.62" cy="28.62" r="27.95"/><path class="cls-2" d="M26.84,18.46a2,2,0,1,0-2-2A2,2,0,0,0,26.84,18.46Z"/><path class="cls-2" d="M22.4,26.44h.23a1.18,1.18,0,0,0,1.16-.92,7.88,7.88,0,0,1,.86-2.18v3a.51.51,0,0,0,.06.29c0,.11-.06.17-.06.29L24.42,33c1.15-.06,2.19-.11,2.88-.11l.11-3.45.75,3.39c.35,0,1.5,0,3,.11l-1.44-6.37V21.9A4.27,4.27,0,0,0,34.32,19a1.15,1.15,0,0,0-2.13-.86c-.81,2-2.42,1.38-2.82,1.44a4.5,4.5,0,0,0-4.89.28,10.53,10.53,0,0,0-3,5.23A1.13,1.13,0,0,0,22.4,26.44Zm5.41-6.26-.28.92h-.75l-.29-.92C26.49,19.89,27.81,19.89,27.81,20.18ZM26.72,21.5h.86l.23,3.21h0l-.63.87-.63-.87h0Z"/><path class="cls-2" d="M39.1,38.38h4.08a9.55,9.55,0,0,0,.52-1.55V36.6a5.92,5.92,0,0,1,.52-4.48,2.49,2.49,0,0,0-1.84-1.32,2.58,2.58,0,0,0-3,2.07,5.28,5.28,0,0,1-.11.57,3.34,3.34,0,0,0,1.27-.8A1.39,1.39,0,0,1,41.69,32a1.81,1.81,0,0,1,.8.23,1.45,1.45,0,0,1,.41,1.95,6.08,6.08,0,0,1-4.49,2.3,3.32,3.32,0,0,0-.06,1.09c-1.1.11-2.13-.29-2.59.63l-2.25,4.13A1.14,1.14,0,0,0,34,43.89a1.15,1.15,0,0,0,1.56-.45l1.9-3.56h1.26C38.81,39.3,38.46,38.38,39.1,38.38Z"/><path class="cls-2" d="M20.79,35.11h1l.23-.52.29-.74c-.64.11-1.27.17-1.79.28a1.68,1.68,0,0,1,.23.58A.46.46,0,0,1,20.79,35.11Z"/><path class="cls-2" d="M33.34,33.79l.58,1.32h1a1.32,1.32,0,0,1,.29-1A13.45,13.45,0,0,0,33.34,33.79Z"/><path class="cls-2" d="M35.18,35.8H33.51v-.06l-.86-2.07c-.46-.05-.92-.05-1.38-.11-.92-.06-1.9-.12-2.88-.12h-1c-1,0-2,.06-2.87.12-.41.06-.87.06-1.21.11h0l-.87,2H20.73v.06a1.51,1.51,0,0,1-.92.57h-.17c3.8,1.27,13.24,1.33,17.33.06C36.1,36.43,35.59,36.37,35.18,35.8Z"/><path class="cls-2" d="M29,43.26V37.41H27.3v5.85c-1.56.06-2.71.35-2.71.69s1.61.75,3.57.75,3.57-.35,3.57-.75S30.58,43.32,29,43.26Z"/><ellipse class="cls-2" cx="41.8" cy="27.01" rx="2.82" ry="2.81"/><path class="cls-2" d="M45,31.72a11.21,11.21,0,0,0-.57,1.15h0a5.61,5.61,0,0,0-.4,2.7,5,5,0,0,0,.17.92v2.12s.29.4-.35.69h0V39h-4.2c-.17,0-.29,0-.34.17s-.06.11-.06.17v.12a.39.39,0,0,0,.4.4H41a.21.21,0,0,1,.17.06c.34.17.17.51.17,1.32h-.23v2.29h.17a4.4,4.4,0,0,0-2,.4c-.06,0-.12,0-.17,0a.37.37,0,0,0-.35.34.35.35,0,1,0,.69,0v-.06a3.76,3.76,0,0,1,2.07-.28v0a5.55,5.55,0,0,1,2.08.28v.06a.38.38,0,0,0,.34.35.38.38,0,0,0,.35-.35.38.38,0,0,0-.35-.34.23.23,0,0,0-.17,0,4.33,4.33,0,0,0-1.61-.4.33.33,0,0,1-.35-.34V41.2h-.23v-1c0-.57.86-.29,1.61-.4v.23h1.15c.12,0,.18-.06.29-.12a1.24,1.24,0,0,0,.23-.86l-.06-2.24a.38.38,0,0,1,.23-.34c.18-.06.29-.29.41-.75a22.81,22.81,0,0,0,.4-3.79A.45.45,0,0,0,45,31.72Z"/><path class="cls-2" d="M33.86,35.17l-.63-1.44L33,33.16l-.47-1-.4.17.35.81.23.57.86,2h1.5a4.45,4.45,0,0,1-.18-.46Z"/><path class="cls-2" d="M35.93,34.19h0a.86.86,0,0,0-.06,1.49c.69.4,4.67.63,6.45-1.83a.87.87,0,1,0-1.44-1A3.46,3.46,0,0,1,39,34C37.54,34.48,36.45,34,35.93,34.19Z"/><path class="cls-2" d="M20,38.15a1.22,1.22,0,0,0-1-.57H17.34a2.27,2.27,0,0,0-.06-1.09,5.67,5.67,0,0,1-4.43-2.3,1.47,1.47,0,0,1,.4-2,1.35,1.35,0,0,1,.81-.23,1.51,1.51,0,0,1,1.21.63,2.37,2.37,0,0,0,1.21.81,2.4,2.4,0,0,0-.12-.58,2.53,2.53,0,0,0-3-2.07,2.62,2.62,0,0,0-1.84,1.33A6.28,6.28,0,0,1,12,36.54v.23c.06.23.18.58.29,1a3.2,3.2,0,0,0,.23.63h4.09a.34.34,0,0,1,.34.17.22.22,0,0,1,.06.18v1.15h1.27l1.9,3.56a1.15,1.15,0,0,0,2-1.1Z"/><ellipse class="cls-2" cx="13.94" cy="27.01" rx="2.82" ry="2.81"/><path class="cls-2" d="M16.59,43.84a.23.23,0,0,0-.17,0,4.2,4.2,0,0,0-2-.4h.17V41.2H14.4v-1a.31.31,0,0,1,.23-.34c.06,0,.12-.06.18-.06h1.32a.39.39,0,0,0,.4-.4V39.3a.23.23,0,0,0-.05-.17.35.35,0,0,0-.35-.17h-4.2v.34h0c-.69-.29-.35-.69-.35-.69V36.49a2.51,2.51,0,0,0,.18-.92,5.72,5.72,0,0,0-.41-2.7,7.23,7.23,0,0,0-.57-1.15c-.29-.34-.81-.17-.75.17a33.45,33.45,0,0,0,.4,3.79c.06.52.23.69.35.75a.49.49,0,0,1,.23.34L11,39a1,1,0,0,0,.23.87.49.49,0,0,0,.23.11h1.15v-.23h1.21a.39.39,0,0,1,.4.4v1h-.23v2a.38.38,0,0,1-.34.35,3,3,0,0,0-1.61.4c-.06,0-.12-.06-.18-.06a.35.35,0,1,0,.35.34v0a3.79,3.79,0,0,1,2.07-.29v0a5.35,5.35,0,0,1,2.07.29v0a.38.38,0,0,0,.35.35.37.37,0,0,0,.34-.35A.42.42,0,0,0,16.59,43.84Z"/><path class="cls-2" d="M23.61,32.35l-.4-.17-.46,1.09-.23.58-.23.57-.35.8h-1a.72.72,0,0,1-.18.46h1.62l.8-1.83h0v-.12l.23-.57h0Z"/><path class="cls-2" d="M16.65,34a3.54,3.54,0,0,1-1.84-1.09.85.85,0,0,0-1.21-.23.83.83,0,0,0-.23,1.2,5,5,0,0,0,3.8,2c.17,0,.28.06.46.06h.74a8.2,8.2,0,0,0,1.1-.11.2.2,0,0,0,.17-.06c.06,0,.06-.06.12-.06s0-.06,0-.06a.74.74,0,0,0,.29-.46v-.4a.82.82,0,0,0-1-.69,2,2,0,0,1-.57.06h0a5,5,0,0,1-1.9-.17Z"/><path class="cls-2" d="M32,17.54V10.42H44.91v9.41H34.55a3.34,3.34,0,0,1-.35.52H45a.49.49,0,0,0,.46-.46V10.36A.45.45,0,0,0,45,9.9H31.84a.49.49,0,0,0-.46.46v8.1C31.67,18.11,31.61,17.88,32,17.54Z"/><path class="cls-2" d="M35.76,12.94c-.06-.06-.17-.11-.23-.06l-2.88,2c-.06.05-.12.17-.06.23l1.33,2a1.74,1.74,0,0,1,1,1.55l.4.57c.06.06.18.12.24.06l2.82-1.9,2.82,1.9c.05.06.17.06.23-.06l2.76-4.13a.14.14,0,0,0-.06-.23l-2.88-2c0-.05-.11-.05-.17.06l-.52.75v.69c.06-.06.06-.06.12,0L43.13,16s0,0,0,.11l-.06.06H43l-2.42-1.61h0V15l2.25,1.38c.06.06.06.06,0,.11l-.06.06h-.06l-2.13-1.38v.46l1.9,1.26c.06,0,.06.06,0,.12a.06.06,0,0,1-.06.06h0l-1.79-1.21v.46l1.61,1c.06,0,.06.06,0,.12l-.05.06h-.06l-1.5-1a.46.46,0,0,1-.17.34l1.44,1c.06,0,.06.06,0,.12l-.06.05h-.06l-1.55-1h-.63l1.95,1.32c.06.06.06.06,0,.12l0,.05H41.4l-2.19-1.43H37.48l-2.13,1.26H35.3a.06.06,0,0,1-.06-.06v-.11l2-1.32h-.64l-1.55,1H35a.06.06,0,0,1-.06-.06v-.11l1.44-1a.42.42,0,0,1-.17-.34l-1.5,1h0a.06.06,0,0,1-.06-.06v-.11l1.61-1.09V15.7L34.43,17h0a.06.06,0,0,1-.06-.06.07.07,0,0,1,0-.11l1.9-1.26v-.46l-2.13,1.38H34a.06.06,0,0,1-.06-.06v-.12l2.19-1.49v-.46h0l-2.42,1.61h-.05a.06.06,0,0,1-.06-.06v-.11l2.42-1.61h.11v-.69Zm6.56,1.15a.28.28,0,0,1,.4-.06.27.27,0,0,1,.06.41.29.29,0,0,1-.46-.35ZM40.94,14c-.06,0-.06,0,0-.11s.06-.06.11,0l2.42,1.61c.06.05.06.05,0,.11l-.06.06h0Zm-2.13,3c0-.06.06-.06.11,0l2.42,1.6c.06,0,.06.06,0,.12a.06.06,0,0,1-.06.06h-.05l-2.42-1.67C38.75,17.19,38.75,17.13,38.81,17.08Zm-3.22,1.6L38,17.08a.08.08,0,0,1,.12,0v.11L35.7,18.8h-.06a.05.05,0,0,1,0-.06C35.53,18.74,35.53,18.68,35.59,18.68ZM34.2,14a.39.39,0,0,1,.41.06.29.29,0,0,1-.06.4.35.35,0,0,1-.4-.05C34,14.26,34,14.09,34.2,14Zm1.73,0-2.42,1.61h0a.06.06,0,0,1-.06-.06.07.07,0,0,1,0-.11l2.42-1.61h.11C36,14,36,14,35.93,14Z"/><path class="cls-2" d="M36.28,14.38v0Z"/><path class="cls-2" d="M40.59,14.38v0Z"/><path class="cls-2" d="M36.68,16.62h3.57a.18.18,0,0,0,.17-.17v-5a.15.15,0,0,0-.17-.17H36.74c-.12,0-.18.05-.18.17V16.5c-.05.06,0,.12.12.12Zm2.76-.29H37.08c-.06,0-.06-.06-.06-.11a.06.06,0,0,1,.06-.06H40a.06.06,0,0,1,.06.06.21.21,0,0,1-.06.11h-.52Zm-1-4.82a.26.26,0,0,1,.28.28.27.27,0,0,1-.28.29c-.18,0-.23-.17-.23-.29A.25.25,0,0,1,38.41,11.51Zm-1.44.8h2.87a.21.21,0,0,1,.12.06.06.06,0,0,1-.06.06H37c-.05,0-.05-.06-.05-.06S37,12.31,37,12.31Zm0,.52h2.87c.06,0,.06.05.06.11a.06.06,0,0,1-.06.06H37a.06.06,0,0,1-.06-.06A.17.17,0,0,1,37,12.83Zm0,.57h2.87a.06.06,0,0,1,.06.06.17.17,0,0,1-.06.11H37c-.06,0-.06-.05-.06-.11Zm0,.52h2.87a.06.06,0,0,1,.06.06.21.21,0,0,1-.06.11H37c-.06,0-.06-.06-.06-.11Zm0,.57h2.87c.06,0,.06.06.06.12a.21.21,0,0,1-.06.11H37c-.06,0-.06-.06-.06-.11A.21.21,0,0,1,37,14.49Zm2.7.58h.17c.06,0,.06,0,.06.11a.06.06,0,0,1-.06.06H37a.06.06,0,0,1-.06-.06.17.17,0,0,1,.06-.11h2.7Zm-2.76.63a.21.21,0,0,1,.06-.12H39.9c.06,0,.06.06.06.12s0,.06-.06.06H37C36.91,15.76,36.91,15.7,36.91,15.7Z"/></g></g></svg>