<svg xmlns="http://www.w3.org/2000/svg" viewBox="0 0 56.79 56.79"><defs><style>.cls-1{fill:#fff;stroke:#0eaa4b;stroke-miterlimit:10;stroke-width:1.34px;}.cls-2{fill:#07aa4c;}</style></defs><g id="Layer_2" data-name="Layer 2"><g id="Layer_1-2" data-name="Layer 1"><circle class="cls-1" cx="28.39" cy="28.39" r="27.73"/><path class="cls-2" d="M34,30.2,32.85,29H28.31L27.12,30.2V41.64H34V30.2ZM30.12,40.72H28V37.31h2.08Zm0-4.33H28V33h2.08Zm3,4.33H31V37.31h2.08Zm0-4.33H31V33h2.08Zm0-4.27H28V30.58l.65-.65h3.78l.65.65Z"/><path class="cls-2" d="M42.05,30.2,40.87,29H36.32L35.13,30.2V41.64h6.92ZM38.13,40.72H36.05V37.31h2.08Zm0-4.33H36.05V33h2.08Zm3,4.33H39.05V37.31h2.08Zm0-4.33H39.05V33h2.08Zm0-4.27H36.05V30.58l.65-.65h3.79l.64.65v1.54Z"/><path class="cls-2" d="M24.14,30.91h-6.9v6.78h6.9Zm-.92,5.86H18.16V31.83h5.06Z"/><rect class="cls-2" x="21.63" y="38.47" width="2.3" height="0.92"/><path class="cls-2" d="M44.39,19.92V18.84L40.1,16.2H35.58l1-4-6.72-1.7L23.6,8.87h0l-.44-.11L21.27,16.2H17.54l-4.29,2.64v1.08h-3l1.49,7.32h1.47V45H44.39V27.24h1.48l1.48-7.32Zm-4.55-2.8,3.63,2.23v.57H34.69l0-.05.7-2.75Zm-5.9,1.82-2.81-3.71,4.23-1.91Zm-.95.27L23,16.67l4.23-1.82.46.58,1.94.47.61-.28Zm1.67-6.58-5.09,2.3-1.33-.32L24.69,10.1ZM23.71,10.34l3,3.76L22.27,16Zm-9.54,9,3.63-2.23h3.25L28.57,19l3.5.89H14.17ZM24.93,44.11H16.45V29.93h8.48V44.11Zm18.54,0H25.85V29H15.53v15.1H14.17V27.24h29.3V44.11Zm1.65-17.8H12.53l-1.11-5.47H46.23Z"/><path class="cls-2" d="M16.32,22.07H15.13v3H16v-1h.25a1.52,1.52,0,0,0,1-.29.91.91,0,0,0,.37-.76C17.59,22.4,17.16,22.07,16.32,22.07Zm-.12,1.37H16v-.71h.19c.42,0,.47.2.47.35S16.62,23.44,16.2,23.44Z"/><path class="cls-2" d="M19.38,22a1.66,1.66,0,0,0-1.2.44,1.51,1.51,0,0,0-.46,1.15,1.48,1.48,0,0,0,.45,1.11,1.64,1.64,0,0,0,1.16.42,1.62,1.62,0,0,0,1.17-.44,1.64,1.64,0,0,0,0-2.26A1.59,1.59,0,0,0,19.38,22Zm.47,2.18h0a.65.65,0,0,1-.51.21.64.64,0,0,1-.51-.22.89.89,0,0,1-.19-.61.91.91,0,0,1,.19-.61.65.65,0,0,1,.53-.22.64.64,0,0,1,.5.21,1,1,0,0,1,.18.63A.88.88,0,0,1,19.85,24.2Z"/><path class="cls-2" d="M23.26,23.6h0a1.09,1.09,0,0,0-.27-.19l-.35-.16-.24-.1-.17-.09a.3.3,0,0,1-.1-.09.13.13,0,0,1,0-.14.22.22,0,0,1,.07-.06l.14-.05a1.19,1.19,0,0,1,.38,0l.18,0,.18.06.16.08.13.09v-.82l-.06,0a1.35,1.35,0,0,0-.36-.08,3,3,0,0,0-.45,0,1.86,1.86,0,0,0-.48.05,1.31,1.31,0,0,0-.42.16.93.93,0,0,0-.3.29.86.86,0,0,0-.11.43.78.78,0,0,0,.2.54,1.49,1.49,0,0,0,.58.37l.27.1a1.86,1.86,0,0,1,.2.1.63.63,0,0,1,.12.1.17.17,0,0,1,0,.1.11.11,0,0,1,0,.07.14.14,0,0,1-.07.06l-.14.05-.21,0a1.54,1.54,0,0,1-.42-.07,1.44,1.44,0,0,1-.39-.2l-.14-.11V25l.05,0a1.67,1.67,0,0,0,.43.13,4,4,0,0,0,.5,0,2.54,2.54,0,0,0,.49-.05,1.36,1.36,0,0,0,.43-.15,1,1,0,0,0,.3-.29.94.94,0,0,0,.11-.45.9.9,0,0,0-.06-.34A1.15,1.15,0,0,0,23.26,23.6Z"/><polygon class="cls-2" points="23.6 22.76 24.49 22.76 24.49 25.09 25.37 25.09 25.37 22.76 26.26 22.76 26.26 22.07 23.6 22.07 23.6 22.76"/><path class="cls-2" d="M29.29,22a1.66,1.66,0,0,0-1.2.44,1.54,1.54,0,0,0-.46,1.15,1.48,1.48,0,0,0,.45,1.11,1.64,1.64,0,0,0,1.16.42,1.66,1.66,0,0,0,1.18-.44,1.51,1.51,0,0,0,.45-1.14,1.5,1.5,0,0,0-.44-1.12A1.57,1.57,0,0,0,29.29,22Zm.47,2.18a.64.64,0,0,1-.51.21.61.61,0,0,1-.5-.22.9.9,0,0,1-.2-.61.91.91,0,0,1,.2-.61.65.65,0,0,1,.52-.22.63.63,0,0,1,.5.21,1,1,0,0,1,.18.63A.88.88,0,0,1,29.76,24.2Z"/><polygon class="cls-2" points="31.26 25.09 32.14 25.09 32.14 23.98 33.15 23.98 33.15 23.29 32.14 23.29 32.14 22.76 33.24 22.76 33.24 22.07 31.26 22.07 31.26 25.09"/><polygon class="cls-2" points="33.62 25.09 34.51 25.09 34.51 23.98 35.52 23.98 35.52 23.29 34.51 23.29 34.51 22.76 35.61 22.76 35.61 22.07 33.62 22.07 33.62 25.09"/><polygon class="cls-2" points="35.91 22.74 36.17 22.74 36.17 24.41 35.91 24.41 35.91 25.09 37.32 25.09 37.32 24.41 37.05 24.41 37.05 22.74 37.32 22.74 37.32 22.07 35.91 22.07 35.91 22.74"/><path class="cls-2" d="M39.19,22a1.78,1.78,0,0,0-1.26.45,1.49,1.49,0,0,0-.49,1.17,1.4,1.4,0,0,0,.44,1.09,1.69,1.69,0,0,0,1.19.41A2.43,2.43,0,0,0,40,25l0,0v-.79l-.13.07a1.52,1.52,0,0,1-.71.17.89.89,0,0,1-.63-.22.9.9,0,0,1,0-1.22.92.92,0,0,1,.65-.22,1.35,1.35,0,0,1,.67.16l.13.07v-.83l-.06,0A2.38,2.38,0,0,0,39.19,22Z"/><polygon class="cls-2" points="41.34 23.92 42.37 23.92 42.37 23.22 41.34 23.22 41.34 22.76 42.44 22.76 42.44 22.07 40.46 22.07 40.46 25.09 42.51 25.09 42.51 24.39 41.34 24.39 41.34 23.92"/></g></g></svg>