<svg xmlns="http://www.w3.org/2000/svg" viewBox="0 0 56.79 56.79"><defs><style>.cls-1{fill:#fff;stroke:#8a181a;stroke-miterlimit:10;stroke-width:1.34px;}.cls-2{fill:#8a181a;}</style></defs><g id="Layer_2" data-name="Layer 2"><g id="Layer_1-2" data-name="Layer 1"><circle class="cls-1" cx="28.39" cy="28.39" r="27.73"/><rect class="cls-2" x="25.65" y="35.53" width="6.09" height="11.73"/><path class="cls-2" d="M15.55,27.57V47.26h8.79v-13H33v13h8.79V27.57Z"/><path class="cls-2" d="M45.29,26.27H12.09l16.6-16.6L37,18Z"/><path class="cls-2" d="M37.91,6.69A10.3,10.3,0,0,1,48.2,17H46.73a8.82,8.82,0,0,0-8.82-8.83Z"/><path class="cls-2" d="M37.91,9.63A7.35,7.35,0,0,1,45.26,17H43.79a5.88,5.88,0,0,0-5.88-5.88Z"/><path class="cls-2" d="M37.91,12.57A4.42,4.42,0,0,1,42.32,17H40.85A2.94,2.94,0,0,0,37.91,14Z"/><path class="cls-2" d="M37.91,17h1.47a1.47,1.47,0,0,0-1.47-1.48Z"/></g></g></svg>