<svg xmlns="http://www.w3.org/2000/svg" viewBox="0 0 57.24 57.24"><defs><style>.cls-1{fill:#fff;stroke:#1b4480;stroke-miterlimit:10;stroke-width:1.35px;}.cls-2{fill:#004282;}</style></defs><g id="Layer_2" data-name="Layer 2"><g id="Layer_1-2" data-name="Layer 1"><circle class="cls-1" cx="28.62" cy="28.62" r="27.95"/><path class="cls-2" d="M25.12,30.3l.15-1.65H41.61a1.16,1.16,0,0,0,1.19-.91,4,4,0,0,0,.07-.48V13.11A1.23,1.23,0,0,0,42.31,12a1.55,1.55,0,0,0-.79-.2c-3.15,0-6.3,0-9.44,0H15.53a1.26,1.26,0,0,0-1.17.6,1.67,1.67,0,0,0-.2.89c0,3.83,0,7.66,0,11.49v2.5a1.37,1.37,0,0,0,.27,1s0,.1,0,.15v1.81c-.22-.1-.43-.18-.62-.29a2.88,2.88,0,0,1-.54-.44,2.73,2.73,0,0,1-.46-.65,2.87,2.87,0,0,1-.29-1.33c0-2.79,0-5.59,0-8.38,0-2,0-4,0-6.05a2.8,2.8,0,0,1,.27-1.31,2.81,2.81,0,0,1,2.71-1.56H41.73a2.64,2.64,0,0,1,2,.91,2.55,2.55,0,0,1,.7,1.79V27.52a2.67,2.67,0,0,1-1.29,2.34,2.4,2.4,0,0,1-.9.34,6.83,6.83,0,0,1-1.19.1h-16Z"/><path class="cls-2" d="M18.47,19.86l1.29,4h0l.3-2.13h1.38c.08.61.15,1.22.23,1.84a2,2,0,0,0,.05.24h.07l1.25-3.91a3.89,3.89,0,0,1,1.95.6,4.5,4.5,0,0,1,.62.74c.28.37.56.75.83,1.13s.48.69.73,1,.57.79.87,1.18a.47.47,0,0,0,.27.11l1.31.14a3.42,3.42,0,0,1,.38.09l-.36.54a1.32,1.32,0,0,0,.45,1.82,1,1,0,0,0,.91-.05,2.18,2.18,0,0,0,1-1.16,2.32,2.32,0,0,1,.18-.31,2.42,2.42,0,0,1,.16.44,1.5,1.5,0,0,1-.92,1.71,2.1,2.1,0,0,1-1.17.05l-2-.26c-.42-.06-.84-.09-1.25-.19a1.59,1.59,0,0,1-1-.68c-.27-.4-.57-.78-.85-1.17l-.29-.42h-.06l-.34,5.06h-9c-.21,0-.28-.08-.3-.26s0-.38,0-.57c0-2.13,0-4.25,0-6.38a3.08,3.08,0,0,1,.55-1.82,2.74,2.74,0,0,1,.8-.79,2.93,2.93,0,0,1,1.43-.5A4,4,0,0,0,18.47,19.86Z"/><path class="cls-2" d="M22,45H10.26a1.85,1.85,0,0,1,0-.23c0-.92,0-1.84,0-2.76a3.65,3.65,0,0,1,.22-1.35,3.25,3.25,0,0,1,1.17-1.5,3.78,3.78,0,0,1,1.23-.55,8.46,8.46,0,0,1,.88-.09,26.49,26.49,0,0,1,4.08-.1,7.75,7.75,0,0,1,1.73.23,3.05,3.05,0,0,1,1.51.87,2.92,2.92,0,0,1,.82,1.58,8.29,8.29,0,0,1,.1,1.32C22,43.24,22,44.09,22,45Z"/><path class="cls-2" d="M46.8,45H35.06v-.25c0-.91,0-1.82,0-2.73a3.59,3.59,0,0,1,.17-1.18,3.16,3.16,0,0,1,.92-1.44,4.2,4.2,0,0,1,2.55-.91,24.58,24.58,0,0,1,3.21-.08,15.24,15.24,0,0,1,2.42.23,2.92,2.92,0,0,1,1.92,1.32A3.58,3.58,0,0,1,46.8,42c0,.9,0,1.8,0,2.7Z"/><path class="cls-2" d="M34.37,45H22.68V41.65a2.92,2.92,0,0,1,.55-1.73,3.28,3.28,0,0,1,1.23-1,5.47,5.47,0,0,1,1.83-.41,23.1,23.1,0,0,1,3.53-.08,11,11,0,0,1,2.14.23,2.87,2.87,0,0,1,1.55.9,3.27,3.27,0,0,1,.86,2.35c0,.94,0,1.89,0,2.83Z"/><path class="cls-2" d="M28.63,31.66a2.92,2.92,0,1,1-2.95,2.85A2.94,2.94,0,0,1,28.63,31.66Z"/><path class="cls-2" d="M41,31.66a2.92,2.92,0,1,1-2.87,3A2.91,2.91,0,0,1,41,31.66Z"/><path class="cls-2" d="M16.21,31.66a3,3,0,0,1,2.92,2.92,2.94,2.94,0,1,1-5.87-.06A3,3,0,0,1,16.21,31.66Z"/><path class="cls-2" d="M20.8,19a2.8,2.8,0,1,1,2.8-2.7A2.81,2.81,0,0,1,20.8,19Z"/><path class="cls-2" d="M30,26.17a1.23,1.23,0,0,1,.32-.78l.79-1.19.76-1.09c.18-.27.35-.55.54-.82l.74-1.09.74-1.09L34.7,19c.25-.38.49-.77.74-1.16a2,2,0,0,1,.21-.28s.1,0,.16-.06,0,.12,0,.16c-.1.22-.22.44-.33.66l-.57,1.11c-.15.29-.3.59-.46.88s-.21.36-.31.55l-1,1.94c-.29.58-.58,1.16-.88,1.74s-.66,1.27-1,1.9a1,1,0,0,1-.72.48C30.35,26.93,30,26.68,30,26.17Z"/><path class="cls-2" d="M19.44,20h2.69c-.1.23-.19.44-.29.65a5.44,5.44,0,0,1-.27.54.43.43,0,0,1-.26.18c-.3,0-.61,0-.91,0a.38.38,0,0,1-.4-.21C19.83,20.81,19.64,20.43,19.44,20Z"/></g></g></svg>