<svg xmlns="http://www.w3.org/2000/svg" viewBox="0 0 239.19 196.49"><defs><style>.cls-1{fill:#279cd6;}.cls-2{fill:#f27224;}.cls-3{fill:#325aa4;}</style></defs><g id="Layer_2" data-name="Layer 2"><g id="Layer_1-2" data-name="Layer 1"><path class="cls-1" d="M94.54,133a.75.75,0,0,1,.77.72.77.77,0,1,1-1.53,0A.75.75,0,0,1,94.54,133Z"/><path class="cls-1" d="M103.68,132.21a.74.74,0,0,1-.76.71.75.75,0,0,1-.77-.71.76.76,0,0,1,.77-.77A.76.76,0,0,1,103.68,132.21Z"/><path class="cls-1" d="M109.71,118a.74.74,0,1,1-.72-.76A.74.74,0,0,1,109.71,118Z"/><path class="cls-1" d="M114.25,133.21l-4.68-3.35V119.77a1.94,1.94,0,1,0-1.2,0v10.71l5.88,4.26V140a76.17,76.17,0,0,0-9.56-7,2.72,2.72,0,0,0,.19-.81,2,2,0,1,0-2,1.91,2.06,2.06,0,0,0,.91-.24,87.37,87.37,0,0,1,10.42,7.61v6.69c-2.24-2.63-7.84-8.37-17.89-13.92a2.4,2.4,0,0,0,.15-.57,2.1,2.1,0,1,0-.82,1.53c11.82,6.55,17.46,13.44,18.56,14.88v5.55a77.05,77.05,0,0,0-11-10.67c-7.84-6.17-20.42-13.49-36.54-13.92V76.19A10.65,10.65,0,0,1,68,76c24.59-3.11,46.21,16.36,46.21,41.14Z"/><path class="cls-1" d="M130.23,118.67A.74.74,0,1,1,131,118,.75.75,0,0,1,130.23,118.67Z"/><path class="cls-1" d="M136.26,132.92a.73.73,0,0,1-.72-.71.75.75,0,0,1,.72-.77.76.76,0,0,1,.77.77A.75.75,0,0,1,136.26,132.92Z"/><path class="cls-1" d="M144.63,134.46a.75.75,0,0,1-.72-.77.74.74,0,0,1,.72-.72.75.75,0,0,1,.77.72A.76.76,0,0,1,144.63,134.46Z"/><path class="cls-1" d="M172.57,76.19v54.87c-16.12.43-28.75,7.75-36.6,13.92a77.6,77.6,0,0,0-11,10.67v-5.5c1-1.3,6.6-8.28,18.56-14.93a2,2,0,0,0,1.15.43,1.94,1.94,0,1,0,0-3.87,1.92,1.92,0,0,0-1.91,1.91,2.82,2.82,0,0,0,.09.57c-10,5.55-15.64,11.29-17.89,13.92v-6.65a80,80,0,0,1,10.43-7.65,2,2,0,0,0,.91.24,1.94,1.94,0,1,0-1.91-1.91,1.63,1.63,0,0,0,.19.81,77.59,77.59,0,0,0-9.62,7v-5.26l5.89-4.26V119.77a1.94,1.94,0,1,0-1.2,0v10.09l-4.69,3.4V117.14c0-24.78,21.62-44.25,46.21-41.14A11.83,11.83,0,0,1,172.57,76.19Z"/><path class="cls-1" d="M119.59,86.8s-11-25.28-48.47-17.73a47.51,47.51,0,0,1,33.4,11.84A48.33,48.33,0,0,1,119.59,106a48.33,48.33,0,0,1,15.07-25.13,47.52,47.52,0,0,1,33.4-11.84C130.6,61.52,119.59,86.8,119.59,86.8Z"/><circle class="cls-1" cx="119.59" cy="64.08" r="11.59"/><path class="cls-2" d="M178.38,142.61a99.6,99.6,0,0,0-43,13c8.11-7.81,22.54-18.22,41.77-18.22h1.38v-51h.06a6.71,6.71,0,0,1,6.33,6.7v42.49A7,7,0,0,1,178.38,142.61Z"/><path class="cls-2" d="M60.81,142.61a99.7,99.7,0,0,1,43,13c-8.12-7.81-22.55-18.22-41.77-18.22H60.68v-51h-.07a6.71,6.71,0,0,0-6.33,6.7v42.49A7,7,0,0,0,60.81,142.61Z"/><polygon class="cls-2" points="123.37 153.45 115.82 153.45 115.82 109.06 119.59 114.77 123.37 109.06 123.37 153.45"/><polygon class="cls-2" points="123.37 156.71 119.59 160.57 115.82 156.71 115.82 155.2 123.37 155.2 123.37 156.71"/><path class="cls-1" d="M89.5,13.77c-2.58.08-5.16,0-7.74,0,0,1,0,2.07,0,3.12L99.29,29.5l2.94,0c3.23,0,6.46,0,9.69,0,3.07,0,6.15,0,9.21.27L104,30.92l-.22,0-1.46.1c0,3.79,0,7.6,0,11.4,0,2,0,4,0,6,.82.29,1.64.6,2.49.85,1.9.42,3.83.63,5.77.87l1.1.11.62.06c.65,0,1.29,0,1.94.09l1,0,1.89.05c.91,0,1.82,0,2.73,0l1.5,0c.91,0,1.83,0,2.74,0s1.88-.1,2.82-.17l1.87-.16c1-.09,2-.18,3-.3l.2,0c.63-.11,1.27-.23,1.9-.36l.53-.11c.74-.19,1.48-.39,2.2-.65l1.55-.69c0-1.28,0-2.55,0-3.83v-.53c-.05-4.68,0-9.37-.05-14l3.35,0h7.2c0-1,0-2,0-3L143.92,23c2.1,1,4.05,2.22,6.09,3.32q0,6.31,0,12.62c-1.05.72-2.26,1.54-2.4,2.93-.36,1.89,1.26,3.33,1.59,5.1a8.67,8.67,0,0,1-.32,4.7c3.87-1.59,5.77-6,5.45-10-.2-1.25-1.29-2-2.24-2.7,0-3.15,0-6.3,0-9.46h5.32c0-1,0-2,0-3L137.58,13.39l-21.77.16-.34,0h-2.69l-19.94.15Z"/><path class="cls-3" d="M80,193.51v2.28c-2.37-1-4.65-2-6.9-3.19a78.79,78.79,0,0,1-7.75-4.53s-.07,0-.1-.07A97,97,0,0,1,56,181.16l0,0c-.34-.27-.65-.56-1-.85-.86-.72-1.69-1.44-2.52-2.19a44,44,0,0,1-7.36-.55c-3.2-.55-7-1.47-9.51-3.13-2.9-1.73-9.09-7.23-13.33-12.48s-7.09-9.74-5.08-8a24.19,24.19,0,0,0,10.92,5.22c3.27.72,5.88,1.24,8.44,3.09a63.09,63.09,0,0,1,5.08,4.7c-.55-.69-1.17-1.31-1.75-2.12a6.77,6.77,0,0,0,.8.91A26.27,26.27,0,0,1,38,161.28c-1.23-2.71-.43-5.22.27-8s1.64-5.93,1-10.07c-.22-2.08,1.72,1.73,4.31,6.56s6.1,10.59,7.17,13.13a29.8,29.8,0,0,1,1.63,8c.28,2.81.47,5.28.5,6.55.55.46,1.07.88,1.66,1.34h0a95.88,95.88,0,0,0,18.72,11.89C75.51,191.72,77.76,192.66,80,193.51Z"/><path class="cls-3" d="M33.89,158.85l-1.46-2.18c-.95-1.31-2.1-3.18-3.36-5.2s-2.62-4.18-3.85-6.15-2.42-3.72-3.36-4.89c-1.92-2.3-4.51-3.19-7.3-4.53a21.32,21.32,0,0,1-9.13-7.06c-.75-1-.7-.31-.16,1.39.29.85.65,2,1.2,3.2s1.23,2.62,2,4.07a78,78,0,0,0,5.07,8.6,48.78,48.78,0,0,0,4.7,5.84c2.47,2.36,6.46,4.19,9.71,5.33A50.82,50.82,0,0,0,33.89,158.85Z"/><path class="cls-3" d="M30.71,122.35a25,25,0,0,1-3.3,9.27c-1.4,2.5-2.49,4.65-2,7.44a19.74,19.74,0,0,0,1.84,5.37,46.3,46.3,0,0,0,3.37,6.26,53.36,53.36,0,0,0,3.4,5.08l1.57,2.08s.57-2.41,1-5.4,1-6.67.52-9.42a48,48,0,0,0-1.62-5.93c-.63-2.51-1.63-5.23-2.2-7.78-.33-1.26-.67-2.44-1-3.48s-.49-2-.71-2.63C31.16,121.84,30.83,121.35,30.71,122.35Z"/><path class="cls-3" d="M73.46,192.48a4.7,4.7,0,0,0-1.9-2c-1.46-.8-4-2.2-6.06-3.53s-4.3-3.12-6.32-4.43-2.8-1.14-4.19-1.8c-2.8-1.28-6.92-.6-10-.52a20.43,20.43,0,0,1-11.43-2.34c-1.15-.61-.78,0,.51,1.42.66.67,1.51,1.57,2.58,2.5s2.34,1.91,3.67,2.95a80.25,80.25,0,0,0,8.57,5.81,48.35,48.35,0,0,0,6.94,3.33c3.31,1.06,7.71.88,11.14.38A35.47,35.47,0,0,0,73.46,192.48Z"/><path class="cls-3" d="M53.49,165.43a22.11,22.11,0,0,1,1,9.28c-.19,2.79-.25,5.12,1.4,7.1a15.7,15.7,0,0,0,4,3.28,39,39,0,0,0,5.82,3.14,47.32,47.32,0,0,0,5.33,2.17l2.35.78s-.54-2.24-1.45-4.89-2-5.89-3.65-7.84a37,37,0,0,0-4.08-3.85c-1.67-1.67-3.78-3.29-5.42-5-.85-.82-1.67-1.59-2.41-2.24s-1.3-1.29-1.8-1.72C53.68,164.77,53.16,164.57,53.49,165.43Z"/><path class="cls-3" d="M21.34,137.19s-.42-.91-.94-2.41-1.32-3.51-2.14-5.71-1.56-4.6-2.35-6.75a33.51,33.51,0,0,0-2.12-5.43c-1.4-2.62-3.48-4-6-5.88a20.27,20.27,0,0,1-7.23-8.75c-1-2.3-.59,2.82.85,9.1a66.47,66.47,0,0,0,3,9.44c.58,1.46,1.15,2.8,1.67,4a26.69,26.69,0,0,0,1.57,2.7,20.89,20.89,0,0,0,3.68,4,40.25,40.25,0,0,0,4.62,3.11c1.49.86,2.83,1.54,3.8,2S21.34,137.19,21.34,137.19Z"/><path class="cls-3" d="M26.77,101c-1.33,3.78-3.66,6.2-5.44,8.34s-3.64,4.05-3.78,6.85a30.46,30.46,0,0,0,.52,5.6c.48,2.19,1.19,4.56,1.85,6.77s1.62,4.15,2.21,5.59a21.36,21.36,0,0,0,1.07,2.32l.65-1.46c.43-.93,1-2.21,1.6-3.65a47.29,47.29,0,0,0,1.64-4.57,17.65,17.65,0,0,0,1-4.51,23.72,23.72,0,0,0-.06-2.56c0-1.05-.05-2.24-.12-3.51-.24-2.53-.22-5.4-.34-8C27.52,103.17,27.49,99.18,26.77,101Z"/><path class="cls-3" d="M14.21,114.36s-.13-1-.33-2.53-.6-3.68-.74-6c-.6-4.62-.73-10-1.52-12.78-.57-2.83-2.41-4.64-4.43-7a19.89,19.89,0,0,1-4.88-10c-.39-2.43-1.2,2.64-1.43,9.07A76.07,76.07,0,0,0,1.48,95,37.77,37.77,0,0,0,3,102.16,24.34,24.34,0,0,0,9.5,110.7,44.14,44.14,0,0,0,14.21,114.36Z"/><path class="cls-3" d="M28.18,80.25c-2.18,3.41-5.05,5.29-7.36,7s-4.4,3.22-5.38,5.91a38.58,38.58,0,0,0-.57,12.53,44,44,0,0,0,.83,5.89c.3,1.52.48,2.48.48,2.48s1.61-2,3.38-4.56,4-5.69,4.72-8.32c.32-1.25.91-3.44,1.31-5.93s1.19-5.28,1.59-7.79C28.47,82.48,29.33,78.58,28.18,80.25Z"/><path class="cls-3" d="M12.76,89.92s.11-1,.27-2.55.5-3.68.83-6c.16-1.15.32-2.35.48-3.54s.45-2.34.66-3.47c.42-2.23.53-4.31.67-5.73.13-2.88-1.21-5-2.61-7.7a19.55,19.55,0,0,1-2.25-10.7c.17-2.45-1.76,2.33-3.65,8.47-.71,3.15-1.53,6.59-1.91,9.68a50.49,50.49,0,0,0-.31,7.29c.39,3.27,2.3,7,4.07,9.67A43.44,43.44,0,0,0,12.76,89.92Z"/><path class="cls-3" d="M19.36,69.55a21.14,21.14,0,0,0-2.18,5.26c-.34,1.07-.68,2.2-1,3.35s-.41,2.33-.61,3.46a43.06,43.06,0,0,0-.72,5.9c-.07,1.54-.11,2.51-.11,2.51s2-1.61,4.36-3.74c2.51-2.12,5.3-4.69,6.75-7.09a40.26,40.26,0,0,0,2.77-5.5c1.1-2.33,2.5-4.91,3.55-7.28,2.58-4.61,4.3-8.3,2.81-6.88-3,2.91-6.21,4.19-8.95,5.36S21,67.13,19.36,69.55Z"/><path class="cls-3" d="M17.58,65.73s.33-.88.83-2.28,1.36-3.26,2.18-5.31c1.53-4.14,3.91-8.65,4.46-11.35s0-4.8-.77-7.47a16.57,16.57,0,0,1-.06-10.12c.32-1.08-.2-.63-1.18.73-.5.68-1.11,1.59-1.78,2.65S20,35,19.3,36.3a60.23,60.23,0,0,0-5.62,15,23.92,23.92,0,0,0,1.54,9.57A36.52,36.52,0,0,0,17.58,65.73Z"/><path class="cls-3" d="M44.93,41.56a29.78,29.78,0,0,1-9.37,3.61c-2.74.66-5.31,1.14-7.2,3.14a39.33,39.33,0,0,0-6.13,10.41A45.16,45.16,0,0,0,20.18,64l-.68,2.28s2.22-1.07,4.86-2.57,6-3.31,7.83-5.29c1.93-1.8,5.4-6.88,8.73-10.81l2.14-2.81c.7-.82,1.29-1.54,1.71-2.1C45.61,41.54,45.81,41,44.93,41.56Z"/><path class="cls-3" d="M27.45,44.35s2-3.08,4.41-6.72a102.73,102.73,0,0,0,6.53-10.07c2.32-4.8-1.63-9,2.12-16.89.94-2-2.27,1.4-5.86,6-1.69,2.38-3.49,5-5,7.42A35.53,35.53,0,0,0,26.74,30a16.9,16.9,0,0,0-.8,4.59,26.49,26.49,0,0,0,.37,4.72A37,37,0,0,0,27.45,44.35Z"/><path class="cls-3" d="M41.32,29.56C39,31.07,36,35,33.36,38.48c-1.25,1.75-2.2,3.49-3,4.71l-1.19,2s2.39-.61,5.26-1.58c1.45-.48,3-1.08,4.48-1.69a20.23,20.23,0,0,0,4.11-2.1c1.09-.72,2.61-2.25,4.51-3.92s4-3.56,5.87-5.32c3.9-3.39,6.87-6.14,5-5.29C50.88,28.75,45.83,26.39,41.32,29.56Z"/><path class="cls-3" d="M41,27.27A17,17,0,0,0,46.51,26a24.32,24.32,0,0,0,10-7.11c1.62-1.63,4.53-5.79,7.41-9.78S69.67,1.32,70.14,0c-1.47.22-6,2.2-10.84,4.54a91.35,91.35,0,0,0-11.36,7C43.69,15.35,41.68,19,41,21.94A12,12,0,0,0,41,27.27Z"/><path class="cls-3" d="M216.88,161.93c-4.21,5.25-10.43,10.75-13.3,12.48-2.55,1.66-6.34,2.58-9.51,3.13a44.16,44.16,0,0,1-7.36.55c-.83.75-1.69,1.5-2.55,2.22-.31.29-.62.55-.92.82h-.07a90.7,90.7,0,0,1-9.36,6.9A77.64,77.64,0,0,1,166,192.6c-2.25,1.17-4.53,2.21-6.87,3.19v-2.28c2.28-.85,4.5-1.79,6.68-2.84a96,96,0,0,0,18.78-11.92c.55-.43,1.11-.85,1.63-1.31,0-1.27.25-3.74.49-6.55a30.19,30.19,0,0,1,1.67-8c1.07-2.54,4.68-8.25,7.17-13.13s4.53-8.64,4.31-6.56c-.62,4.14.34,7.34,1,10.07s1.47,5.28.24,8a25.81,25.81,0,0,1-2.65,4.43,11.69,11.69,0,0,0,.81-.91c-.59.81-1.21,1.43-1.76,2.12,2-1.86,3.63-3.69,5-4.7,2.59-1.85,5.2-2.37,8.47-3.09A24.33,24.33,0,0,0,222,153.91C224,152.19,221.19,156.72,216.88,161.93Z"/><path class="cls-3" d="M205.29,158.85l1.47-2.18c.94-1.31,2.09-3.18,3.36-5.2s2.62-4.18,3.85-6.15,2.41-3.72,3.35-4.89c1.93-2.3,4.51-3.19,7.31-4.53a21.36,21.36,0,0,0,9.12-7.06c.75-1,.71-.31.16,1.39a32.86,32.86,0,0,1-1.19,3.2c-.57,1.23-1.24,2.62-2,4.07a76.5,76.5,0,0,1-5.08,8.6,46.85,46.85,0,0,1-4.7,5.84c-2.47,2.36-6.45,4.19-9.71,5.33A50.82,50.82,0,0,1,205.29,158.85Z"/><path class="cls-3" d="M208.47,122.35a25.2,25.2,0,0,0,3.3,9.27c1.41,2.5,2.5,4.65,2,7.44a19.81,19.81,0,0,1-1.85,5.37,46.23,46.23,0,0,1-3.36,6.26,51.4,51.4,0,0,1-3.41,5.08l-1.57,2.08s-.56-2.41-1-5.4a30.68,30.68,0,0,1-.52-9.42,48,48,0,0,1,1.62-5.93c.63-2.51,1.63-5.23,2.2-7.78.33-1.26.66-2.44,1-3.48s.48-2,.71-2.63C208,121.84,208.35,121.35,208.47,122.35Z"/><path class="cls-3" d="M165.72,192.48a4.77,4.77,0,0,1,1.91-2c1.46-.8,4-2.2,6.06-3.53s4.29-3.12,6.32-4.43,2.8-1.14,4.18-1.8c2.8-1.28,6.93-.6,10-.52a20.46,20.46,0,0,0,11.44-2.34c1.14-.61.77,0-.52,1.42-.65.67-1.5,1.57-2.57,2.5s-2.34,1.91-3.67,2.95a80.37,80.37,0,0,1-8.58,5.81,48.35,48.35,0,0,1-6.94,3.33c-3.31,1.06-7.71.88-11.14.38A35.47,35.47,0,0,1,165.72,192.48Z"/><path class="cls-3" d="M185.7,165.43a22.11,22.11,0,0,0-1,9.28c.18,2.79.24,5.12-1.4,7.1a15.77,15.77,0,0,1-4,3.28,38,38,0,0,1-5.82,3.14,46.57,46.57,0,0,1-5.33,2.17l-2.34.78s.54-2.24,1.45-4.89,2-5.89,3.65-7.84a37.6,37.6,0,0,1,4.07-3.85c1.68-1.67,3.78-3.29,5.42-5,.86-.82,1.68-1.59,2.42-2.24s1.3-1.29,1.8-1.72C185.51,164.77,186,164.57,185.7,165.43Z"/><path class="cls-3" d="M217.85,137.19s.42-.91.93-2.41l2.15-5.71c.71-2.22,1.55-4.6,2.35-6.75a32.69,32.69,0,0,1,2.11-5.43c1.4-2.62,3.48-4,6-5.88a20.26,20.26,0,0,0,7.22-8.75c1-2.3.59,2.82-.84,9.1a65.24,65.24,0,0,1-3,9.44c-.58,1.46-1.14,2.8-1.66,4a26.69,26.69,0,0,1-1.57,2.7,21,21,0,0,1-3.69,4,38.58,38.58,0,0,1-4.62,3.11c-1.48.86-2.83,1.54-3.8,2S217.85,137.19,217.85,137.19Z"/><path class="cls-3" d="M212.41,101c1.33,3.78,3.66,6.2,5.44,8.34s3.64,4.05,3.79,6.85a30.46,30.46,0,0,1-.52,5.6c-.48,2.19-1.19,4.56-1.86,6.77s-1.62,4.15-2.21,5.59a20.41,20.41,0,0,1-1.06,2.32l-.65-1.46c-.44-.93-1-2.21-1.61-3.65a47.26,47.26,0,0,1-1.63-4.57,17.24,17.24,0,0,1-1-4.51,19.45,19.45,0,0,1,.06-2.56c0-1.05,0-2.24.12-3.51.23-2.53.22-5.4.34-8C211.66,103.17,211.69,99.18,212.41,101Z"/><path class="cls-3" d="M225,114.36s.13-1,.34-2.53.6-3.68.74-6c.59-4.62.72-10,1.51-12.78.58-2.83,2.42-4.64,4.44-7a19.89,19.89,0,0,0,4.87-10c.39-2.43,1.2,2.64,1.44,9.07A76.06,76.06,0,0,1,237.7,95a37,37,0,0,1-1.54,7.16,24.19,24.19,0,0,1-6.47,8.54A43.59,43.59,0,0,1,225,114.36Z"/><path class="cls-3" d="M211,80.25c2.17,3.41,5,5.29,7.35,7s4.4,3.22,5.38,5.91a38.3,38.3,0,0,1,.57,12.53,44,44,0,0,1-.83,5.89c-.29,1.52-.48,2.48-.48,2.48s-1.61-2-3.38-4.56-4-5.69-4.72-8.32c-.32-1.25-.91-3.44-1.3-5.93S212.41,90,212,87.46C210.72,82.48,209.86,78.58,211,80.25Z"/><path class="cls-3" d="M226.42,89.92l-.26-2.55c-.08-1.56-.5-3.68-.83-6-.16-1.15-.33-2.35-.49-3.54l-.65-3.47a56.55,56.55,0,0,1-.67-5.73c-.14-2.88,1.2-5,2.6-7.7a19.47,19.47,0,0,0,2.25-10.7c-.17-2.45,1.76,2.33,3.65,8.47.71,3.15,1.53,6.59,1.91,9.68a49.37,49.37,0,0,1,.32,7.29c-.4,3.27-2.3,7-4.08,9.67A42,42,0,0,1,226.42,89.92Z"/><path class="cls-3" d="M219.83,69.55A21.53,21.53,0,0,1,222,74.81c.33,1.07.67,2.2,1,3.35s.41,2.33.61,3.46a44.7,44.7,0,0,1,.72,5.9c.06,1.54.1,2.51.1,2.51s-2-1.61-4.35-3.74c-2.51-2.12-5.31-4.69-6.75-7.09a39.13,39.13,0,0,1-2.77-5.5c-1.11-2.33-2.5-4.91-3.55-7.28-2.59-4.61-4.31-8.3-2.82-6.88,3,2.91,6.22,4.19,9,5.36S218.21,67.13,219.83,69.55Z"/><path class="cls-3" d="M221.6,65.73l-.83-2.28c-.43-1.42-1.35-3.26-2.17-5.31-1.53-4.14-3.92-8.65-4.46-11.35s0-4.8.76-7.47A16.64,16.64,0,0,0,215,29.2c-.33-1.08.19-.63,1.18.73.49.68,1.1,1.59,1.78,2.65s1.27,2.38,1.95,3.72a59.93,59.93,0,0,1,5.63,15A23.92,23.92,0,0,1,224,60.84,37.22,37.22,0,0,1,221.6,65.73Z"/><path class="cls-3" d="M194.25,41.56a29.73,29.73,0,0,0,9.38,3.61c2.74.66,5.3,1.14,7.2,3.14A39.33,39.33,0,0,1,217,58.72,45.45,45.45,0,0,1,219,64c.41,1.4.68,2.28.68,2.28s-2.23-1.07-4.86-2.57c-2.8-1.47-6-3.31-7.84-5.29-1.93-1.8-5.39-6.88-8.72-10.81-.78-1-1.5-2-2.14-2.81s-1.29-1.54-1.72-2.1C193.57,41.54,193.38,41,194.25,41.56Z"/><path class="cls-3" d="M211.73,44.35l-4.41-6.72a102.37,102.37,0,0,1-6.52-10.07c-2.32-4.8,1.63-9-2.12-16.89-1-2,2.27,1.4,5.85,6,1.7,2.38,3.49,5,5,7.42A35.31,35.31,0,0,1,212.44,30a16.9,16.9,0,0,1,.8,4.59,26.49,26.49,0,0,1-.37,4.72A35.2,35.2,0,0,1,211.73,44.35Z"/><path class="cls-3" d="M197.86,29.56c2.37,1.51,5.36,5.48,8,8.92,1.26,1.75,2.21,3.49,3,4.71l1.18,2s-2.39-.61-5.26-1.58c-1.45-.48-3-1.08-4.48-1.69a20.49,20.49,0,0,1-4.11-2.1c-1.08-.72-2.6-2.25-4.51-3.92s-4-3.56-5.86-5.32c-3.91-3.39-6.87-6.14-5-5.29C188.3,28.75,193.36,26.39,197.86,29.56Z"/><path class="cls-3" d="M198.23,27.27a16.93,16.93,0,0,1-5.55-1.3,24.26,24.26,0,0,1-10-7.11c-1.62-1.63-4.53-5.79-7.42-9.78S169.51,1.32,169,0c1.47.22,6.05,2.2,10.84,4.54a91.62,91.62,0,0,1,11.37,7c4.25,3.84,6.26,7.52,6.9,10.43A12.13,12.13,0,0,1,198.23,27.27Z"/><path class="cls-2" d="M91.91,180.78a10.46,10.46,0,0,0,1.18.85,3.4,3.4,0,0,0,1.65.53,1.69,1.69,0,0,0,1-.37c-.58,2.06-1.52,3.1-2.8,3.1a3,3,0,0,1-1-.2,2.74,2.74,0,0,0-.94-.21,1.11,1.11,0,0,0-.86.39,1.88,1.88,0,0,0-.48.9,4.49,4.49,0,0,1,1.1-.36l.83-.13a3,3,0,0,1,2.8,1.45,6.22,6.22,0,0,1,.71,3.22,6.61,6.61,0,0,1-1.3,3.86A5.73,5.73,0,0,1,89,196.3,7.12,7.12,0,0,1,84.76,195a6.75,6.75,0,0,1-2.58-3.58,9.8,9.8,0,0,0,2.52-.61,4.91,4.91,0,0,0,1.69-1.4,3.09,3.09,0,0,0-1.77-.52,5.5,5.5,0,0,0-1.36.2c-.54.13-.94.23-1.2.27v-5.7c.47-.38.84-.69,1.1-.92a7.62,7.62,0,0,0,1.66-1.9,7.17,7.17,0,0,0,1.22.81,3.76,3.76,0,0,0,1.69.48,1.76,1.76,0,0,0,1-.28c-.58,2.06-1.54,3.1-2.87,3.1a3,3,0,0,1-1-.21,3.21,3.21,0,0,0-.91-.2,1.15,1.15,0,0,0-.87.38,2,2,0,0,0-.47.91,6.56,6.56,0,0,1,1.36-.42c.3,0,.53-.07.69-.11a3.35,3.35,0,0,1,2.09.61,2.62,2.62,0,0,1,1,2.21,2.83,2.83,0,0,1-.35,1.18,11.64,11.64,0,0,1-1.22,1.84,4.24,4.24,0,0,0,2,1.48,6.33,6.33,0,0,0,1.92.24,4.5,4.5,0,0,0,2.37-.8q1.26-.79,1.26-1.68a1.27,1.27,0,0,0-.61-1.15,3.27,3.27,0,0,0-1.39-.46c-.46,0-.93.06-1.43.12a4.35,4.35,0,0,0-1.3.32v-5.52c.53-.4.92-.72,1.19-.95A8.26,8.26,0,0,0,91.91,180.78Zm-3.18,8.49a2.34,2.34,0,0,0,1.57.92l.82.08a2.84,2.84,0,0,0,1.31-.32A2.58,2.58,0,0,1,89.76,192a3.12,3.12,0,0,1-2.59-1.17Z"/><path class="cls-2" d="M100.55,192.05a2.22,2.22,0,0,1,2.22,2.22,2.22,2.22,0,0,1-2.22,2.22,2.22,2.22,0,0,1-2.23-2.22,2.22,2.22,0,0,1,2.23-2.22Z"/><path class="cls-2" d="M115.74,180.78a10.46,10.46,0,0,0,1.18.85,3.4,3.4,0,0,0,1.65.53,1.69,1.69,0,0,0,1-.37c-.58,2.06-1.52,3.1-2.8,3.1a3,3,0,0,1-1-.2,2.74,2.74,0,0,0-.95-.21,1.1,1.1,0,0,0-.85.39,1.88,1.88,0,0,0-.48.9,4.49,4.49,0,0,1,1.1-.36l.83-.13a3,3,0,0,1,2.8,1.45A6.22,6.22,0,0,1,119,190a6.61,6.61,0,0,1-1.3,3.86,5.73,5.73,0,0,1-4.93,2.49,7.12,7.12,0,0,1-4.19-1.32A6.75,6.75,0,0,1,106,191.4a9.8,9.8,0,0,0,2.52-.61,4.91,4.91,0,0,0,1.69-1.4,3.09,3.09,0,0,0-1.77-.52,5.5,5.5,0,0,0-1.36.2c-.54.13-.94.23-1.2.27v-5.7c.47-.38.84-.69,1.1-.92a7.62,7.62,0,0,0,1.66-1.9,6.8,6.8,0,0,0,1.22.81,3.76,3.76,0,0,0,1.69.48,1.76,1.76,0,0,0,1-.28c-.58,2.06-1.54,3.1-2.87,3.1a3,3,0,0,1-1-.21,3.21,3.21,0,0,0-.91-.2,1.15,1.15,0,0,0-.87.38,2,2,0,0,0-.47.91,6.39,6.39,0,0,1,1.36-.42c.3,0,.53-.07.69-.11a3.35,3.35,0,0,1,2.09.61,2.62,2.62,0,0,1,1,2.21,2.83,2.83,0,0,1-.35,1.18,12.4,12.4,0,0,1-1.22,1.84A4.24,4.24,0,0,0,112,192.6a6.33,6.33,0,0,0,1.92.24,4.5,4.5,0,0,0,2.37-.8q1.26-.79,1.26-1.68a1.27,1.27,0,0,0-.61-1.15,3.27,3.27,0,0,0-1.4-.46c-.45,0-.92.06-1.42.12a4.35,4.35,0,0,0-1.3.32v-5.52c.53-.4.92-.72,1.19-.95A8.26,8.26,0,0,0,115.74,180.78Z"/><path class="cls-2" d="M124.38,192.05a2.22,2.22,0,0,1,2.22,2.22,2.22,2.22,0,0,1-2.22,2.22,2.22,2.22,0,0,1-2.23-2.22,2.22,2.22,0,0,1,2.23-2.22Z"/><path class="cls-2" d="M133.73,185.56a2.35,2.35,0,0,1,1-.28,12.2,12.2,0,0,1,1.38-.08,7.4,7.4,0,0,1,1.32.07,6.5,6.5,0,0,1,2.88,1.43c.94.76,1.41,1.44,1.41,2.06-.21.43-.38.76-.52,1-.45.88-.74,1.47-.88,1.77a5.62,5.62,0,0,0,1.76.73,9.78,9.78,0,0,0,2,.2,3.81,3.81,0,0,0,2.33-.69,2.16,2.16,0,0,0,.92-1.81,1,1,0,0,0-.58-1,3.69,3.69,0,0,0-1.75-.32,6.91,6.91,0,0,0-2.48.56v-5.61c.5-.41.89-.73,1.16-1a8.7,8.7,0,0,0,1.72-1.89,6.76,6.76,0,0,0,1.25.8,3.91,3.91,0,0,0,1.72.48,1.87,1.87,0,0,0,1-.27q-.88,3.09-2.92,3.09a3.19,3.19,0,0,1-1-.21,3.35,3.35,0,0,0-.91-.2,1.22,1.22,0,0,0-.9.38,2,2,0,0,0-.48.91,4.9,4.9,0,0,1,1.38-.37,2.77,2.77,0,0,0,.51-.07,3.43,3.43,0,0,1,2.89,1.28,4.76,4.76,0,0,1,.88,3,6.73,6.73,0,0,1-1.56,4.34,6.23,6.23,0,0,1-5.05,2.29,7.58,7.58,0,0,1-2.49-.5,4.72,4.72,0,0,1-1.93-1.11c.35-.83.67-1.55,1-2.17l.71-1.48a4.43,4.43,0,0,0-.8-1.29,5.27,5.27,0,0,0-3.81-1.27,4.38,4.38,0,0,0-3,.88,2.8,2.8,0,0,0-.81,2.16,1.8,1.8,0,0,0,.76,1.36,2.48,2.48,0,0,0,1.61.65,3.33,3.33,0,0,0,2-.41.71.71,0,0,0,.32-.6c0-.35-.15-.52-.39-.52a5.18,5.18,0,0,0-1.12.61,1.77,1.77,0,0,1-.77.27c-1.1,0-1.64-.59-1.64-1.76a1.74,1.74,0,0,1,.62-1.22,2.16,2.16,0,0,1,1.62-.62,2.11,2.11,0,0,1,1.89,1,4.08,4.08,0,0,1-.36,4.87,3.09,3.09,0,0,1-2.45,1.2,2.91,2.91,0,0,1-2.09-1.36,5.35,5.35,0,0,1-1.24-3.41,7.64,7.64,0,0,1,.68-3.33,5.54,5.54,0,0,1,1.44-1.84,9.1,9.1,0,0,0-.84-1.24,3.18,3.18,0,0,0-1-.68c.83-.59,1.46-1.05,1.88-1.38a10.29,10.29,0,0,0,2.45-2.28,6.7,6.7,0,0,0,1.24.8,4,4,0,0,0,1.74.48,1.93,1.93,0,0,0,1-.27,5.67,5.67,0,0,1-1.12,2.34,2.3,2.3,0,0,1-1.8.75,8.63,8.63,0,0,1-1.55-.22,8,8,0,0,0-1.3-.22l-.21.07c0,.11.23.31.68.61Z"/><path class="cls-2" d="M154.18,192.05a2.22,2.22,0,0,1,2.22,2.22,2.22,2.22,0,0,1-2.22,2.22,2.22,2.22,0,0,1-2.23-2.22,2.22,2.22,0,0,1,2.23-2.22Z"/></g></g></svg>