<svg xmlns="http://www.w3.org/2000/svg" viewBox="0 0 625.52 499.87"><defs><style>.cls-1{fill:#fff;}.cls-2{fill:#279cd6;}.cls-3{fill:#f27224;}.cls-4{fill:#325aa4;}</style></defs><g id="Layer_2" data-name="Layer 2"><g id="Layer_1-2" data-name="Layer 1"><path class="cls-1" d="M27,493.35q.09,0,.09.24a16.46,16.46,0,0,1-.29,2.26,5,5,0,0,1-1.08,2.27,3.91,3.91,0,0,1-2.25,1.35,13.28,13.28,0,0,1-2.58.26h-6a22.86,22.86,0,0,1-5.16-.5,9.26,9.26,0,0,1-3.55-1.58,11.69,11.69,0,0,1-3.61-4.77,17.08,17.08,0,0,1-1.27-6.71,16.6,16.6,0,0,1,1.27-6.53,11.27,11.27,0,0,1,3.61-4.72h0a9.67,9.67,0,0,1,3.53-1.58,21.7,21.7,0,0,1,5.14-.5H26.82a.25.25,0,0,1,.2.09.36.36,0,0,1,.09.24,15.84,15.84,0,0,1-.29,2.24,5,5,0,0,1-1.08,2.25A4,4,0,0,1,23.49,479a13.28,13.28,0,0,1-2.58.26H15.42q-4.34,0-6,1.51c-1.15,1-1.73,2.8-1.73,5.39a12.31,12.31,0,0,0,.39,3.4,4.63,4.63,0,0,0,1.26,2.13,5.16,5.16,0,0,0,2.33,1.15,16.33,16.33,0,0,0,3.78.36h11.4A.22.22,0,0,1,27,493.35Z"/><path class="cls-1" d="M57.74,474.87a11.36,11.36,0,0,1,3.64,4.73,16.38,16.38,0,0,1,1.28,6.52,16.94,16.94,0,0,1-1.28,6.69,11.62,11.62,0,0,1-3.64,4.79,9.31,9.31,0,0,1-3.53,1.59,22.92,22.92,0,0,1-5.18.49H45.85a22.92,22.92,0,0,1-5.16-.49,9.34,9.34,0,0,1-3.55-1.59,11.52,11.52,0,0,1-3.63-4.79,16.77,16.77,0,0,1-1.28-6.69,16.05,16.05,0,0,1,1.3-6.52,11.55,11.55,0,0,1,3.61-4.73h0a9.91,9.91,0,0,1,3.53-1.58,22.3,22.3,0,0,1,5.14-.5H49a22.3,22.3,0,0,1,5.14.5A10.36,10.36,0,0,1,57.74,474.87Zm-3.1,16.78a4.74,4.74,0,0,0,1.28-2.13,11.43,11.43,0,0,0,.42-3.4,10.56,10.56,0,0,0-.44-3.29,5,5,0,0,0-1.3-2.1q-1.74-1.51-6-1.51H46.24q-4.26,0-6,1.51t-1.74,5.39a11.85,11.85,0,0,0,.4,3.4,4.63,4.63,0,0,0,1.26,2.13,5.23,5.23,0,0,0,2.32,1.16,16.4,16.4,0,0,0,3.72.35h2.4a16.2,16.2,0,0,0,3.68-.35A5.23,5.23,0,0,0,54.64,491.65Z"/><path class="cls-1" d="M98.74,474.45a6.18,6.18,0,0,1,1.49,3.87c0,.25,0,.51,0,.76s0,.53,0,.85v19.52a.36.36,0,0,1-.08.23c0,.07-.1.1-.21.1a14.12,14.12,0,0,1-2.21-.33,4.27,4.27,0,0,1-2.17-1.23,5,5,0,0,1-1.36-2.58,15.68,15.68,0,0,1-.29-2.95V481.44l-9.62,14.23a.34.34,0,0,1-.25.14.19.19,0,0,1-.2-.14l-9.66-14.23v11.25a16.52,16.52,0,0,1-.27,2.95,4.88,4.88,0,0,1-1.34,2.58,4.52,4.52,0,0,1-2.21,1.23,14.12,14.12,0,0,1-2.21.33.26.26,0,0,1-.21-.1.36.36,0,0,1-.08-.23V479.93c0-.32,0-.6,0-.85s0-.51.06-.76a5.91,5.91,0,0,1,1.49-3.87,4.39,4.39,0,0,1,3.43-1.61,4.48,4.48,0,0,1,2.23.59,5,5,0,0,1,1.73,1.68l7.22,10.63,7.23-10.63h0a5.07,5.07,0,0,1,1.71-1.68,4.35,4.35,0,0,1,2.21-.59A4.59,4.59,0,0,1,98.74,474.45Z"/><path class="cls-1" d="M136.4,474.45a6.17,6.17,0,0,1,1.48,3.87c0,.25,0,.51,0,.76s0,.53,0,.85v19.52a.31.31,0,0,1-.08.23c0,.07-.1.1-.2.1a14,14,0,0,1-2.21-.33,4.23,4.23,0,0,1-2.17-1.23,4.92,4.92,0,0,1-1.36-2.58,14.9,14.9,0,0,1-.29-2.95V481.44L122,495.67a.38.38,0,0,1-.25.14.2.2,0,0,1-.21-.14l-9.66-14.23v11.25a16.52,16.52,0,0,1-.27,2.95,4.82,4.82,0,0,1-1.34,2.58,4.47,4.47,0,0,1-2.21,1.23,14,14,0,0,1-2.21.33.23.23,0,0,1-.2-.1.32.32,0,0,1-.09-.23V479.93c0-.32,0-.6,0-.85s0-.51.07-.76a5.9,5.9,0,0,1,1.48-3.87,4.4,4.4,0,0,1,3.43-1.61,4.45,4.45,0,0,1,2.23.59,5,5,0,0,1,1.73,1.68l7.23,10.63L129,475.11h0a4.9,4.9,0,0,1,1.71-1.68,4.33,4.33,0,0,1,2.21-.59A4.6,4.6,0,0,1,136.4,474.45Z"/><path class="cls-1" d="M169.59,472.79a.25.25,0,0,1,.21.1.36.36,0,0,1,.08.23v13.14a16.59,16.59,0,0,1-1.28,6.64,11.23,11.23,0,0,1-3.63,4.7,9.16,9.16,0,0,1-3.28,1.56,19.26,19.26,0,0,1-4.69.57h-.17a21,21,0,0,1-5.16-.47,9.75,9.75,0,0,1-3.55-1.61,11.14,11.14,0,0,1-3.61-4.73,17.45,17.45,0,0,1-1.3-6.66V473.17a.41.41,0,0,1,.08-.24.67.67,0,0,1,.21-.09,13,13,0,0,1,2.21.33,4.52,4.52,0,0,1,2.21,1.23,4.82,4.82,0,0,1,1.34,2.57,16.63,16.63,0,0,1,.27,3v6.33c0,2.43.48,4.14,1.44,5.15a4.84,4.84,0,0,0,1.94,1.28,9.57,9.57,0,0,0,3.1.52,12.3,12.3,0,0,0,3.65-.38,5.28,5.28,0,0,0,2.25-1.23,4.56,4.56,0,0,0,1.26-2.08,11.58,11.58,0,0,0,.39-3.31v-6.33a15.32,15.32,0,0,1,.29-2.93,4.92,4.92,0,0,1,1.37-2.55,4,4,0,0,1,1-.78,5,5,0,0,1,1.15-.47,8.88,8.88,0,0,1,1.16-.24Z"/><path class="cls-1" d="M201.14,472.79a.23.23,0,0,1,.2.1.4.4,0,0,1,.13.28v19.52c0,.31,0,.6,0,.85a6.3,6.3,0,0,0-.05.75,6,6,0,0,1-1.48,3.88,4.4,4.4,0,0,1-3.43,1.61,4.45,4.45,0,0,1-2.23-.59,5,5,0,0,1-1.73-1.68l-10.94-16.12v11.25a16.43,16.43,0,0,1-.27,2.95,4.81,4.81,0,0,1-1.34,2.58,4.63,4.63,0,0,1-2.21,1.25,11.57,11.57,0,0,1-2.21.36.56.56,0,0,1-.21-.1.36.36,0,0,1-.08-.23V479.88c0-.31,0-.59,0-.83s0-.48.06-.73a6,6,0,0,1,1.49-3.92,4.92,4.92,0,0,1,1.59-1.18,4.1,4.1,0,0,1,1.83-.43,4.43,4.43,0,0,1,2.23.59,5.16,5.16,0,0,1,1.74,1.68v.05l10.94,16.07V479.93a16.63,16.63,0,0,1,.27-3,4.75,4.75,0,0,1,1.34-2.57,4.46,4.46,0,0,1,2.19-1.23A16.86,16.86,0,0,1,201.14,472.79Z"/><path class="cls-1" d="M212.49,472.84a.58.58,0,0,1,.25.09.41.41,0,0,1,.08.24v19.47a16.43,16.43,0,0,1-.27,2.95,4.75,4.75,0,0,1-1.34,2.58A4.47,4.47,0,0,1,209,499.4a12.88,12.88,0,0,1-2.21.33.23.23,0,0,1-.2-.1.32.32,0,0,1-.09-.23V479.93a16.63,16.63,0,0,1,.27-3,4.82,4.82,0,0,1,1.34-2.57,5,5,0,0,1,2.19-1.21A12,12,0,0,1,212.49,472.84Z"/><path class="cls-1" d="M245.32,472.93a.46.46,0,0,1,0,.29,16.56,16.56,0,0,1-.29,2.22,4.72,4.72,0,0,1-1.08,2.22,4,4,0,0,1-2.25,1.35,13.28,13.28,0,0,1-2.58.26h-4.75v13.42a16.5,16.5,0,0,1-.26,2.95,4.83,4.83,0,0,1-1.35,2.58,4.49,4.49,0,0,1-2.2,1.23,14.12,14.12,0,0,1-2.21.33c-.11,0-.18,0-.21-.1a.31.31,0,0,1-.08-.23V479.27l-10.08,0a.23.23,0,0,1-.2-.1.32.32,0,0,1-.09-.23q.09-1,.33-2.25a4.71,4.71,0,0,1,1.08-2.19,3.71,3.71,0,0,1,2.19-1.35,13.25,13.25,0,0,1,2.6-.26h21.14A.68.68,0,0,1,245.32,472.93Z"/><path class="cls-1" d="M277.85,474.87a.29.29,0,0,1,.12.24.31.31,0,0,1-.08.23L267,488.06v4.58a14.82,14.82,0,0,1-.29,2.95,4.84,4.84,0,0,1-1.36,2.58,4,4,0,0,1-1,.78,5.53,5.53,0,0,1-1.16.47,8.75,8.75,0,0,1-1.15.24,8.07,8.07,0,0,1-1.06.07c-.11,0-.18,0-.2-.1a.32.32,0,0,1-.09-.23v-11l-11.18-13.05a.32.32,0,0,1-.09-.23.32.32,0,0,1,.09-.24,11.38,11.38,0,0,1,1.61-1.32,3.64,3.64,0,0,1,2.14-.66,3.81,3.81,0,0,1,2.42.87,13.64,13.64,0,0,1,2,1.91l6,7.19,6.07-7.19a13.14,13.14,0,0,1,2-1.91,3.78,3.78,0,0,1,2.41-.87,3.67,3.67,0,0,1,2.15.66A9.89,9.89,0,0,1,277.85,474.87Z"/><path class="cls-1" d="M326.65,472.93a.36.36,0,0,1,0,.29,13.83,13.83,0,0,1-.29,2.22,4.61,4.61,0,0,1-1.07,2.22,4,4,0,0,1-2.25,1.35,13.44,13.44,0,0,1-2.58.26h-4.75v13.42a16.52,16.52,0,0,1-.27,2.95,4.82,4.82,0,0,1-1.34,2.58,4.47,4.47,0,0,1-2.21,1.23,14,14,0,0,1-2.21.33c-.11,0-.18,0-.2-.1a.32.32,0,0,1-.09-.23V479.27l-10.07,0a.26.26,0,0,1-.21-.1.36.36,0,0,1-.08-.23q.09-1,.33-2.25a4.69,4.69,0,0,1,1.07-2.19,3.77,3.77,0,0,1,2.19-1.35,13.33,13.33,0,0,1,2.6-.26H326.4A.58.58,0,0,1,326.65,472.93Z"/><path class="cls-1" d="M356.5,493.35q.09,0,.09.24a16.46,16.46,0,0,1-.29,2.26,5,5,0,0,1-1.08,2.27,3.91,3.91,0,0,1-2.25,1.35,13.28,13.28,0,0,1-2.58.26h-6a23,23,0,0,1-5.16-.5,9.4,9.4,0,0,1-3.55-1.58,11.65,11.65,0,0,1-3.63-4.77,16.9,16.9,0,0,1-1.28-6.71,16.43,16.43,0,0,1,1.28-6.53,11.23,11.23,0,0,1,3.63-4.72h0a9.72,9.72,0,0,1,3.54-1.58,21.67,21.67,0,0,1,5.13-.5h11.9a.25.25,0,0,1,.2.09.36.36,0,0,1,.09.24,15.84,15.84,0,0,1-.29,2.24,5,5,0,0,1-1.08,2.25A4,4,0,0,1,353,479a13.28,13.28,0,0,1-2.58.26H344.9q-4.33,0-6,1.53a4.63,4.63,0,0,0-1.4,2.39H354a.2.2,0,0,1,.2.09.33.33,0,0,1,.08.24,14.3,14.3,0,0,1-.28,2.18,4.68,4.68,0,0,1-1.08,2.18,3.81,3.81,0,0,1-2.17,1.34,12.28,12.28,0,0,1-2.45.25H337.51a4.13,4.13,0,0,0,2.11,2.79,11.1,11.1,0,0,0,5.28.95h11.4A.22.22,0,0,1,356.5,493.35Z"/><path class="cls-1" d="M388.05,493.35c.05,0,.08.11.08.24a15,15,0,0,1-.29,2.26,4.92,4.92,0,0,1-1.07,2.27,4,4,0,0,1-2.25,1.35,13.44,13.44,0,0,1-2.58.26h-6a22.86,22.86,0,0,1-5.16-.5,9.21,9.21,0,0,1-3.54-1.58,11.69,11.69,0,0,1-3.61-4.77,16.9,16.9,0,0,1-1.27-6.71,16.43,16.43,0,0,1,1.27-6.53,11.27,11.27,0,0,1,3.61-4.72h0a9.62,9.62,0,0,1,3.52-1.58,21.76,21.76,0,0,1,5.14-.5h11.89a.29.29,0,0,1,.21.09.41.41,0,0,1,.08.24,14.5,14.5,0,0,1-.29,2.24,4.9,4.9,0,0,1-1.07,2.25,4.09,4.09,0,0,1-2.25,1.35,13.44,13.44,0,0,1-2.58.26h-5.49q-4.33,0-6,1.51c-1.16,1-1.74,2.8-1.74,5.39a11.9,11.9,0,0,0,.4,3.4,4.63,4.63,0,0,0,1.26,2.13,5.06,5.06,0,0,0,2.33,1.15,16.21,16.21,0,0,0,3.78.36h11.39A.24.24,0,0,1,388.05,493.35Z"/><path class="cls-1" d="M418.68,473c.08-.06.15,0,.21.1a.36.36,0,0,1,.08.23v26.23a.41.41,0,0,1-.08.24.29.29,0,0,1-.21.09,12.45,12.45,0,0,1-2.18-.33,4.46,4.46,0,0,1-2.19-1.23,4.94,4.94,0,0,1-1.37-2.57,15.77,15.77,0,0,1-.28-3v-3.16H399.57v3.16a16.63,16.63,0,0,1-.27,3,4.85,4.85,0,0,1-1.36,2.57,4.49,4.49,0,0,1-2.2,1.23,12.65,12.65,0,0,1-2.2.33.29.29,0,0,1-.21-.09c-.05,0-.08-.11-.08-.24V473.31c0-.12,0-.2.08-.23s.13-.16.21-.1a10.27,10.27,0,0,1,1.06.07,8.88,8.88,0,0,1,1.16.24,5.84,5.84,0,0,1,1.17.47,4.25,4.25,0,0,1,1,.79,4.92,4.92,0,0,1,1.36,2.58,16.74,16.74,0,0,1,.27,3v3.23h13.09V480.1a15.87,15.87,0,0,1,.28-3,5,5,0,0,1,1.37-2.58,4.15,4.15,0,0,1,2.16-1.24A13,13,0,0,1,418.68,473Z"/><path class="cls-1" d="M466.83,493.35c.05,0,.08.11.08.24a16.46,16.46,0,0,1-.29,2.26,5,5,0,0,1-1.07,2.27,4,4,0,0,1-2.25,1.35,13.44,13.44,0,0,1-2.58.26h-6a22.86,22.86,0,0,1-5.16-.5,9.14,9.14,0,0,1-3.54-1.58,11.61,11.61,0,0,1-3.61-4.77,16.9,16.9,0,0,1-1.28-6.71,16.43,16.43,0,0,1,1.28-6.53,11.19,11.19,0,0,1,3.61-4.72h0a9.62,9.62,0,0,1,3.52-1.58,21.7,21.7,0,0,1,5.14-.5h11.89a.29.29,0,0,1,.21.09.41.41,0,0,1,.08.24,15.84,15.84,0,0,1-.29,2.24,5,5,0,0,1-1.07,2.25A4.09,4.09,0,0,1,463.3,479a13.44,13.44,0,0,1-2.58.26h-5.5q-4.34,0-6,1.51c-1.16,1-1.74,2.8-1.74,5.39a12.31,12.31,0,0,0,.39,3.4,4.72,4.72,0,0,0,1.26,2.13,5.15,5.15,0,0,0,2.34,1.15,16.18,16.18,0,0,0,3.77.36h11.4A.24.24,0,0,1,466.83,493.35Z"/><path class="cls-1" d="M497.75,493.35c.06,0,.08.11.08.24a13.85,13.85,0,0,1-.29,2.26,4.92,4.92,0,0,1-1.07,2.27,3.91,3.91,0,0,1-2.25,1.35,13.44,13.44,0,0,1-2.58.26h-6a23,23,0,0,1-5.16-.5,9.33,9.33,0,0,1-3.55-1.58,11.65,11.65,0,0,1-3.63-4.77,16.73,16.73,0,0,1-1.28-6.71,16.26,16.26,0,0,1,1.28-6.53,11.23,11.23,0,0,1,3.63-4.72h0a9.74,9.74,0,0,1,3.53-1.58,21.76,21.76,0,0,1,5.14-.5h11.89a.27.27,0,0,1,.21.09.35.35,0,0,1,.08.24,13.37,13.37,0,0,1-.29,2.24,4.9,4.9,0,0,1-1.07,2.25,4,4,0,0,1-2.25,1.35,13.44,13.44,0,0,1-2.58.26h-5.49q-4.33,0-6,1.53a4.63,4.63,0,0,0-1.4,2.39h16.55q.17,0,.21.09a.38.38,0,0,1,.08.24,14.45,14.45,0,0,1-.29,2.18,4.57,4.57,0,0,1-1.07,2.18,3.84,3.84,0,0,1-2.17,1.34,12.35,12.35,0,0,1-2.45.25H478.76a4.15,4.15,0,0,0,2.1,2.79,11.14,11.14,0,0,0,5.29.95h11.39A.23.23,0,0,1,497.75,493.35Z"/><path class="cls-1" d="M529.5,472.79a.26.26,0,0,1,.21.1.43.43,0,0,1,.12.28v19.52a7.35,7.35,0,0,1,0,.85,6.28,6.28,0,0,0,0,.75,6,6,0,0,1-1.49,3.88,4.38,4.38,0,0,1-3.42,1.61,4.43,4.43,0,0,1-2.23-.59,5.16,5.16,0,0,1-1.74-1.68l-10.94-16.12v11.25a16.43,16.43,0,0,1-.27,2.95,4.75,4.75,0,0,1-1.34,2.58,4.59,4.59,0,0,1-2.21,1.25,11.45,11.45,0,0,1-2.21.36.55.55,0,0,1-.2-.1.32.32,0,0,1-.09-.23V479.88c0-.31,0-.59,0-.83s0-.48.07-.73a6,6,0,0,1,1.48-3.92,5.15,5.15,0,0,1,1.59-1.18,4.14,4.14,0,0,1,1.84-.43,4.45,4.45,0,0,1,2.23.59,5.13,5.13,0,0,1,1.73,1.68v.05l10.94,16.07V479.93a16.63,16.63,0,0,1,.27-3,4.82,4.82,0,0,1,1.34-2.57,4.54,4.54,0,0,1,2.19-1.23A17.46,17.46,0,0,1,529.5,472.79Z"/><path class="cls-1" d="M562.45,472.93a.4.4,0,0,1,0,.29,15.07,15.07,0,0,1-.29,2.22,4.61,4.61,0,0,1-1.07,2.22,4.09,4.09,0,0,1-2.25,1.35,13.44,13.44,0,0,1-2.58.26h-4.75v13.42a16.52,16.52,0,0,1-.27,2.95,4.88,4.88,0,0,1-1.34,2.58,4.47,4.47,0,0,1-2.21,1.23,14.12,14.12,0,0,1-2.21.33c-.11,0-.18,0-.21-.1a.36.36,0,0,1-.08-.23V479.27l-10.07,0a.26.26,0,0,1-.21-.1.36.36,0,0,1-.08-.23,18.55,18.55,0,0,1,.33-2.25,4.6,4.6,0,0,1,1.07-2.19,3.77,3.77,0,0,1,2.19-1.35,13.25,13.25,0,0,1,2.6-.26H562.2A.58.58,0,0,1,562.45,472.93Z"/><path class="cls-1" d="M592.3,493.35c.05,0,.08.11.08.24a15,15,0,0,1-.29,2.26,4.92,4.92,0,0,1-1.07,2.27,3.91,3.91,0,0,1-2.25,1.35,13.44,13.44,0,0,1-2.58.26h-6a22.92,22.92,0,0,1-5.16-.5,9.33,9.33,0,0,1-3.55-1.58,11.65,11.65,0,0,1-3.63-4.77,16.73,16.73,0,0,1-1.28-6.71,16.26,16.26,0,0,1,1.28-6.53,11.23,11.23,0,0,1,3.63-4.72h0a9.74,9.74,0,0,1,3.53-1.58,21.76,21.76,0,0,1,5.14-.5h11.89a.27.27,0,0,1,.21.09.41.41,0,0,1,.08.24,14.5,14.5,0,0,1-.29,2.24,4.9,4.9,0,0,1-1.07,2.25,4,4,0,0,1-2.25,1.35,13.44,13.44,0,0,1-2.58.26H580.7q-4.34,0-6,1.53a4.63,4.63,0,0,0-1.4,2.39h16.55q.16,0,.21.09a.38.38,0,0,1,.08.24,14.45,14.45,0,0,1-.29,2.18,4.57,4.57,0,0,1-1.07,2.18,3.84,3.84,0,0,1-2.17,1.34,12.35,12.35,0,0,1-2.45.25H573.31a4.15,4.15,0,0,0,2.1,2.79,11.14,11.14,0,0,0,5.29.95h11.39A.23.23,0,0,1,592.3,493.35Z"/><path class="cls-1" d="M624.09,497.22a.36.36,0,0,1,.09.24.23.23,0,0,1-.13.24,9.89,9.89,0,0,1-1.57,1.32,3.66,3.66,0,0,1-2.14.66h-.05a3.72,3.72,0,0,1-2.39-.85,13,13,0,0,1-2-1.94l-6.24-7.42h-5.2v3.17a16.43,16.43,0,0,1-.27,2.95,4.75,4.75,0,0,1-1.34,2.58,4.47,4.47,0,0,1-2.21,1.23,12.88,12.88,0,0,1-2.21.33.23.23,0,0,1-.2-.1.32.32,0,0,1-.09-.23V474.45a1.66,1.66,0,0,1,.42-1.14,1.27,1.27,0,0,1,1-.47h17.34a6.24,6.24,0,0,1,2.81.66,7.45,7.45,0,0,1,2.31,1.8,8.8,8.8,0,0,1,1.57,2.64,9.06,9.06,0,0,1,.58,3.22,9.19,9.19,0,0,1-.52,3.09,8.58,8.58,0,0,1-1.43,2.55,7.39,7.39,0,0,1-2.14,1.8,6.9,6.9,0,0,1-2.65.83Zm-6.38-14.63a2.07,2.07,0,0,0,.52-1.41,2.14,2.14,0,0,0-.52-1.43,1.53,1.53,0,0,0-1.21-.63h-12v4l12,.05A1.55,1.55,0,0,0,617.71,482.59Z"/><path class="cls-2" d="M257.25,244.69a1.37,1.37,0,1,1-1.41,1.32A1.38,1.38,0,0,1,257.25,244.69Z"/><path class="cls-2" d="M274.06,243.29a1.41,1.41,0,1,1-1.4-1.41A1.37,1.37,0,0,1,274.06,243.29Z"/><path class="cls-2" d="M285.16,217.05a1.35,1.35,0,0,1-1.32,1.32,1.37,1.37,0,0,1-1.41-1.32,1.37,1.37,0,1,1,2.73,0Z"/><path class="cls-2" d="M293.52,245.13,284.89,239V220.4a3.52,3.52,0,0,0,2.47-3.35,3.57,3.57,0,1,0-7.13,0,3.51,3.51,0,0,0,2.46,3.35v19.72L293.52,248v9.69a139.85,139.85,0,0,0-17.61-12.86,4.57,4.57,0,0,0,.36-1.49,3.61,3.61,0,1,0-3.61,3.52,3.71,3.71,0,0,0,1.67-.44c8.27,4.84,16.9,12.15,19.19,14v12.33c-4.14-4.84-14.44-15.41-32.92-25.62a5,5,0,0,0,.26-1.06,3.61,3.61,0,1,0-3.61,3.61,3.65,3.65,0,0,0,2.11-.79c21.75,12.06,32.14,24.74,34.16,27.38v10.21a142.56,142.56,0,0,0-20.34-19.63c-14.43-11.36-37.59-24.82-67.25-25.62v-101c.88-.17,1.67-.26,2.55-.35,45.25-5.72,85,30.11,85,75.71Z"/><path class="cls-2" d="M322.92,218.37a1.37,1.37,0,0,1-1.41-1.32,1.4,1.4,0,0,1,1.41-1.41,1.37,1.37,0,0,1,1.32,1.41A1.35,1.35,0,0,1,322.92,218.37Z"/><path class="cls-2" d="M334,244.61a1.37,1.37,0,0,1,0-2.73,1.37,1.37,0,1,1,0,2.73Z"/><path class="cls-2" d="M349.42,247.42a1.37,1.37,0,1,1,1.41-1.41A1.39,1.39,0,0,1,349.42,247.42Z"/><path class="cls-2" d="M400.83,140.2v101c-29.67.8-52.91,14.26-67.34,25.62a142.56,142.56,0,0,0-20.34,19.63V276.3c1.76-2.38,12.15-15.23,34.16-27.47a3.65,3.65,0,0,0,2.11.79,3.57,3.57,0,1,0,0-7.13A3.53,3.53,0,0,0,345.9,246a4.78,4.78,0,0,0,.17,1.06c-18.48,10.21-28.78,20.78-32.92,25.62V260.45a146.47,146.47,0,0,1,19.19-14.08,3.71,3.71,0,0,0,1.67.44,3.57,3.57,0,1,0-3.52-3.52,3.06,3.06,0,0,0,.36,1.49,142,142,0,0,0-17.7,12.86V248L324,240.12V220.4a3.51,3.51,0,0,0,2.46-3.35,3.57,3.57,0,1,0-4.66,3.35V239l-8.63,6.25V215.56c0-45.6,39.79-81.43,85-75.71C399.07,139.94,400,140,400.83,140.2Z"/><path class="cls-2" d="M303.34,159.73s-20.24-46.51-89.19-32.62a87.31,87.31,0,0,1,61.46,21.79,88.83,88.83,0,0,1,27.73,46.24,88.85,88.85,0,0,1,27.74-46.24,87.36,87.36,0,0,1,61.46-21.79C323.59,113.22,303.34,159.73,303.34,159.73Z"/><circle class="cls-2" cx="303.34" cy="117.92" r="21.32"/><path class="cls-3" d="M411.52,262.43a183.66,183.66,0,0,0-79.17,24c14.94-14.36,41.5-33.51,76.87-33.51h2.54V159.09h.12a12.34,12.34,0,0,1,11.64,12.32V249.6A12.89,12.89,0,0,1,411.52,262.43Z"/><path class="cls-3" d="M195.16,262.43c36,2.62,63,14.54,79.18,24-14.94-14.36-41.5-33.51-76.87-33.51h-2.54V159.09h-.12a12.35,12.35,0,0,0-11.65,12.32V249.6A12.9,12.9,0,0,0,195.16,262.43Z"/><polygon class="cls-3" points="310.29 282.38 296.4 282.38 296.4 200.7 303.34 211.2 310.29 200.7 310.29 282.38"/><polygon class="cls-3" points="310.29 288.38 303.34 295.48 296.4 288.38 296.4 285.61 310.29 285.61 310.29 288.38"/><path class="cls-2" d="M248,25.34c-4.75.14-9.48.07-14.23.07,0,1.91,0,3.82,0,5.74L266,54.29l5.41.07c5.94,0,11.89,0,17.83,0,5.65,0,11.3.06,16.94.48l-31.45,2.06-.39,0-2.69.18c-.08,7,0,14,0,21,0,3.67,0,7.33.08,11,1.52.54,3,1.11,4.58,1.57,3.5.77,7.06,1.15,10.62,1.59l2,.22,1.15.09,3.56.17,1.79.07c1.16,0,2.33.07,3.48.11,1.67,0,3.35.06,5,.06l2.76,0c1.68-.05,3.36-.06,5-.09s3.48-.19,5.21-.31l3.43-.3c1.87-.17,3.74-.34,5.61-.55l.37-.07c1.17-.21,2.33-.43,3.5-.66l1-.21c1.37-.34,2.72-.72,4.06-1.19l2.84-1.27c0-2.35.05-4.71.09-7v-1c-.08-8.61.05-17.22-.08-25.84q3.07,0,6.17,0h13.24c0-1.85.05-3.68.08-5.53l-9.07-6.46c3.86,1.79,7.45,4.09,11.19,6.11.05,7.74.07,15.48,0,23.22-1.92,1.32-4.16,2.83-4.41,5.39-.66,3.48,2.31,6.14,2.92,9.39.87,2.87.15,5.84-.57,8.66,7.1-2.94,10.61-11.07,10-18.41-.36-2.3-2.37-3.69-4.11-5-.05-5.81,0-11.6,0-17.41h9.79c0-1.82,0-3.64,0-5.46L336.45,24.63l-40.07.31-.63,0-4.93,0-36.71.28C252.06,25.28,250,25.3,248,25.34Z"/><path class="cls-4" d="M230.56,356.09v4.2c-4.36-1.8-8.56-3.72-12.69-5.87a143.05,143.05,0,0,1-14.28-8.34c-.05-.06-.11-.06-.17-.12a181.47,181.47,0,0,1-17-12.59l-.06-.06c-.62-.48-1.19-1-1.81-1.56-1.59-1.32-3.12-2.64-4.65-4a80.22,80.22,0,0,1-13.53-1c-5.9-1-12.86-2.7-17.51-5.76-5.33-3.18-16.71-13.31-24.53-23s-13-17.93-9.35-14.75a44.53,44.53,0,0,0,20.11,9.6c6,1.32,10.82,2.28,15.53,5.69,2.66,1.86,5.66,5.22,9.34,8.64-1-1.26-2.15-2.4-3.23-3.9a13.7,13.7,0,0,0,1.48,1.68,50,50,0,0,1-4.93-8.15c-2.27-5-.79-9.6.51-14.7s3-10.91,1.87-18.53c-.4-3.84,3.17,3.18,7.93,12.06,4.59,9,11.22,19.49,13.2,24.16a55.54,55.54,0,0,1,3,14.7c.51,5.15.85,9.71.91,12,1,.84,2,1.62,3.06,2.46h0a177.45,177.45,0,0,0,34.45,21.89C222.23,352.8,226.37,354.54,230.56,356.09Z"/><path class="cls-4" d="M145.64,292.31l-2.69-4c-1.75-2.41-3.87-5.85-6.19-9.56s-4.82-7.69-7.08-11.33-4.45-6.85-6.18-9c-3.54-4.24-8.3-5.88-13.44-8.34s-11.38-5.5-16.79-13c-1.38-1.86-1.3-.57-.3,2.56.53,1.56,1.19,3.61,2.2,5.89s2.27,4.81,3.61,7.48c2.5,5.4,6.22,11,9.34,15.83a86,86,0,0,0,8.65,10.75c4.54,4.34,11.87,7.71,17.87,9.81A93.37,93.37,0,0,0,145.64,292.31Z"/><path class="cls-4" d="M139.78,225.15a46.22,46.22,0,0,1-6.06,17.06c-2.59,4.6-4.6,8.55-3.75,13.69a36.85,36.85,0,0,0,3.39,9.88,86.44,86.44,0,0,0,6.2,11.53,97.77,97.77,0,0,0,6.26,9.34l2.89,3.82s1-4.43,1.85-9.93c1-5.62,1.8-12.28,1-17.34-.32-2.42-1.6-6.37-3-10.91-1.16-4.63-3-9.63-4-14.32-.61-2.31-1.23-4.49-1.81-6.39s-.89-3.6-1.3-4.85C140.62,224.22,140,223.32,139.78,225.15Z"/><path class="cls-4" d="M218.46,354.2a8.78,8.78,0,0,0-3.51-3.65c-2.69-1.46-7.33-4.05-11.16-6.48s-7.89-5.76-11.62-8.15-5.16-2.11-7.7-3.33c-5.15-2.35-12.75-1.1-18.48-1s-12.69.27-21-4.3c-2.1-1.11-1.43.09,1,2.61,1.21,1.25,2.76,2.9,4.74,4.6s4.3,3.53,6.74,5.44c4.79,4,10.72,7.51,15.79,10.69a87,87,0,0,0,12.77,6.12c6.09,1.95,14.19,1.62,20.5.71A65.36,65.36,0,0,0,218.46,354.2Z"/><path class="cls-4" d="M181.7,304.42c2.3,6.55,2.24,12,1.93,17.08s-.45,9.42,2.57,13.07a28.8,28.8,0,0,0,7.43,6,71.12,71.12,0,0,0,10.71,5.79,85,85,0,0,0,9.81,4l4.31,1.44s-1-4.13-2.66-9c-1.58-5.05-3.73-10.85-6.72-14.44-1.35-1.76-4.25-4.22-7.5-7.09-3.09-3.06-7-6-10-9.21-1.57-1.52-3.09-2.92-4.45-4.12s-2.39-2.39-3.31-3.16C182.05,303.21,181.09,302.83,181.7,304.42Z"/><path class="cls-4" d="M122.54,252.45s-.78-1.67-1.73-4.43-2.42-6.46-3.94-10.5c-1.3-4.1-2.86-8.47-4.33-12.43a59.33,59.33,0,0,0-3.89-10c-2.57-4.81-6.41-7.43-11.11-10.82a37.34,37.34,0,0,1-13.29-16.11c-1.77-4.23-1.09,5.2,1.56,16.75a121.6,121.6,0,0,0,5.47,17.38c1.06,2.68,2.1,5.16,3.06,7.26a48.2,48.2,0,0,0,2.9,5,39.24,39.24,0,0,0,6.77,7.27,74.37,74.37,0,0,0,8.5,5.71c2.74,1.6,5.21,2.84,7,3.68S122.54,252.45,122.54,252.45Z"/><path class="cls-4" d="M132.53,185.94c-2.44,7-6.73,11.41-10,15.34s-6.69,7.45-7,12.6a54.57,54.57,0,0,0,1,10.32c.88,4,2.19,8.39,3.41,12.44,1.43,4,3,7.64,4.07,10.3a37.74,37.74,0,0,0,2,4.27l1.21-2.7c.79-1.7,1.86-4.06,2.94-6.7a88.7,88.7,0,0,0,3-8.41,32.44,32.44,0,0,0,1.88-8.31,42.49,42.49,0,0,0-.12-4.71c0-1.92-.08-4.13-.21-6.46-.44-4.66-.42-9.94-.63-14.65C133.92,189.85,133.87,182.51,132.53,185.94Z"/><path class="cls-4" d="M109.42,210.45l-.62-4.67c-.37-2.86-1.09-6.76-1.36-11-1.09-8.5-1.33-18.3-2.79-23.52-1.05-5.2-4.44-8.53-8.16-12.8a36.68,36.68,0,0,1-9-18.43c-.71-4.49-2.2,4.86-2.63,16.68.22,5.93.11,12.44,1.11,18.12s1.69,10.53,2.84,13.19a44.63,44.63,0,0,0,11.9,15.71A81.71,81.71,0,0,0,109.42,210.45Z"/><path class="cls-4" d="M135.12,147.67c-4,6.29-9.28,9.75-13.54,12.89s-8.09,5.92-9.89,10.88c-1.4,5-2,14.68-1,23.06a80.31,80.31,0,0,0,1.53,10.83l.88,4.56s3-3.68,6.22-8.39c3-4.73,7.4-10.47,8.69-15.32.58-2.29,1.67-6.32,2.4-10.9s2.18-9.71,2.93-14.33C135.65,151.78,137.23,144.6,135.12,147.67Z"/><path class="cls-4" d="M106.76,165.46s.18-1.81.48-4.68.92-6.77,1.54-11l.89-6.5c.41-2.17.81-4.32,1.2-6.39.78-4.11,1-7.93,1.23-10.55.25-5.29-2.22-9.25-4.79-14.17a35.93,35.93,0,0,1-4.14-19.69c.31-4.52-3.24,4.28-6.72,15.58-1.31,5.8-2.81,12.14-3.51,17.81a92.9,92.9,0,0,0-.59,13.42c.73,6,4.24,12.82,7.51,17.8A77.14,77.14,0,0,0,106.76,165.46Z"/><path class="cls-4" d="M118.9,128c-1.62,2.2-2.69,5.74-4,9.67-.62,2-1.24,4.05-1.81,6.16-.37,2.15-.75,4.3-1.11,6.37a79.85,79.85,0,0,0-1.33,10.86c-.12,2.83-.2,4.62-.2,4.62s3.75-3,8-6.87c4.62-3.91,9.76-8.65,12.42-13.06a71.83,71.83,0,0,0,5.1-10.12c2-4.29,4.6-9,6.53-13.4,4.76-8.47,7.93-15.28,5.18-12.65-5.51,5.36-11.43,7.7-16.48,9.86S121.87,123.53,118.9,128Z"/><path class="cls-4" d="M115.63,121l1.52-4.19c.79-2.61,2.49-6,4-9.77,2.83-7.61,7.21-15.92,8.21-20.89,1.16-4.9,0-8.82-1.4-13.73s-2.62-10.72-.12-18.63c.59-2-.36-1.17-2.18,1.34-.91,1.25-2,2.93-3.28,4.88s-2.34,4.37-3.59,6.84c-5.34,9.72-9.49,22.45-10.35,27.54-.58,5.64,1,12.44,2.83,17.61A67.08,67.08,0,0,0,115.63,121Z"/><path class="cls-4" d="M166,76.48a54.69,54.69,0,0,1-17.26,6.64c-5,1.21-9.76,2.11-13.25,5.79a72.09,72.09,0,0,0-11.27,19.14,84.28,84.28,0,0,0-3.78,9.67c-.76,2.58-1.25,4.2-1.25,4.2s4.1-2,8.94-4.74c5.15-2.7,11.06-6.08,14.42-9.73,3.55-3.32,9.93-12.66,16.06-19.89l3.94-5.18c1.29-1.5,2.37-2.82,3.15-3.86C167.21,76.44,167.56,75.47,166,76.48Z"/><path class="cls-4" d="M133.79,81.62l8.11-12.37a189.09,189.09,0,0,0,12-18.53c4.27-8.84-3-16.51,3.91-31.09,1.73-3.63-4.19,2.58-10.78,11-3.12,4.39-6.42,9.29-9.18,13.67a64.35,64.35,0,0,0-5.38,10.92A30.94,30.94,0,0,0,131,63.7a48.45,48.45,0,0,0,.68,8.69A66.87,66.87,0,0,0,133.79,81.62Z"/><path class="cls-4" d="M159.31,54.39c-4.35,2.78-9.85,10.09-14.65,16.43-2.31,3.21-4,6.41-5.45,8.66L137,83.21s4.39-1.12,9.68-2.9c2.67-.88,5.43-2,8.24-3.12a37.32,37.32,0,0,0,7.56-3.85c2-1.34,4.79-4.15,8.3-7.21s7.42-6.56,10.8-9.81c7.18-6.22,12.63-11.28,9.2-9.73C176.9,52.9,167.6,48.56,159.31,54.39Z"/><path class="cls-4" d="M158.63,50.19a31.66,31.66,0,0,0,10.22-2.39,44.83,44.83,0,0,0,18.42-13.1c3-3,8.34-10.65,13.65-18C206.42,9.58,211.48,2.44,212.35,0c-2.71.41-11.13,4.05-19.95,8.35a167.58,167.58,0,0,0-20.91,12.83C163.66,28.25,160,35,158.79,40.37A22.21,22.21,0,0,0,158.63,50.19Z"/><path class="cls-4" d="M482.38,298c-7.76,9.66-19.21,19.79-24.47,23-4.71,3.06-11.67,4.74-17.51,5.76a80.63,80.63,0,0,1-13.54,1c-1.53,1.38-3.12,2.76-4.7,4.08-.57.54-1.13,1-1.7,1.5h-.11A170.5,170.5,0,0,1,403.12,346a144.32,144.32,0,0,1-14.33,8.4c-4.13,2.15-8.33,4.07-12.63,5.87v-4.2c4.19-1.55,8.27-3.29,12.29-5.21A176.74,176.74,0,0,0,423,328.93c1-.78,2-1.56,3-2.4.06-2.34.45-6.9.91-12a55.53,55.53,0,0,1,3.06-14.7c2-4.67,8.61-15.17,13.2-24.16s8.32-15.9,7.93-12.06c-1.14,7.62.62,13.5,1.87,18.53s2.72,9.72.45,14.7a49.05,49.05,0,0,1-4.87,8.15,19.64,19.64,0,0,0,1.47-1.68c-1.08,1.5-2.21,2.64-3.23,3.9,3.68-3.42,6.69-6.78,9.29-8.64,4.76-3.41,9.58-4.37,15.58-5.69a44.76,44.76,0,0,0,20.11-9.6C495.41,280.05,490.31,288.39,482.38,298Z"/><path class="cls-4" d="M461.05,292.31l2.69-4c1.75-2.41,3.86-5.85,6.19-9.56s4.81-7.69,7.08-11.33,4.45-6.85,6.18-9c3.53-4.24,8.3-5.88,13.44-8.34s11.38-5.5,16.79-13c1.38-1.86,1.3-.57.29,2.56a62.57,62.57,0,0,1-2.19,5.89c-1,2.26-2.27,4.81-3.61,7.48-2.51,5.4-6.22,11-9.34,15.83a86,86,0,0,1-8.65,10.75c-4.55,4.34-11.88,7.71-17.87,9.81A93.37,93.37,0,0,1,461.05,292.31Z"/><path class="cls-4" d="M466.9,225.15A46.4,46.4,0,0,0,473,242.21c2.59,4.6,4.6,8.55,3.75,13.69a36.85,36.85,0,0,1-3.39,9.88,86.44,86.44,0,0,1-6.2,11.53,97.77,97.77,0,0,1-6.26,9.34L458,290.47s-1-4.43-1.85-9.93c-1-5.62-1.8-12.28-1-17.34.31-2.42,1.6-6.37,3-10.91,1.16-4.63,3-9.63,4.05-14.32.61-2.31,1.22-4.49,1.81-6.39s.89-3.6,1.29-4.85C466.07,224.22,466.68,223.32,466.9,225.15Z"/><path class="cls-4" d="M388.23,354.2a8.78,8.78,0,0,1,3.51-3.65c2.69-1.46,7.33-4.05,11.15-6.48s7.9-5.76,11.63-8.15,5.16-2.11,7.7-3.33c5.15-2.35,12.75-1.1,18.48-1s12.69.27,21-4.3c2.1-1.11,1.43.09-.95,2.61-1.21,1.25-2.76,2.9-4.74,4.6s-4.3,3.53-6.75,5.44c-4.78,4-10.71,7.51-15.78,10.69a87,87,0,0,1-12.78,6.12c-6.08,1.95-14.18,1.62-20.49.71A65.36,65.36,0,0,1,388.23,354.2Z"/><path class="cls-4" d="M425,304.42c-2.3,6.55-2.25,12-1.93,17.08s.45,9.42-2.58,13.07a28.55,28.55,0,0,1-7.42,6,71.12,71.12,0,0,1-10.71,5.79,85,85,0,0,1-9.81,4l-4.31,1.44s1-4.13,2.66-9c1.58-5.05,3.73-10.85,6.72-14.44,1.34-1.76,4.25-4.22,7.5-7.09,3.08-3.06,7-6,10-9.21,1.57-1.52,3.08-2.92,4.45-4.12s2.39-2.39,3.31-3.16C424.64,303.21,425.59,302.83,425,304.42Z"/><path class="cls-4" d="M484.15,252.45s.78-1.67,1.72-4.43l3.95-10.5c1.3-4.1,2.86-8.47,4.33-12.43a60.28,60.28,0,0,1,3.88-10c2.58-4.81,6.41-7.43,11.11-10.82a37.21,37.21,0,0,0,13.29-16.11c1.78-4.23,1.1,5.2-1.55,16.75a121.6,121.6,0,0,1-5.47,17.38c-1.07,2.68-2.11,5.16-3.06,7.26a48.2,48.2,0,0,1-2.9,5,39.3,39.3,0,0,1-6.78,7.27,72.65,72.65,0,0,1-8.5,5.71c-2.73,1.6-5.2,2.84-7,3.68S484.15,252.45,484.15,252.45Z"/><path class="cls-4" d="M474.15,185.94c2.45,7,6.74,11.41,10,15.34s6.7,7.45,7,12.6a54.57,54.57,0,0,1-.95,10.32c-.89,4-2.19,8.39-3.42,12.44-1.42,4-3,7.64-4.06,10.3a38.69,38.69,0,0,1-2,4.27l-1.2-2.7c-.79-1.7-1.86-4.06-2.95-6.7s-2.16-5.55-3-8.41a32.44,32.44,0,0,1-1.88-8.31,40.16,40.16,0,0,1,.12-4.71c0-1.92.08-4.13.21-6.46.44-4.66.42-9.94.63-14.65C472.77,189.85,472.82,182.51,474.15,185.94Z"/><path class="cls-4" d="M497.27,210.45s.24-1.81.61-4.67,1.1-6.76,1.37-11c1.08-8.5,1.33-18.3,2.78-23.52,1.06-5.2,4.44-8.53,8.16-12.8a36.51,36.51,0,0,0,9-18.43c.72-4.49,2.21,4.86,2.64,16.68-.22,5.93-.11,12.44-1.11,18.12S519,185.34,517.85,188A44.63,44.63,0,0,1,506,203.71,81.71,81.71,0,0,1,497.27,210.45Z"/><path class="cls-4" d="M471.57,147.67c4,6.29,9.28,9.75,13.53,12.89s8.1,5.92,9.9,10.88c1.4,5,2,14.68,1.05,23.06a80.31,80.31,0,0,1-1.53,10.83l-.88,4.56s-3-3.68-6.22-8.39c-3.05-4.73-7.4-10.47-8.69-15.32-.59-2.29-1.67-6.32-2.4-10.9s-2.19-9.71-2.93-14.33C471,151.78,469.45,144.6,471.57,147.67Z"/><path class="cls-4" d="M499.93,165.46s-.19-1.81-.48-4.68-.92-6.77-1.54-11l-.89-6.5c-.41-2.17-.81-4.32-1.21-6.39-.77-4.11-1-7.93-1.22-10.55-.26-5.29,2.22-9.25,4.79-14.17a35.93,35.93,0,0,0,4.14-19.69c-.31-4.52,3.24,4.28,6.72,15.58,1.3,5.8,2.81,12.14,3.51,17.81a92.9,92.9,0,0,1,.59,13.42c-.73,6-4.24,12.82-7.51,17.8A77.14,77.14,0,0,1,499.93,165.46Z"/><path class="cls-4" d="M487.79,128c1.62,2.2,2.69,5.74,4,9.67.63,2,1.25,4.05,1.81,6.16.38,2.15.76,4.3,1.12,6.37a79.85,79.85,0,0,1,1.33,10.86c.12,2.83.2,4.62.2,4.62s-3.75-3-8-6.87c-4.62-3.91-9.77-8.65-12.42-13.06a71.83,71.83,0,0,1-5.1-10.12c-2-4.29-4.6-9-6.53-13.4-4.76-8.47-7.93-15.28-5.18-12.65,5.51,5.36,11.43,7.7,16.48,9.86S484.82,123.53,487.79,128Z"/><path class="cls-4" d="M491.06,121l-1.52-4.19c-.8-2.61-2.49-6-4-9.77-2.83-7.61-7.21-15.92-8.21-20.89-1.16-4.9,0-8.82,1.4-13.73s2.62-10.72.12-18.63c-.59-2,.36-1.17,2.18,1.34.9,1.25,2,2.93,3.27,4.88s2.35,4.37,3.6,6.84c5.34,9.72,9.49,22.45,10.35,27.54.57,5.64-1,12.44-2.84,17.61A66.4,66.4,0,0,1,491.06,121Z"/><path class="cls-4" d="M440.73,76.48A54.69,54.69,0,0,0,458,83.12c5,1.21,9.75,2.11,13.25,5.79a72.36,72.36,0,0,1,11.27,19.14,84.28,84.28,0,0,1,3.78,9.67c.76,2.58,1.25,4.2,1.25,4.2s-4.1-2-8.94-4.74c-5.15-2.7-11.06-6.08-14.42-9.73-3.55-3.32-9.93-12.66-16.06-19.89l-3.94-5.18c-1.29-1.5-2.37-2.82-3.15-3.86C439.48,76.44,439.12,75.47,440.73,76.48Z"/><path class="cls-4" d="M472.9,81.62l-8.11-12.37a187.24,187.24,0,0,1-12-18.53c-4.28-8.84,3-16.51-3.91-31.09-1.74-3.63,4.19,2.58,10.78,11,3.12,4.39,6.42,9.29,9.17,13.67a64.57,64.57,0,0,1,5.39,10.92,31.32,31.32,0,0,1,1.47,8.44,48.45,48.45,0,0,1-.68,8.69A66.87,66.87,0,0,1,472.9,81.62Z"/><path class="cls-4" d="M447.38,54.39c4.35,2.78,9.85,10.09,14.65,16.43,2.31,3.21,4.05,6.41,5.45,8.66l2.18,3.73s-4.39-1.12-9.68-2.9c-2.67-.88-5.43-2-8.24-3.12a37.68,37.68,0,0,1-7.57-3.85c-2-1.34-4.79-4.15-8.29-7.21s-7.42-6.56-10.8-9.81c-7.18-6.22-12.64-11.28-9.2-9.73C429.78,52.9,439.09,48.56,447.38,54.39Z"/><path class="cls-4" d="M448.06,50.19a31.66,31.66,0,0,1-10.22-2.39,44.77,44.77,0,0,1-18.42-13.1c-3-3-8.35-10.65-13.65-18C400.27,9.58,395.21,2.44,394.34,0c2.7.41,11.13,4.05,20,8.35A167.58,167.58,0,0,1,435.2,21.18C443,28.25,446.72,35,447.9,40.37A22.37,22.37,0,0,1,448.06,50.19Z"/><path class="cls-3" d="M252.4,332.67a20.82,20.82,0,0,0,2.18,1.56,6.1,6.1,0,0,0,3,1,3.07,3.07,0,0,0,1.89-.68q-1.61,5.72-5.14,5.71a5.18,5.18,0,0,1-1.75-.37,5.18,5.18,0,0,0-1.74-.37,2.1,2.1,0,0,0-1.59.7,3.55,3.55,0,0,0-.88,1.67,8.29,8.29,0,0,1,2-.67c.58-.1,1.09-.17,1.52-.23a5.52,5.52,0,0,1,5.15,2.66,11.41,11.41,0,0,1,1.31,5.93,12.09,12.09,0,0,1-2.39,7.09,10.52,10.52,0,0,1-9.07,4.6,13.1,13.1,0,0,1-7.72-2.44,12.32,12.32,0,0,1-4.74-6.59,19.18,19.18,0,0,0,4.63-1.11,9.21,9.21,0,0,0,3.12-2.58,5.72,5.72,0,0,0-3.27-1,10.4,10.4,0,0,0-2.49.37c-1,.25-1.73.42-2.21.51v-10.5c.86-.69,1.54-1.26,2-1.7a13.75,13.75,0,0,0,3-3.49,11.94,11.94,0,0,0,2.24,1.49,7,7,0,0,0,3.13.88,3.37,3.37,0,0,0,1.82-.5q-1.6,5.68-5.3,5.69a5.85,5.85,0,0,1-1.81-.38,6,6,0,0,0-1.68-.37,2.1,2.1,0,0,0-1.59.7,3.58,3.58,0,0,0-.87,1.67,12,12,0,0,1,2.5-.76c.56-.08,1-.14,1.28-.2a6.11,6.11,0,0,1,3.84,1.12,4.85,4.85,0,0,1,1.81,4.06,5.17,5.17,0,0,1-.65,2.18,23.58,23.58,0,0,1-2.26,3.38,7.93,7.93,0,0,0,3.78,2.73,11.9,11.9,0,0,0,3.54.44,8.18,8.18,0,0,0,4.36-1.48c1.54-1,2.32-2,2.32-3.09a2.32,2.32,0,0,0-1.13-2.11,6,6,0,0,0-2.56-.86c-.84,0-1.71.12-2.63.22a8.29,8.29,0,0,0-2.38.59V338c1-.73,1.69-1.32,2.17-1.76A15,15,0,0,0,252.4,332.67Zm-5.84,15.63a4.29,4.29,0,0,0,2.88,1.69l1.51.15a5.53,5.53,0,0,0,2.42-.59,4.75,4.75,0,0,1-4.92,3.78,5.66,5.66,0,0,1-4.77-2.16Z"/><path class="cls-3" d="M268.31,353.41a4.1,4.1,0,1,1-2.91,1.2A3.93,3.93,0,0,1,268.31,353.41Z"/><path class="cls-3" d="M296.25,332.67a21.93,21.93,0,0,0,2.18,1.56,6.1,6.1,0,0,0,3,1,3,3,0,0,0,1.89-.68q-1.61,5.72-5.14,5.71a5.23,5.23,0,0,1-1.75-.37,5.18,5.18,0,0,0-1.74-.37,2.06,2.06,0,0,0-1.58.7,3.38,3.38,0,0,0-.88,1.67,8.1,8.1,0,0,1,2-.67c.58-.1,1.09-.17,1.53-.23a5.52,5.52,0,0,1,5.14,2.66,11.4,11.4,0,0,1,1.32,5.93,12.11,12.11,0,0,1-2.4,7.09,10.51,10.51,0,0,1-9.07,4.6,13,13,0,0,1-7.71-2.44,12.28,12.28,0,0,1-4.75-6.59A19.18,19.18,0,0,0,283,351.1a9.21,9.21,0,0,0,3.12-2.58,5.69,5.69,0,0,0-3.27-1,10.4,10.4,0,0,0-2.49.37c-1,.25-1.73.42-2.21.51v-10.5c.86-.69,1.54-1.26,2-1.7a13.75,13.75,0,0,0,3.05-3.49,11.69,11.69,0,0,0,2.25,1.49,6.94,6.94,0,0,0,3.12.88,3.37,3.37,0,0,0,1.82-.5q-1.61,5.68-5.3,5.69a5.85,5.85,0,0,1-1.81-.38,6,6,0,0,0-1.68-.37,2.1,2.1,0,0,0-1.59.7,3.58,3.58,0,0,0-.87,1.67,12.15,12.15,0,0,1,2.5-.76c.56-.08,1-.14,1.28-.2a6.09,6.09,0,0,1,3.84,1.12,4.85,4.85,0,0,1,1.81,4.06,5.17,5.17,0,0,1-.65,2.18,23.36,23.36,0,0,1-2.25,3.38,7.91,7.91,0,0,0,3.77,2.73,11.9,11.9,0,0,0,3.54.44,8.18,8.18,0,0,0,4.36-1.48c1.55-1,2.32-2,2.32-3.09a2.32,2.32,0,0,0-1.13-2.11,6,6,0,0,0-2.56-.86c-.83,0-1.71.12-2.63.22a8.29,8.29,0,0,0-2.38.59V338c1-.73,1.69-1.32,2.18-1.76A15.18,15.18,0,0,0,296.25,332.67Z"/><path class="cls-3" d="M312.16,353.41a4.1,4.1,0,1,1-2.91,1.2A3.93,3.93,0,0,1,312.16,353.41Z"/><path class="cls-3" d="M329.36,341.46a4.41,4.41,0,0,1,1.81-.51,20.89,20.89,0,0,1,2.54-.15,13.52,13.52,0,0,1,2.44.14,12.06,12.06,0,0,1,5.31,2.62q2.58,2.1,2.58,3.79c-.38.79-.7,1.41-1,1.85-.83,1.62-1.37,2.71-1.62,3.25a10.16,10.16,0,0,0,3.24,1.34,17.18,17.18,0,0,0,3.7.37,7,7,0,0,0,4.28-1.26,4,4,0,0,0,1.7-3.33,1.9,1.9,0,0,0-1.08-1.76,6.92,6.92,0,0,0-3.21-.59,13,13,0,0,0-4.57,1V337.93c.93-.75,1.63-1.34,2.13-1.78a15.55,15.55,0,0,0,3.17-3.48,13.38,13.38,0,0,0,2.3,1.48,7.33,7.33,0,0,0,3.17.88,3.37,3.37,0,0,0,1.84-.51q-1.62,5.69-5.38,5.69a6.06,6.06,0,0,1-1.86-.37,5.72,5.72,0,0,0-1.68-.38,2.16,2.16,0,0,0-1.63.71,3.4,3.4,0,0,0-.89,1.67,8,8,0,0,1,2.52-.68,5.61,5.61,0,0,0,.95-.14,6.36,6.36,0,0,1,5.31,2.35,8.81,8.81,0,0,1,1.63,5.61,12.29,12.29,0,0,1-2.88,8,11.42,11.42,0,0,1-9.29,4.22,14,14,0,0,1-4.58-.92,8.6,8.6,0,0,1-3.55-2c.64-1.53,1.24-2.85,1.78-4,.84-1.73,1.27-2.64,1.32-2.73a8.17,8.17,0,0,0-1.47-2.37q-2.44-2.36-7-2.35c-2.57,0-4.43.54-5.61,1.63a5.15,5.15,0,0,0-1.49,4,3.33,3.33,0,0,0,1.41,2.51,4.51,4.51,0,0,0,3,1.18,6.15,6.15,0,0,0,3.61-.74,1.34,1.34,0,0,0,.59-1.1c0-.65-.29-1-.73-1a10,10,0,0,0-2.06,1.12,3.18,3.18,0,0,1-1.41.51q-3,0-3-3.26a3.28,3.28,0,0,1,1.14-2.24,4.06,4.06,0,0,1,3-1.14,3.89,3.89,0,0,1,3.47,1.8,7.45,7.45,0,0,1,1.19,4.18,7.31,7.31,0,0,1-1.85,4.79,5.65,5.65,0,0,1-4.5,2.22q-1.85,0-3.85-2.51a9.9,9.9,0,0,1-2.28-6.28,14,14,0,0,1,1.25-6.13,10,10,0,0,1,2.66-3.38,16.64,16.64,0,0,0-1.56-2.29,5.61,5.61,0,0,0-1.91-1.25c1.52-1.09,2.68-1.93,3.47-2.53q3.76-2.88,4.5-4.2a13.3,13.3,0,0,0,2.29,1.48,7.44,7.44,0,0,0,3.19.88,3.52,3.52,0,0,0,1.91-.51,10.59,10.59,0,0,1-2.07,4.32,4.28,4.28,0,0,1-3.32,1.37,14.08,14.08,0,0,1-2.84-.41,15.38,15.38,0,0,0-2.41-.4l-.37.13c0,.2.42.58,1.25,1.12Z"/><path class="cls-3" d="M367,353.41a4.1,4.1,0,1,1-2.91,1.2A3.93,3.93,0,0,1,367,353.41Z"/><path class="cls-1" d="M0,418.45c0-1,.9-2.06,2.71-3.32s3-1.88,3.54-1.88a8.1,8.1,0,0,1,3,1.12,13.72,13.72,0,0,0,4.87,1.44q-2.05,4.95-3.83,4.95a.06.06,0,0,1,0,0,6.77,6.77,0,0,1-3.07-.66,4,4,0,0,0-1.75-.41,4.22,4.22,0,0,0-1.06.13c-1,.25-1.86,1.19-2.62,2.82a19.12,19.12,0,0,1,4.18-.52,9.21,9.21,0,0,1,3.64.66q2.9,1.26,2.9,5.17,0,2.79-3.77,5.24c.24.63,1.08,1.16,2.52,1.6a20.45,20.45,0,0,0,5.77.66,14.15,14.15,0,0,0,6.16-1.13,3.88,3.88,0,0,0,2.31-3.77c0-.69-.77-1.33-2.3-1.94a6.18,6.18,0,0,0-2.12-.32,20.13,20.13,0,0,0-5.37.95V418.45c0-1,.81-2.06,2.43-3.32s2.65-1.88,3.1-1.88a9.17,9.17,0,0,1,3,1.28,8.7,8.7,0,0,0,4,1.28c-1,3.43-2,5.14-3.07,5.14l-.06,0a6.35,6.35,0,0,1-2.88-.66,3.8,3.8,0,0,0-1.71-.41,3.76,3.76,0,0,0-1,.13c-.93.25-1.58,1.13-2,2.63a12.34,12.34,0,0,1,3.63-.62,6.83,6.83,0,0,1,4.13,1.28c2,1.45,2.95,3.73,2.95,6.86a10.42,10.42,0,0,1-3.76,7.87q-3.77,3.45-10.17,3.44-7,0-10.45-2.59A9.17,9.17,0,0,1,0,432.08a23.65,23.65,0,0,0,7-.8c1.63-.53,2.45-1.23,2.45-2.08s-.81-1.09-2.41-1.09c-.24,0-.5,0-.78,0A25.9,25.9,0,0,0,0,429.26Zm13.16,9.26a9.78,9.78,0,0,0,4.63,2.66,26.71,26.71,0,0,0,4.75.37h.26a5.84,5.84,0,0,1-4.12,3,7.52,7.52,0,0,1-1.47.13,20,20,0,0,1-6.48-1.41A6.76,6.76,0,0,0,13.16,427.71Z"/><path class="cls-1" d="M36,422.27a14.81,14.81,0,0,1,3.6-.49,8.46,8.46,0,0,1,3.82.83q2.89,1.44,2.9,5.36,0,2.79-3.76,5.24c.23.63,1.07,1.16,2.52,1.6a20.33,20.33,0,0,0,5.76.66,11.34,11.34,0,0,0,6.57-1.86c1.81-1.23,3.38-3.38,4.73-6.44q0,7.43-3.77,10.88T48.2,441.49q-7,0-10.45-2.59a9.17,9.17,0,0,1-3.86-6.82,23.61,23.61,0,0,0,7-.8c1.63-.53,2.45-1.23,2.45-2.08s-1.06-1.29-3.18-1.36h-.38a13,13,0,0,0-5.86,1.42v-9.8a12,12,0,0,1,4.43-4.36,11.36,11.36,0,0,1,5.91-1.85q2.87,0,6.78,2.84t5.27,2.83q1.17,0,1.17-1.53c0-1-1-1.92-2.92-2.77-1.48-.64-2.22-1.4-2.22-2.29a2.1,2.1,0,0,1,.24-.91,3.37,3.37,0,0,1,3.3-1.92A6.92,6.92,0,0,1,60.16,411a5,5,0,0,1,2,4.24c0,1.82-1,3.6-3,5.36a9,9,0,0,1-5.94,2.64A12.44,12.44,0,0,1,47,421.46a11.61,11.61,0,0,0-5.66-1.79A6.46,6.46,0,0,0,36,422.27Z"/><path class="cls-1" d="M64,452.79a9.85,9.85,0,0,1-5.57,1.88h-.06a14.28,14.28,0,0,1-6.87-1.41c-1.18-.65-1.77-1.28-1.77-1.9a1.19,1.19,0,0,1,.36-.81A9,9,0,0,0,51.58,449a5.48,5.48,0,0,0,.84-1.79.5.5,0,0,0,0-.12q0-.92-5.16-.92h-.17a13.57,13.57,0,0,0-5.35.79c-1.16.54-1.75,1.17-1.75,1.89a1.27,1.27,0,0,0,1.45,1.41c.91,0,1.36-.24,1.36-.68,0-.6-.46-.9-1.39-.9A2.71,2.71,0,0,1,43.5,448a2.65,2.65,0,0,1,2.12.87,3.63,3.63,0,0,1,.76,2.52,3.41,3.41,0,0,1-.84,2.4,3.19,3.19,0,0,1-2.48.91,5.38,5.38,0,0,1-3.67-1.56,5.47,5.47,0,0,1-1.73-4.29,5.17,5.17,0,0,1,2.79-4.8,13.21,13.21,0,0,1,6.72-1.58,16,16,0,0,1,6.29.94l2.09.94A8.07,8.07,0,0,1,53.66,450c0,.62,1.57.94,4.71.94s4.52-.32,4.52-.94S62.3,449,61.1,449a3.44,3.44,0,0,0-2.35.56l.06-3.56a6.72,6.72,0,0,1,1.54-2.28l1.22-1.31a8.34,8.34,0,0,0,3.32,1.2,1.25,1.25,0,0,0,.45-.07c-.25,1.63-.75,2.44-1.51,2.44a3.48,3.48,0,0,1-1.26-.23,2.71,2.71,0,0,0-1-.24c-.31,0-.64.23-1,.68h.08a7.49,7.49,0,0,1,2.92.64,2.14,2.14,0,0,1,1.56,2q0,2.07,5,2.07,5.17,0,5.18-2.83v-18.5c-.08-.33-.47-.65-1.17-.95a5,5,0,0,0-1.86-.32,14,14,0,0,0-4.5.95V418.45c0-1,.65-2.06,1.95-3.32s2.19-1.88,2.64-1.88a8,8,0,0,1,2.82,1.28,7.74,7.74,0,0,0,3.88,1.28c-1,3.43-2,5.14-3.1,5.14l-.06,0a5.23,5.23,0,0,1-2.69-.66,2.78,2.78,0,0,0-1.38-.41,1.7,1.7,0,0,0-.67.13c-.62.25-1.11,1.13-1.49,2.63a6.07,6.07,0,0,1,2.46-.52,6.88,6.88,0,0,1,2.47.47,6,6,0,0,1,3.52,2.88v21.65q0,7.53-8,7.53C67.32,454.67,65.28,454.05,64,452.79Z"/><path class="cls-1" d="M83.79,418.45c0-1,.91-2.06,2.71-3.32s3-1.88,3.54-1.88a8,8,0,0,1,3,1.12,13.72,13.72,0,0,0,4.87,1.44q-2.05,4.95-3.83,4.95a.06.06,0,0,1,0,0,6.77,6.77,0,0,1-3.07-.66,4,4,0,0,0-1.75-.41,4.27,4.27,0,0,0-1.06.13c-1,.25-1.86,1.19-2.62,2.82a19.13,19.13,0,0,1,4.19-.52,9.19,9.19,0,0,1,3.63.66q2.9,1.26,2.9,5.17,0,2.79-3.77,5.24c.24.63,1.08,1.16,2.53,1.6a20.33,20.33,0,0,0,5.76.66,14.23,14.23,0,0,0,6.17-1.13,3.89,3.89,0,0,0,2.3-3.77c0-.69-.76-1.33-2.3-1.94a6.18,6.18,0,0,0-2.12-.32,20.13,20.13,0,0,0-5.37.95V418.45c0-1,.81-2.06,2.43-3.32s2.65-1.88,3.11-1.88a9.24,9.24,0,0,1,3,1.28,8.74,8.74,0,0,0,4,1.28c-1,3.43-2,5.14-3.07,5.14l-.06,0a6.35,6.35,0,0,1-2.88-.66,3.82,3.82,0,0,0-2.71-.28c-.93.25-1.58,1.13-2,2.63A12.35,12.35,0,0,1,105,422a6.82,6.82,0,0,1,4.12,1.28c2,1.45,3,3.73,3,6.86a10.44,10.44,0,0,1-3.77,7.87q-3.76,3.45-10.17,3.44-7,0-10.45-2.59a9.17,9.17,0,0,1-3.86-6.82,23.65,23.65,0,0,0,7-.8c1.63-.53,2.45-1.23,2.45-2.08s-.81-1.09-2.41-1.09c-.24,0-.5,0-.78,0a26,26,0,0,0-6.23,1.13ZM97,427.71a9.75,9.75,0,0,0,4.64,2.66,26.59,26.59,0,0,0,4.74.37h.26a5.84,5.84,0,0,1-4.12,3,7.52,7.52,0,0,1-1.47.13,20.05,20.05,0,0,1-6.48-1.41A6.76,6.76,0,0,0,97,427.71Z"/><path class="cls-1" d="M122.86,420.09a26.16,26.16,0,0,0-3,2.18,8.35,8.35,0,0,1,2-.26,5.83,5.83,0,0,1,3,.79q2.13,1.26,2.13,5.17,0,2.23-2.52,4.18c-1.74,1.36-2.6,2.3-2.6,2.83a.36.36,0,0,0,.15.3.76.76,0,0,0,.51.21c.32,0,.65-.28,1-.85a2,2,0,0,1,1.73-1.24c1.79,0,2.69,1,2.69,3,0,3.39-1.72,5.08-5.18,5.08s-5.18-1.75-5.18-5.27a6.44,6.44,0,0,1,1-3.33c.66-1.08,2.21-2.08,4.67-3a2.17,2.17,0,0,0-2.37-2.1,4.67,4.67,0,0,0-3.28,1.09v-8.4a14.93,14.93,0,0,1,4.08-5q2.76-2.26,7.64-2.26a16.69,16.69,0,0,1,8.06,2.26,11.45,11.45,0,0,1,5.57,6.76c0,1.08-1.17,2.35-3.46,3.8s-3.47,3-3.47,4.56q1.23,2.87,2.79,3.66a7.06,7.06,0,0,0,3.31.8c1.17,0,2.49-1.11,4-3.35,1.38,2,2.68,3,3.88,3a6.1,6.1,0,0,0,3.46-1.11,3.45,3.45,0,0,0,1.65-3c0-.69-.64-1.33-1.93-1.94a4.82,4.82,0,0,0-1.9-.32,19.87,19.87,0,0,0-5.21.95v-9.87q0-1.44,3.73-3.79a14.46,14.46,0,0,1,7.87-2.35,22.5,22.5,0,0,1,9.64,2.13c3,1.42,4.55,2.78,4.55,4.08v18.27a3.88,3.88,0,0,1-1.13,2.45,3.39,3.39,0,0,1-2.63,1.31,6.52,6.52,0,0,1-5.27-2.9q-2.26-2.88-2.26-5c0-.9,1.57-1.77,4.7-2.64s4.71-2.33,4.71-4.39c0-1.39-1.75-3-5.25-4.78s-6.34-2.69-8.48-2.69a14.49,14.49,0,0,0-5,.84,5.79,5.79,0,0,0-3.31,2.73,12.13,12.13,0,0,1,3.56-.62,5.76,5.76,0,0,1,3.82,1.28c1.72,1.45,2.58,3.73,2.58,6.86q0,5.74-2.82,8.53t-5.65,2.78c-1.89,0-3.79-1-5.73-3.14-2.4,2.1-4.36,3.14-5.89,3.14a7.39,7.39,0,0,1-5.24-2.59,10.74,10.74,0,0,1-2.91-6.82q0-3.66,6.74-7.85a9.19,9.19,0,0,0-4-4,11.39,11.39,0,0,0-5.06-1.19A8.58,8.58,0,0,0,122.86,420.09Zm46.59,13.76c.39,0,.58-.28.58-.83v-2.2c-.74.69-1.25,1.15-1.52,1.39a.56.56,0,0,0-.23.45,1,1,0,0,0,.19.55A1.11,1.11,0,0,0,169.45,433.85Z"/><path class="cls-1" d="M132.26,450.7a6.4,6.4,0,0,1,3-.67,49.25,49.25,0,0,0,7.9-1.59q5.73-1.47,5.73-2a10.42,10.42,0,0,0-3.43-.57,8.88,8.88,0,0,0-4.07,1.09,14.72,14.72,0,0,0-4.31-1.09c-.94,0-1.47.23-1.6.7V447c0,.24.19.36.58.36a1.12,1.12,0,0,0,.72-.15.15.15,0,0,0,.06-.11c0-.1-.18-.15-.53-.15v0c0-.36.39-.55,1.18-.55,1.65,0,2.47.47,2.47,1.4s-1.16,1.2-3.48,1.2a5.19,5.19,0,0,1-3.09-.79,2.42,2.42,0,0,1-1.11-2.05q0-2,5-3.65a13.14,13.14,0,0,1,5.48,2,7.19,7.19,0,0,1,3.5-2,19.42,19.42,0,0,1,4.42,1c1.7.58,2.55,1.18,2.55,1.78a2.34,2.34,0,0,1-1.23,2,21.21,21.21,0,0,1-4.89,2,76.67,76.67,0,0,1-7.8,1.93,1.72,1.72,0,0,0,1.1.61,16.16,16.16,0,0,0,3,.19,13.21,13.21,0,0,0,4.29-.91,6.33,6.33,0,0,0,3.47-2.48c1.39,0,2.09.32,2.09,1v3.63c0,1.53-.83,2.3-2.45,2.3s-2.45-.55-2.45-1.64c1.86-.44,2.8-.92,2.81-1.45v-.85l-1.4.89q-3.5,2.3-9.5,2.29a11.43,11.43,0,0,1-5.72-1.27C133,452.58,132.26,451.67,132.26,450.7Z"/><path class="cls-1" d="M182.74,420.09a27.22,27.22,0,0,0-3,2.18,8.43,8.43,0,0,1,2.06-.26,5.83,5.83,0,0,1,3,.79Q187,424.06,187,428q0,2.23-2.53,4.18c-1.73,1.36-2.59,2.3-2.59,2.83a.36.36,0,0,0,.15.3.76.76,0,0,0,.5.21c.33,0,.66-.28,1-.85a2,2,0,0,1,1.74-1.24c1.79,0,2.69,1,2.69,3q0,5.08-5.18,5.08c-3.45,0-5.18-1.75-5.18-5.27a6.44,6.44,0,0,1,1-3.33q1-1.62,4.67-3a2.17,2.17,0,0,0-2.37-2.1,4.66,4.66,0,0,0-3.28,1.09v-8.4a16.57,16.57,0,0,1,3.8-5q2.47-2.26,7-2.26a13.29,13.29,0,0,1,7.57,2.05,11.56,11.56,0,0,1,4.07,4.07l1,2-5.12,8.74a7.74,7.74,0,0,0,3,4,10.32,10.32,0,0,0,5.62,1.31,14.23,14.23,0,0,0,6.17-1.13,3.89,3.89,0,0,0,2.3-3.77c0-.69-.76-1.33-2.3-1.94a6.18,6.18,0,0,0-2.12-.32,20.13,20.13,0,0,0-5.37.95V418.45c0-1,.81-2.06,2.43-3.32s2.65-1.88,3.11-1.88a9.24,9.24,0,0,1,3,1.28,8.74,8.74,0,0,0,4,1.28c-1,3.43-2,5.14-3.07,5.14l-.06,0a6.35,6.35,0,0,1-2.88-.66A3.82,3.82,0,0,0,207,420c-.93.25-1.58,1.13-2,2.63a12.35,12.35,0,0,1,3.64-.62,6.82,6.82,0,0,1,4.12,1.28c2,1.45,3,3.73,3,6.86a10.43,10.43,0,0,1-3.58,8.1q-3.59,3.21-10.36,3.21a14.76,14.76,0,0,1-7.62-1.94,11.54,11.54,0,0,1-4.86-5.83l6-8.74a13.15,13.15,0,0,0-3.67-4.33,7.93,7.93,0,0,0-4.78-1.56A7.73,7.73,0,0,0,182.74,420.09Z"/><path class="cls-1" d="M221.44,418.45c0-1,.9-2.06,2.71-3.32s3-1.88,3.54-1.88a8,8,0,0,1,3,1.12,13.78,13.78,0,0,0,4.87,1.44q-2.06,4.95-3.82,4.95l-.06,0a6.77,6.77,0,0,1-3.07-.66,4,4,0,0,0-1.75-.41,4.19,4.19,0,0,0-1,.13c-1,.25-1.87,1.19-2.62,2.82a19,19,0,0,1,4.18-.52,9.19,9.19,0,0,1,3.63.66c1.94.84,2.9,2.56,2.9,5.17q0,2.79-3.76,5.24c.24.63,1.08,1.16,2.52,1.6a20.33,20.33,0,0,0,5.76.66,14.23,14.23,0,0,0,6.17-1.13,3.88,3.88,0,0,0,2.31-3.77c0-.69-.77-1.33-2.3-1.94a6.29,6.29,0,0,0-2.13-.32,20.26,20.26,0,0,0-5.37.95V418.45c0-1,.81-2.06,2.43-3.32s2.66-1.88,3.11-1.88a9.24,9.24,0,0,1,3,1.28,8.74,8.74,0,0,0,4,1.28q-1.48,5.15-3.07,5.14l0,0a6.29,6.29,0,0,1-2.88-.66,3.84,3.84,0,0,0-1.72-.41,3.76,3.76,0,0,0-1,.13c-.93.25-1.58,1.13-1.95,2.63a12.29,12.29,0,0,1,3.63-.62,6.8,6.8,0,0,1,4.12,1.28c2,1.45,3,3.73,3,6.86a10.44,10.44,0,0,1-3.77,7.87q-3.76,3.45-10.16,3.44-7,0-10.45-2.59a9.14,9.14,0,0,1-3.86-6.82,23.58,23.58,0,0,0,7-.8c1.63-.53,2.45-1.23,2.45-2.08s-.8-1.09-2.41-1.09c-.24,0-.5,0-.77,0a25.9,25.9,0,0,0-6.23,1.13Z"/><path class="cls-1" d="M266.63,432.31q0,9.18-5.07,9.18-5.26,0-6.23-9.41V419.46a6.53,6.53,0,0,1,1.78-4,5.12,5.12,0,0,1,4-2.17,5.44,5.44,0,0,1,2.93,1.41,5.78,5.78,0,0,0,3.51,1.41,7.3,7.3,0,0,1-1.41,3.22,3.39,3.39,0,0,1-2.45,1.4l-.3,0a3.2,3.2,0,0,1-2.07-.68,3.08,3.08,0,0,0-1.89-.75,1.93,1.93,0,0,0-1.58,1.13,5.11,5.11,0,0,0-.66,2.63v5.5a9.72,9.72,0,0,0,.94,4.12,3.12,3.12,0,0,0,3.11,1.77l.66,0c1.88-.19,2.82-1,2.82-2.53a1.55,1.55,0,0,0-.5-1.2.7.7,0,0,0-.44-.19.73.73,0,0,0-.56.32,2.52,2.52,0,0,1-1.94.58c-1.78,0-2.68-1.11-2.68-3.35q0-4.48,3.81-4.48a3.82,3.82,0,0,1,2.05.7,4.08,4.08,0,0,1,1.62,2.2A21.06,21.06,0,0,1,266.63,432.31Zm7.64-10.25a17.13,17.13,0,0,1,3.79-.49,7.52,7.52,0,0,1,3.74.85c1.94,1.09,2.9,2.94,2.9,5.55q0,2.79-3.76,5.24c.23.63,1.08,1.16,2.52,1.6a20.33,20.33,0,0,0,5.76.66,10.32,10.32,0,0,0,6.17-1.67,5.29,5.29,0,0,0,2.3-4.54,7.48,7.48,0,0,0-.16-1.64,3.54,3.54,0,0,1-.42.75,3.91,3.91,0,0,1-1.76,1.42,5.84,5.84,0,0,1-4.73,0,4,4,0,0,1-1.76-1.41,3.2,3.2,0,0,1,0-3.81,4.1,4.1,0,0,1,1.77-1.42,6,6,0,0,1,2.34-.49q7.53,0,7.53,6.6a11.4,11.4,0,0,1-3.77,8.79q-3.76,3.45-10.16,3.44-7,0-10.45-2.59a9.14,9.14,0,0,1-3.86-6.82,19.24,19.24,0,0,0,7-1c1.63-.66,2.45-1.41,2.45-2.27s-.8-1.09-2.41-1.09l-.77,0a18.17,18.17,0,0,0-6.23,1.51V417.77q5.7-4.51,7.32-4.52a8,8,0,0,1,4.12,1.69c1.67,1.13,2.8,1.7,3.37,1.7s1.53-.57,2.85-1.7a5.56,5.56,0,0,1,3.12-1.69,9.1,9.1,0,0,1,3.71,1.41,9.72,9.72,0,0,0,4.69,1.41q-2,5.08-4.29,5.09a11.29,11.29,0,0,1-4.49-1.13,11.54,11.54,0,0,0-3.27-1.13,5.7,5.7,0,0,0-2.52,1.28,5.59,5.59,0,0,1-2.94,1.28,6.32,6.32,0,0,1-3-1.11,6.48,6.48,0,0,0-2.56-1.11,4.29,4.29,0,0,0-2.36.86A6.7,6.7,0,0,0,274.27,422.06Z"/><path class="cls-1" d="M276,448.08a31,31,0,0,0,4.26-.33c1.55-.24,2.33-.76,2.33-1.55q0-.94-.45-1.17a1,1,0,0,0-.4-.07,2.49,2.49,0,0,0-1,.3,2.86,2.86,0,0,1,.71-2.11,2.82,2.82,0,0,1,2.11-.71,3.16,3.16,0,0,1,2.11.6,2.3,2.3,0,0,1,.72,1.84,3.19,3.19,0,0,1-1.17,2.47,8.81,8.81,0,0,1-3.52,1.68c0,.62,1.37.94,4.12.94q6.33,0,7.06-1.21a5.6,5.6,0,0,1-2.75-1.09,2.52,2.52,0,0,1-.92-2,3,3,0,0,1,.94-2.41,4.3,4.3,0,0,1,2.83-.79,3.32,3.32,0,0,1,3.76,3.76c-.05.53-.1,1-.17,1.32h.31a15,15,0,0,1,4.84,1c1.07.5,1.61,1.16,1.61,2a1.82,1.82,0,0,1-1.16,1.7,8.69,8.69,0,0,1-3.54.56,2.74,2.74,0,0,0,.94-1.88c0-.75-1.16-1.28-3.47-1.58a7.08,7.08,0,0,1-3.54,4,14.38,14.38,0,0,1-6.72,1.35q-4.92,0-7.36-1.63A5.58,5.58,0,0,1,276,448.08Zm17.57-.94a2.41,2.41,0,0,0,.13-.83v-.11c0-.63-.25-.94-.75-.94s-.94.25-.94.75S292.57,446.89,293.61,447.14Z"/><path class="cls-1" d="M311.52,422.66h.3a7.47,7.47,0,0,1,2.77.55,4.81,4.81,0,0,1,2.07,1.51q4.45-3.95,7.32-3.94,3.51,0,10.43,2.26v15.82c-1.5,1.76-2.76,2.63-3.76,2.63a6.52,6.52,0,0,1-5.27-2.9,9.09,9.09,0,0,1-2.26-5.57,20.79,20.79,0,0,0,8.79-3.44q-5.87-2.2-8.68-2.21a12.48,12.48,0,0,0-5.76,1.38v9c0,2.51-1.89,3.76-5.65,3.76s-5.65-1.88-5.65-5.64V433a8.21,8.21,0,0,0,3.93.94,6.86,6.86,0,0,0,3.83-1.09,3.63,3.63,0,0,0,1.62-2.75,4.54,4.54,0,0,1-.91.45,7.18,7.18,0,0,1-2.82.57q-5.65,0-5.65-4.24c0-2.48,1.46-3.88,4.39-4.18a8.17,8.17,0,0,0-3.73-1.13,3.52,3.52,0,0,0-.66.06v-3.88q5.93-4.51,7.61-4.52a8.46,8.46,0,0,1,4.25,1.69c1.72,1.13,2.88,1.7,3.47,1.7s1.56-.57,2.91-1.7a5.88,5.88,0,0,1,3.24-1.69,9.63,9.63,0,0,1,3.81,1.41,10.28,10.28,0,0,0,4.84,1.41q-2,4.71-4.43,4.71a11.84,11.84,0,0,1-4.61-1.13,12.28,12.28,0,0,0-3.37-1.13c-.52,0-1.38.52-2.6,1.57a5.3,5.3,0,0,1-3,1.56c-.81,0-2.06-.56-3.77-1.68s-2.8-1.67-3.29-1.67a4.73,4.73,0,0,0-2.08.71,6.46,6.46,0,0,1,3.77,1.73ZM332,433.85c.38,0,.58-.28.58-.83v-2.2c-.74.69-1.25,1.15-1.53,1.39a.58.58,0,0,0-.22.45,1,1,0,0,0,.19.55A1.1,1.1,0,0,0,332,433.85Z"/><path class="cls-1" d="M342.89,423.61a26.19,26.19,0,0,1,10.47-1.89,22.11,22.11,0,0,1,10.52,2.36,7.55,7.55,0,0,1,4.43,7,8.39,8.39,0,0,1-4.71,7.78,21.1,21.1,0,0,1-10.36,2.59,19,19,0,0,1-9.41-2.11c-2.51-1.41-3.77-3.79-3.77-7.11A5.16,5.16,0,0,1,342,427.9q1.88-1.47,6.21-1.47a14.2,14.2,0,0,1,5.18.91,3.13,3.13,0,0,1,2.35,3q0,2.07-2.67,3.09a7.12,7.12,0,0,1-2.55.45,11.22,11.22,0,0,1-3.78-.74,3.16,3.16,0,0,1-2.3-2.93q-1.5,0-1.5,2.07c0,.75.59,1.5,1.78,2.26a10.65,10.65,0,0,0,5.56,1.13,24.6,24.6,0,0,0,8.29-1.17q3.19-1.19,3.2-3.54c0-2.13-1.33-3.73-4-4.78a21.24,21.24,0,0,0-8-1.6,24,24,0,0,0-6,.56,15.09,15.09,0,0,0-3.65,1.51v-7.55q0-1.3,3-3.58t4.63-2.26a8.46,8.46,0,0,1,4.25,1.69c1.72,1.13,2.88,1.7,3.47,1.7s1.56-.57,2.92-1.7a5.82,5.82,0,0,1,3.24-1.69,9.6,9.6,0,0,1,3.8,1.41,10.31,10.31,0,0,0,4.84,1.41c-1.36,3.39-2.83,5.09-4.43,5.09a10.49,10.49,0,0,1-4.62-1.32,10.85,10.85,0,0,0-3.36-1.32,5.62,5.62,0,0,0-2.61,1.47,5.39,5.39,0,0,1-3,1.47,7.75,7.75,0,0,1-3.41-1.26,8.18,8.18,0,0,0-2.94-1.26,3.53,3.53,0,0,0-1.95.94,3.41,3.41,0,0,0-1,2.84C342.85,423,342.86,423.29,342.89,423.61Z"/><path class="cls-1" d="M354.58,398.19a11.08,11.08,0,0,1,7.53,2.82,13.66,13.66,0,0,1,4.31,7.53c0,.63-1.07.94-3.22.94a52.69,52.69,0,0,0-8.94-.94,21.27,21.27,0,0,0-6.08.94,4.06,4.06,0,0,1-3.28-1.24,3.69,3.69,0,0,1-1.07-2.39,7,7,0,0,1,2.69-5.31C348.32,399,351,398.19,354.58,398.19Zm-5,7.92a27.57,27.57,0,0,1,4.69-.39,41.42,41.42,0,0,1,8.4,1,5.08,5.08,0,0,0-2.62-2.59,11,11,0,0,0-5.42-1.22,6.33,6.33,0,0,0-3.7.95A2.76,2.76,0,0,0,349.57,406.11Z"/><path class="cls-1" d="M384.76,435.28q1.61,0,4.53-2.73a9.53,9.53,0,0,1,6.7-2.73,6.42,6.42,0,0,1,4.28,1.67,5.1,5.1,0,0,1,1.93,4,6.09,6.09,0,0,1-1.65,4.17,5.19,5.19,0,0,1-4,1.83,5.6,5.6,0,0,1-3.54-.94,3.4,3.4,0,0,1-1.17-2.82c0-1.26.32-2,.94-2.26a3.84,3.84,0,0,1,2.83-.94.83.83,0,0,0,.94.94c.63,0,.94-.28.94-.85,0-.81-.94-1.22-2.82-1.22q-2.44,0-4.62,4.05t-7.25,4a9.43,9.43,0,0,1-6.11-2.22q-2.74-2.2-2.74-4.71v-2.48h1.89a15.38,15.38,0,0,0,5.55-.8c1.32-.53,2-1.23,2-2.08s-.8-1.09-2.41-1.09c-.24,0-.5,0-.77,0a26.07,26.07,0,0,0-6.24,1.13v-8.78a16.25,16.25,0,0,1,5.36-5q3.66-2.26,9.69-2.26a15,15,0,0,1,9.34,2.92c2.57,1.94,3.86,4.06,3.86,6.34a6.33,6.33,0,0,1-1.86,4.05,6.82,6.82,0,0,1-5.41,2.13q-5.71,0-5.72-3.86T392.8,421h.08a3.78,3.78,0,0,1,3.31,1.3,2.46,2.46,0,0,0,0,.26c0,.79.52,1.2,1.55,1.23h.11c1,0,1.56-.34,1.56-1,0-.84-1-1.66-3.05-2.47a19.8,19.8,0,0,0-7.27-1.2q-5.47,0-8,1a23.72,23.72,0,0,0-4.26,2.18,13.54,13.54,0,0,1,2.63-.26,10.06,10.06,0,0,1,4,.79c1.94.84,2.9,2.56,2.9,5.17q0,3.36-4.12,6.09A3.29,3.29,0,0,0,384.76,435.28Z"/><path class="cls-1" d="M418.2,448.08a7,7,0,0,1-3.4,4.86,14.74,14.74,0,0,1-7.72,1.73,15.33,15.33,0,0,1-7.71-1.65,5.35,5.35,0,0,1-2.82-4.94,5,5,0,0,1,5.65-5.64,7,7,0,0,1,3.54.71,2.3,2.3,0,0,1,1.17,2.11,2.62,2.62,0,0,1-.83,2.11,3.68,3.68,0,0,1-2.47.71,3.18,3.18,0,0,1-2.35-.94.95.95,0,0,0-1.89,0c0,.94.71,1.65,2.11,2.11a19.15,19.15,0,0,0,5.9.72,10.58,10.58,0,0,0,5.89-1.41,4.77,4.77,0,0,0,2.11-4.24V430.05c-.07-.64-.89-1.14-2.45-1.49a7.19,7.19,0,0,0-1.52-.15,14.59,14.59,0,0,0-4.5.85v-9.87q0-1.44,3.54-3.79a13.3,13.3,0,0,1,7.49-2.35,22.5,22.5,0,0,1,9.64,2.13q4.56,2.13,4.56,4.08v18.27a3.94,3.94,0,0,1-1.13,2.45,3.41,3.41,0,0,1-2.64,1.31,6.52,6.52,0,0,1-5.27-2.9q-2.27-2.88-2.26-5c0-.9,1.57-1.77,4.71-2.64s4.7-2.33,4.7-4.39c0-1.39-1.75-3-5.25-4.78s-6.2-2.67-8.09-2.67h-.14a13.55,13.55,0,0,0-4.91.82,5.16,5.16,0,0,0-3.05,2.73,10.66,10.66,0,0,1,3.18-.52,7.46,7.46,0,0,1,2.69.47,6,6,0,0,1,3.52,2.88ZM430.25,433v-2.2c-.73.69-1.24,1.15-1.52,1.39a.59.59,0,0,0-.23.45,1.36,1.36,0,0,0,1.17,1.19C430.06,433.85,430.25,433.57,430.25,433Z"/><path class="cls-1" d="M444.87,422a16,16,0,0,1,4.21-.51,17.82,17.82,0,0,1,7.53,1.41,11.08,11.08,0,0,1,5,5.46l-2.87,4.39c.67,1.8,2.65,2.71,5.95,2.71a14.19,14.19,0,0,0,6.17-1.13,3.88,3.88,0,0,0,2.31-3.77c0-.69-.77-1.33-2.3-1.94a6.29,6.29,0,0,0-2.13-.32,20.26,20.26,0,0,0-5.37.95V418.45c0-1,.82-2.06,2.43-3.32s2.66-1.88,3.11-1.88a9.24,9.24,0,0,1,3,1.28,8.74,8.74,0,0,0,4,1.28Q474.49,421,472.9,421l0,0a6.35,6.35,0,0,1-2.88-.66,3.84,3.84,0,0,0-1.72-.41,3.76,3.76,0,0,0-1,.13c-.92.25-1.58,1.13-1.95,2.63a12.34,12.34,0,0,1,3.63-.62,6.85,6.85,0,0,1,4.13,1.28c2,1.45,2.95,3.73,2.95,6.86a10.4,10.4,0,0,1-3.58,8.1q-3.57,3.21-9.6,3.21a13.7,13.7,0,0,1-7.44-1.95c-1.54-1-2.31-1.82-2.31-2.6a1.24,1.24,0,0,1,.28-.77l3.5-4.2a8.77,8.77,0,0,0-3.87-3.49,12,12,0,0,0-5.09-1.15q-7.29,0-7.29,4.56,0,4.14,3.73,4.14c2.47,0,3.84-.45,4.11-1.37a2.64,2.64,0,0,0,.09-.62c0-.39-.18-.59-.53-.59l-.21,0c-.41,1-1.49,1.43-3.23,1.43s-2.64-1-2.64-3.1,1.41-3.11,4.22-3.11,4.16,1.71,4.16,5.14V434q-.06,7.53-5.91,7.53a5.79,5.79,0,0,1-4.67-2.42,8.87,8.87,0,0,1-1.94-5.75q0-7.47,4.52-10.22-2.58-2.22-4.3-2.22h-.09a12.15,12.15,0,0,1,4.56-5.75c1.95-1.25,3.2-1.88,3.74-1.88a12.51,12.51,0,0,1,3.64,1.28,12.12,12.12,0,0,0,4.87,1.28q-1.59,4.95-3.71,4.95a.06.06,0,0,1,0,0,9.13,9.13,0,0,1-3.77-.75,10.13,10.13,0,0,0-2.82-.87l-.25,0a2.91,2.91,0,0,0-1.92.85A5.63,5.63,0,0,1,444.87,422Z"/><path class="cls-1" d="M509.9,430.18a10.42,10.42,0,0,1-3.76,7.87q-3.76,3.45-10.17,3.44-7,0-10.45-2.59a9.17,9.17,0,0,1-3.86-6.82,23.7,23.7,0,0,0,7-.8c1.63-.53,2.45-1.23,2.45-2.08s-.81-1.09-2.41-1.09c-.24,0-.5,0-.78,0a25.9,25.9,0,0,0-6.23,1.13V418.45c0-1,.9-2.06,2.71-3.32s3-1.88,3.54-1.88a8.1,8.1,0,0,1,3,1.12,13.67,13.67,0,0,0,4.86,1.44c-1.36,3.3-2.64,4.95-3.82,4.95a.06.06,0,0,1-.05,0,6.77,6.77,0,0,1-3.07-.66,4.05,4.05,0,0,0-1.76-.41,4.19,4.19,0,0,0-1.05.13c-1,.25-1.86,1.19-2.62,2.82a19.12,19.12,0,0,1,4.18-.52,9.21,9.21,0,0,1,3.64.66q2.9,1.26,2.9,5.17,0,2.79-3.77,5.24c.24.63,1.08,1.16,2.52,1.6a20.45,20.45,0,0,0,5.77.66,14.15,14.15,0,0,0,6.16-1.13,3.88,3.88,0,0,0,2.31-3.77c0-.69-.64-1.33-1.92-1.94a4.85,4.85,0,0,0-1.9-.32,19.86,19.86,0,0,0-5.22.95v-9.87q0-1.44,3.73-3.79a14.51,14.51,0,0,1,7.87-2.35,22.5,22.5,0,0,1,9.64,2.13q4.56,2.13,4.56,4.08v18.27a3.94,3.94,0,0,1-1.13,2.45,3.4,3.4,0,0,1-2.64,1.31,6.52,6.52,0,0,1-5.27-2.9q-2.26-2.88-2.26-5c0-.9,1.57-1.77,4.71-2.64s4.71-2.33,4.71-4.39c0-1.39-1.76-3-5.26-4.78s-6.34-2.69-8.47-2.69a14.45,14.45,0,0,0-5,.84,5.81,5.81,0,0,0-3.32,2.73,12.18,12.18,0,0,1,3.56-.62,5.74,5.74,0,0,1,3.82,1.28C509,424.77,509.9,427.05,509.9,430.18Zm11.47,3.67c.39,0,.59-.28.59-.83v-2.2c-.75.69-1.25,1.15-1.53,1.39a.59.59,0,0,0-.23.45,1.36,1.36,0,0,0,1.17,1.19Z"/><path class="cls-1" d="M533.59,423a7.24,7.24,0,0,0-3.05-.69,7.41,7.41,0,0,0-1,.07v-4.63q5.93-4.51,7.6-4.52a8.46,8.46,0,0,1,4.26,1.69c1.72,1.13,2.87,1.7,3.46,1.7s1.57-.57,2.92-1.7a5.88,5.88,0,0,1,3.24-1.69,9.63,9.63,0,0,1,3.81,1.41,10.27,10.27,0,0,0,4.83,1.41c-1.35,3.39-2.83,5.09-4.42,5.09a10.49,10.49,0,0,1-4.62-1.32,10.85,10.85,0,0,0-3.36-1.32A5.53,5.53,0,0,0,544.6,420a5.41,5.41,0,0,1-3,1.47,8.64,8.64,0,0,1-3.77-1.58,9.5,9.5,0,0,0-3.29-1.58,4.73,4.73,0,0,0-2.08.71q2,.15,4.62,2.77Zm.63.05a19.21,19.21,0,0,1,8.35-1.54A110.56,110.56,0,0,1,557.73,423v15.82c-1.5,1.76-2.76,2.63-3.76,2.63a6.53,6.53,0,0,1-5.28-2.9,9.15,9.15,0,0,1-2.26-5.57,20.82,20.82,0,0,0,8.8-3.44,90.71,90.71,0,0,0-13.58-1.45,15.84,15.84,0,0,0-7.5,1.5c-1.85,1-2.78,2-2.78,3,0,1.64.94,2.57,2.81,2.79a7.78,7.78,0,0,1,2.85-4,6.57,6.57,0,0,1,3.74-1.25,4.69,4.69,0,0,1,3.61,1.45,3,3,0,0,1,.89,2.09,3.49,3.49,0,0,1-.23,1.2c-.46,1.23-1.1,1.85-1.92,1.85a2.59,2.59,0,0,1-2-.83,2.43,2.43,0,0,0-1.86-.81h0a1.46,1.46,0,0,0-1.49,1.09,3.17,3.17,0,0,0,0,.53,2.73,2.73,0,0,0,1.26,2.14,4.16,4.16,0,0,1-4.05,2.58,5.05,5.05,0,0,1-4.1-1.56,6.09,6.09,0,0,1-1.32-4.07v-8.11A10.17,10.17,0,0,1,534.22,423.07Zm21,10.78c.38,0,.58-.28.58-.83v-2.2c-.74.69-1.25,1.15-1.53,1.39a.58.58,0,0,0-.22.45,1,1,0,0,0,.19.55A1.1,1.1,0,0,0,555.27,433.85Z"/><path class="cls-1" d="M563.38,418.45c0-1,.9-2.06,2.71-3.32s3-1.88,3.54-1.88a8.1,8.1,0,0,1,3,1.12,13.72,13.72,0,0,0,4.87,1.44q-2.06,4.95-3.83,4.95a.06.06,0,0,1,0,0,6.77,6.77,0,0,1-3.07-.66,4,4,0,0,0-1.75-.41,4.22,4.22,0,0,0-1.06.13c-1,.25-1.86,1.19-2.62,2.82a19.12,19.12,0,0,1,4.18-.52,9.21,9.21,0,0,1,3.64.66q2.9,1.26,2.9,5.17,0,2.79-3.77,5.24c.24.63,1.08,1.16,2.52,1.6a20.45,20.45,0,0,0,5.77.66,14.15,14.15,0,0,0,6.16-1.13,3.88,3.88,0,0,0,2.31-3.77c0-.69-.77-1.33-2.3-1.94a6.18,6.18,0,0,0-2.12-.32,20.13,20.13,0,0,0-5.37.95V418.45c0-1,.81-2.06,2.43-3.32s2.65-1.88,3.1-1.88a9.17,9.17,0,0,1,3,1.28,8.74,8.74,0,0,0,4,1.28c-1,3.43-2,5.14-3.07,5.14l-.06,0a6.35,6.35,0,0,1-2.88-.66,3.8,3.8,0,0,0-1.71-.41,3.76,3.76,0,0,0-1,.13c-.93.25-1.58,1.13-2,2.63a12.34,12.34,0,0,1,3.63-.62,6.83,6.83,0,0,1,4.13,1.28c2,1.45,3,3.73,3,6.86a10.42,10.42,0,0,1-3.76,7.87q-3.76,3.45-10.17,3.44-7,0-10.45-2.59a9.17,9.17,0,0,1-3.86-6.82,23.65,23.65,0,0,0,7-.8c1.63-.53,2.45-1.23,2.45-2.08s-.81-1.09-2.41-1.09c-.24,0-.5,0-.78,0a25.9,25.9,0,0,0-6.23,1.13Zm13.16,9.26a9.78,9.78,0,0,0,4.63,2.66,26.71,26.71,0,0,0,4.75.37h.26a5.84,5.84,0,0,1-4.12,3,7.52,7.52,0,0,1-1.47.13,20,20,0,0,1-6.48-1.41A6.76,6.76,0,0,0,576.54,427.71Z"/><path class="cls-1" d="M608.57,433v5.84c-1.5,1.76-2.76,2.63-3.76,2.63a6.53,6.53,0,0,1-5.28-2.9,9.15,9.15,0,0,1-2.26-5.57,8.66,8.66,0,0,1,6.31-2.82h2.58a3.06,3.06,0,0,0-1.58-1.57,5.44,5.44,0,0,0-2-.32,20.15,20.15,0,0,0-5.31.95v-8.78a16.15,16.15,0,0,1,5.36-5q3.66-2.26,9.69-2.26a15,15,0,0,1,9.34,2.92c2.57,1.94,3.86,4.06,3.86,6.34a7.08,7.08,0,0,1-1.87,4.81,6.81,6.81,0,0,1-5.4,2.12c-3.82,0-5.72-1.28-5.72-3.86s1.19-3.86,3.59-3.86h.08a3.8,3.8,0,0,1,3.31,1.3,2.45,2.45,0,0,0,0,.27c0,.79.52,1.2,1.55,1.22h.11c1,0,1.56-.33,1.56-1,0-1.22-1-2.26-3.05-3.12a18.38,18.38,0,0,0-7.27-1.3q-5.48,0-8,1a23.72,23.72,0,0,0-4.26,2.18A7.41,7.41,0,0,1,602,422a8.61,8.61,0,0,1,3,.59,6,6,0,0,1,3.52,2.88v4.71a4.85,4.85,0,0,1,3,1,7,7,0,0,1,2.08,2.63c.5,1.11,1.61,1.66,3.35,1.66a8.16,8.16,0,0,0,5.07-1.47c1.29-1,2.43-2.82,3.44-5.52q0,6.87-2.45,9.94a7.19,7.19,0,0,1-5.74,3.07q-5.94,0-6.61-6.06C610.29,433.82,609.58,433,608.57,433Zm-1.88.94V433a3.22,3.22,0,0,0-1.53.25.38.38,0,0,0-.22.35,1,1,0,0,0,.19.53,1.1,1.1,0,0,0,1,.64C606.49,434.79,606.69,434.51,606.69,434Z"/><path class="cls-1" d="M614.24,405.36a4.5,4.5,0,0,0,.45,2.26,1.45,1.45,0,0,0,1.34.75c.68,0,1-.32,1-1q0-.66-1-.66a2.48,2.48,0,0,1,.59-1.8,2.4,2.4,0,0,1,1.79-.61,2.44,2.44,0,0,1,1.77.59,2.27,2.27,0,0,1,.58,1.71,3.41,3.41,0,0,1-1.2,2.84,5.69,5.69,0,0,1-3.58.95,7.88,7.88,0,0,1-4.88-1.27,4.49,4.49,0,0,1-1.64-3.8,6,6,0,0,1,1.1-3.95,3.89,3.89,0,0,1,3.25-1.34,9.29,9.29,0,0,1,3.26.43,5.84,5.84,0,0,0,2.17.44c.72,0,1.09-.22,1.09-.65,0-.66-.37-1-1.09-1a2,2,0,0,1,.54-1.55,2.34,2.34,0,0,1,1.64-.51,2.12,2.12,0,0,1,1.62.59,2.4,2.4,0,0,1,.55,1.71,3.56,3.56,0,0,1-1.1,2.85,4.74,4.74,0,0,1-3.25,1H616a1.73,1.73,0,0,0-1.34.48A2.25,2.25,0,0,0,614.24,405.36Z"/></g></g></svg>