<svg xmlns="http://www.w3.org/2000/svg" width="1021" height="288" fill="none"><rect width="332" height="72" x="343" fill="#004282" rx="10"/><path fill="#fff" d="M421.828 39.36q-.58 1.94-2.06 2.9-1.46.94-3.44.94-1.9 0-3.3-.82-1.38-.82-2.14-2.34t-.76-3.64.76-3.64 2.14-2.34q1.4-.82 3.28-.82 1.32 0 2.4.38t1.84 1.14 1.1 1.96l-2.5 1.04q-.3-1.24-1-1.74-.68-.52-1.72-.52-1.06 0-1.84.52-.76.52-1.18 1.54-.42 1-.42 2.48 0 1.46.4 2.48.4 1 1.16 1.54.78.52 1.86.52 1.06 0 1.8-.58.76-.58 1.04-1.78zm3.264 3.82q-.78 0-1.26-.42-.48-.44-.48-1.18 0-.76.48-1.18.48-.44 1.26-.44.82 0 1.28.44.46.42.46 1.18 0 .74-.46 1.18-.46.42-1.28.42M437.96 29.8v2.22h-4.28V43h-2.78V32.02h-4.3V29.8zm1.507 13.38q-.78 0-1.26-.42-.48-.44-.48-1.18 0-.76.48-1.18.48-.44 1.26-.44.82 0 1.28.44.46.42.46 1.18 0 .74-.46 1.18-.46.42-1.28.42m14.959-3.82q-.58 1.94-2.06 2.9-1.46.94-3.44.94-1.9 0-3.3-.82-1.38-.82-2.14-2.34t-.76-3.64.76-3.64 2.14-2.34q1.4-.82 3.28-.82 1.32 0 2.4.38t1.84 1.14 1.1 1.96l-2.5 1.04q-.3-1.24-1-1.74-.68-.52-1.72-.52-1.06 0-1.84.52-.76.52-1.18 1.54-.42 1-.42 2.48 0 1.46.4 2.48.4 1 1.16 1.54.78.52 1.86.52 1.059 0 1.8-.58.76-.58 1.04-1.78zm3.264 3.82q-.78 0-1.26-.42-.48-.44-.48-1.18 0-.76.48-1.18.48-.44 1.26-.44.82 0 1.28.44.46.42.46 1.18 0 .74-.46 1.18-.46.42-1.28.42m21.678-13.38V43h-3.14l-4.46-7.82-1.06-2.08h-.02l.08 2.28V43h-2.5V29.8h3.14l4.46 7.82 1.06 2.08h.02l-.08-2.28V29.8zm8.477 6.8q0-.84-.46-1.32-.44-.5-1.22-.5-.76 0-1.3.38t-.78 1.28l-2.32-.7a3.54 3.54 0 0 1 1.46-2.14q1.14-.8 3.08-.8 1.32 0 2.28.42.96.4 1.48 1.22.54.82.54 2.04v4.06q0 .78.7.78.16 0 .32-.02.18-.02.3-.06l-.16 1.68q-.24.12-.56.18t-.74.06a3.4 3.4 0 0 1-1.24-.22q-.54-.24-.86-.72-.3-.5-.3-1.26v-.16l.38-.08q-.081.82-.6 1.38a3.26 3.26 0 0 1-1.28.84q-.76.26-1.6.26-1.44 0-2.36-.7-.9-.7-.9-2.04 0-1.06.66-1.78t2.02-1l3.76-.8v1.62l-2.3.48q-.68.14-1.04.42t-.36.82q0 .52.36.8.38.28.96.28.399 0 .78-.1.38-.12.66-.36.3-.26.46-.62.18-.38.18-.9zm9.072-6.66v9.76q0 .76.36 1.1t1 .34q.48 0 .84-.14.36-.16.66-.4l.4 1.8q-.48.36-1.18.58a4.8 4.8 0 0 1-1.46.22q-1.52 0-2.44-.68-.92-.7-.92-2.36V30.7zm3.1 3.06v2.04h-7.6V33zm4.559 0v10h-2.76V33zm-1.34-1.4q-.879 0-1.32-.36-.42-.38-.42-1.14 0-.74.42-1.1.441-.38 1.32-.38.88 0 1.3.38.42.36.42 1.1 0 .76-.42 1.14-.42.36-1.3.36m8.646 1.2q1.48 0 2.62.62a4.4 4.4 0 0 1 1.78 1.78q.66 1.16.66 2.8t-.66 2.8a4.4 4.4 0 0 1-1.78 1.78q-1.14.62-2.62.62t-2.62-.62a4.4 4.4 0 0 1-1.78-1.78q-.64-1.16-.64-2.8t.64-2.8a4.4 4.4 0 0 1 1.78-1.78q1.14-.62 2.62-.62m0 2.04q-.7 0-1.22.36-.5.34-.78 1.04-.26.7-.26 1.76t.26 1.76q.28.7.78 1.06.52.34 1.22.34.72 0 1.22-.34.5-.36.78-1.06.28-.72.28-1.76 0-1.06-.28-1.76t-.78-1.04q-.5-.36-1.22-.36m7.317 8.16V33h2.46l.16 3.06-.32-.32q.34-1.46 1.3-2.2t2.32-.74q1.02 0 1.8.42.78.4 1.22 1.2.46.8.46 2V43h-2.76v-5.82q0-1.22-.48-1.72t-1.24-.5q-.54 0-1.04.28-.5.26-.82.86-.3.6-.3 1.56V43zm17.708-6.4q0-.84-.46-1.32-.44-.5-1.22-.5-.76 0-1.3.38t-.78 1.28l-2.32-.7q.32-1.34 1.46-2.14t3.08-.8q1.32 0 2.28.42.96.4 1.48 1.22.54.82.54 2.04v4.06q0 .78.7.78.16 0 .32-.02.18-.02.3-.06l-.16 1.68q-.24.12-.56.18t-.74.06q-.68 0-1.24-.22-.54-.24-.86-.72-.3-.5-.3-1.26v-.16l.38-.08q-.08.82-.6 1.38a3.24 3.24 0 0 1-1.28.84q-.76.26-1.6.26-1.44 0-2.36-.7-.9-.7-.9-2.04 0-1.06.66-1.78t2.02-1l3.76-.8v1.62l-2.3.48q-.68.14-1.04.42t-.36.82q0 .52.36.8.381.28.96.28.4 0 .78-.1.381-.12.66-.36.3-.26.46-.62.18-.38.18-.9zm8.313-7.96V39.9q0 .64.2.96t.76.32q.3 0 .5-.04.22-.04.5-.16l-.2 1.8a3.2 3.2 0 0 1-.84.3q-.52.12-.98.12-1.54 0-2.12-.8t-.58-2.2V28.64zM554.264 43V29.8h5.72q2.32 0 3.42.94 1.12.92 1.12 2.64 0 1.06-.62 1.88t-1.86 1.04v.02q1.36.22 2.08 1.08.72.84.72 2 0 1.7-1.18 2.66-1.18.94-3.46.94zm2.7-2.06h2.94q1.04 0 1.54-.46.52-.46.52-1.3t-.52-1.28q-.5-.44-1.54-.44h-2.94zm0-5.58h2.62q1.02 0 1.54-.42.52-.44.52-1.3 0-.84-.52-1.26-.52-.44-1.54-.44h-2.62zm14.664-2.56q1.48 0 2.62.62a4.4 4.4 0 0 1 1.78 1.78q.66 1.16.66 2.8t-.66 2.8a4.4 4.4 0 0 1-1.78 1.78q-1.14.62-2.62.62t-2.62-.62a4.4 4.4 0 0 1-1.78-1.78q-.64-1.16-.64-2.8t.64-2.8a4.4 4.4 0 0 1 1.78-1.78q1.14-.62 2.62-.62m0 2.04q-.7 0-1.22.36-.5.34-.78 1.04-.26.7-.26 1.76t.26 1.76q.28.7.78 1.06.52.34 1.22.34.72 0 1.22-.34.5-.36.78-1.06.28-.72.28-1.76 0-1.06-.28-1.76t-.78-1.04q-.5-.36-1.22-.36m12.857 1.76q0-.84-.46-1.32-.44-.5-1.22-.5-.76 0-1.3.38t-.78 1.28l-2.32-.7q.32-1.34 1.46-2.14t3.08-.8q1.32 0 2.28.42.96.4 1.48 1.22.54.82.54 2.04v4.06q0 .78.7.78.16 0 .32-.02.18-.02.3-.06l-.16 1.68q-.24.12-.56.18t-.74.06q-.68 0-1.24-.22-.54-.24-.86-.72-.3-.5-.3-1.26v-.16l.38-.08q-.08.82-.6 1.38a3.24 3.24 0 0 1-1.28.84q-.76.26-1.6.26-1.44 0-2.36-.7-.9-.7-.9-2.04 0-1.06.66-1.78t2.02-1l3.76-.8v1.62l-2.3.48q-.68.14-1.04.42t-.36.82q0 .52.36.8.381.28.96.28.4 0 .78-.1.381-.12.66-.36.3-.26.46-.62.18-.38.18-.9zm5.613 6.4V33h2.42l.14 2.02q.36-1.06 1.1-1.64.759-.58 1.86-.58.339 0 .6.06.28.06.46.16l-.32 2.32a1.5 1.5 0 0 0-.46-.12 3.5 3.5 0 0 0-.72-.06q-.6 0-1.14.3-.52.3-.86.9-.32.58-.32 1.46V43zm11.55.2q-1.2 0-2.14-.6-.94-.62-1.48-1.78-.52-1.18-.52-2.8 0-1.66.54-2.82.56-1.18 1.52-1.78.96-.62 2.18-.62 1.32 0 2.16.78.84.76 1.1 2l-.28.32v-7.26h2.76V43h-2.46l-.2-3.12.34.18a3.9 3.9 0 0 1-.64 1.68q-.48.7-1.22 1.08a3.6 3.6 0 0 1-1.66.38m.86-2.1q.68 0 1.16-.36.5-.38.78-1.08.28-.72.28-1.74 0-.96-.28-1.62-.26-.68-.76-1.04-.48-.36-1.14-.36-1.06 0-1.68.8-.6.78-.6 2.3t.58 2.32q.6.78 1.66.78"/><path stroke="#38CAF9" stroke-width="3" d="M510.5 72v53M163 124.5h696M510.516 126.001l-.018 28M510.516 204.001l-.017 30"/><rect width="327" height="55" x="347" y="154" fill="#14B1E7" rx="8"/><path fill="#fff" d="M377.64 184.48q-.58 1.82-2 2.78-1.42.94-3.32.94-1.86 0-3.22-.82t-2.1-2.34q-.74-1.54-.74-3.64t.74-3.62q.74-1.54 2.1-2.36t3.18-.82q1.3 0 2.32.38 1.04.36 1.76 1.1.72.72 1.08 1.84l-1.98.86q-.36-1.22-1.12-1.78t-1.96-.56q-1.16 0-2.04.58t-1.36 1.7q-.48 1.1-.48 2.68 0 1.56.46 2.68.46 1.1 1.32 1.7.88.58 2.08.58 1.18 0 2.04-.64t1.18-1.92zm3.365 3.7q-.68 0-1.1-.38-.4-.4-.4-1.02 0-.66.4-1.04.42-.4 1.1-.4t1.08.4q.42.38.42 1.04 0 .62-.42 1.02-.4.38-1.08.38m12.411-13.38v1.82h-4.38V188h-2.18v-11.38h-4.36v-1.82zm1.476 13.38q-.68 0-1.1-.38-.4-.4-.4-1.02 0-.66.4-1.04.42-.4 1.1-.4t1.08.4q.42.38.42 1.04 0 .62-.42 1.02-.4.38-1.08.38m14.721-3.7q-.58 1.82-2 2.78-1.42.94-3.32.94-1.86 0-3.22-.82t-2.1-2.34q-.74-1.54-.74-3.64t.74-3.62q.74-1.54 2.1-2.36 1.359-.82 3.18-.82 1.3 0 2.32.38 1.04.36 1.76 1.1.72.72 1.08 1.84l-1.98.86q-.36-1.22-1.12-1.78t-1.96-.56q-1.161 0-2.04.58-.88.58-1.36 1.7-.48 1.1-.48 2.68 0 1.56.46 2.68.459 1.1 1.32 1.7.88.58 2.08.58 1.179 0 2.04-.64.86-.64 1.18-1.92zm3.365 3.7q-.68 0-1.1-.38-.4-.4-.4-1.02 0-.66.4-1.04.42-.4 1.1-.4t1.08.4q.42.38.42 1.04 0 .62-.42 1.02-.4.38-1.08.38m24.313-13.38V188h-1.98v-7.74l.14-3.5h-.04l-3.86 11.24h-1.8l-3.88-11.24h-.02l.14 3.5V188h-1.98v-13.2h3.18l2.66 7.88.82 2.9h.04l.82-2.88 2.64-7.9zm8.934 6.76q0-.98-.52-1.54-.519-.56-1.44-.56-.879 0-1.5.42-.6.42-.88 1.36l-1.8-.7q.36-1.24 1.44-1.98 1.08-.76 2.84-.76 1.18 0 2.08.4a2.95 2.95 0 0 1 1.42 1.18q.52.8.52 1.98v4.44q0 .8.72.8.16 0 .34-.02a6 6 0 0 0 .32-.08l-.12 1.42q-.2.1-.5.16-.279.08-.66.08-.6 0-1.1-.22a1.8 1.8 0 0 1-.78-.7q-.28-.48-.28-1.2v-.22l.36-.02q-.14.8-.68 1.34-.519.54-1.26.8-.74.26-1.52.26-1.38 0-2.3-.68-.9-.68-.9-2.02 0-1.08.66-1.8.681-.74 2.04-1.02l3.78-.78v1.42l-2.68.58q-.82.16-1.24.48-.4.32-.4.94 0 .6.42.94t1.16.34q.46 0 .9-.12.441-.14.78-.42.36-.28.56-.7.22-.44.22-1.04zm5.26 6.44v-10h1.9l.14 2.72-.28-.26q.38-1.36 1.34-2 .96-.66 2.24-.66 1.02 0 1.82.42.8.4 1.28 1.22t.48 2.06v6.5h-2.16v-5.86q0-1.42-.6-2-.58-.58-1.46-.58-.62 0-1.22.32-.579.3-.96.98-.36.68-.36 1.78V188zm17.611-6.44q0-.98-.52-1.54-.519-.56-1.44-.56-.879 0-1.5.42-.6.42-.88 1.36l-1.8-.7q.36-1.24 1.44-1.98 1.08-.76 2.84-.76 1.18 0 2.08.4a2.95 2.95 0 0 1 1.42 1.18q.52.8.52 1.98v4.44q0 .8.72.8.16 0 .34-.02a6 6 0 0 0 .32-.08l-.12 1.42q-.2.1-.5.16-.279.08-.66.08-.6 0-1.1-.22a1.8 1.8 0 0 1-.78-.7q-.28-.48-.28-1.2v-.22l.36-.02q-.14.8-.68 1.34-.519.54-1.26.8-.74.26-1.52.26-1.38 0-2.3-.68-.9-.68-.9-2.02 0-1.08.66-1.8.681-.74 2.04-1.02l3.78-.78v1.42l-2.68.58q-.82.16-1.24.48-.4.32-.4.94 0 .6.42.94t1.16.34q.46 0 .9-.12.441-.14.78-.42.36-.28.56-.7.22-.44.22-1.04zm13.86-5.7.3 1.64a.5.5 0 0 0-.14-.02h-.12q-.92 0-1.4.42t-.48 1.22l-.98-.46q0-.8.32-1.44.34-.64.92-1 .58-.38 1.4-.38h.08q.06 0 .1.02m-3.14 10.56q1.5 0 2.34.68t.84 1.86q0 1.06-.64 1.8-.64.76-1.76 1.14-1.1.4-2.54.4-2.42 0-3.58-.76-1.14-.74-1.14-1.88 0-.82.58-1.42.6-.58 1.92-.66l-.1.3q-.86-.18-1.38-.66-.5-.5-.5-1.34 0-.82.64-1.42.64-.62 1.82-.72l1.12.52h-.28q-.86.06-1.26.4-.38.32-.38.76 0 .5.36.76.36.24 1.02.24zm-1.74 4.32q1.041 0 1.74-.2t1.04-.56q.36-.34.36-.74a.9.9 0 0 0-.4-.78q-.38-.28-1.24-.28h-3.14q-.56 0-.96.3-.38.3-.38.82 0 .64.78 1.04.8.4 2.2.4m-.06-12.94q1.3 0 2.24.42.96.42 1.48 1.18.52.74.52 1.76t-.54 1.78q-.52.76-1.48 1.18-.939.4-2.22.4-2.06 0-3.16-.9-1.08-.92-1.08-2.46 0-1.02.52-1.76.52-.76 1.48-1.18t2.24-.42m0 1.44q-.9 0-1.5.52t-.6 1.4.6 1.4q.621.52 1.5.52.9 0 1.5-.52t.6-1.4-.6-1.4q-.579-.52-1.5-.52m11.147 8.96q-1.46 0-2.56-.62a4.35 4.35 0 0 1-1.72-1.78q-.62-1.18-.62-2.8 0-1.64.6-2.8.62-1.16 1.7-1.78 1.1-.62 2.48-.62 1.42 0 2.42.6t1.52 1.66q.54 1.04.54 2.4 0 .34-.02.62t-.04.48h-7.8v-1.48h6.84l-1.06.32q0-.94-.3-1.58-.28-.66-.82-1t-1.28-.34q-.84 0-1.46.42-.6.4-.92 1.2-.32.78-.32 1.92t.34 1.92.98 1.18 1.5.4q.92 0 1.52-.38.6-.4.94-1.08l1.72.76a3.75 3.75 0 0 1-.96 1.28q-.6.54-1.42.82a5.5 5.5 0 0 1-1.8.28m6.951-.2v-10h1.9l.1 1.78q.5-.98 1.38-1.48t1.9-.5q1.08 0 1.96.52.9.5 1.32 1.52.3-.68.84-1.12a3.8 3.8 0 0 1 1.24-.68q.68-.24 1.36-.24.96 0 1.76.4.82.4 1.32 1.22t.5 2.08v6.5h-2.16v-6.14q0-1.22-.58-1.76t-1.44-.54q-.68 0-1.26.34t-.92 1.02q-.34.66-.34 1.6V188h-2.16v-6.14q0-1.22-.6-1.76-.58-.54-1.44-.54-.58 0-1.18.32-.58.32-.96 1t-.38 1.76V188zm22.991.2q-1.46 0-2.56-.62a4.34 4.34 0 0 1-1.72-1.78q-.62-1.18-.62-2.8 0-1.64.6-2.8.62-1.16 1.7-1.78 1.1-.62 2.48-.62 1.42 0 2.42.6t1.52 1.66q.54 1.04.54 2.4 0 .34-.02.62t-.04.48h-7.8v-1.48h6.84l-1.06.32q0-.94-.3-1.58-.28-.66-.82-1t-1.28-.34q-.84 0-1.46.42-.6.4-.92 1.2-.32.78-.32 1.92t.34 1.92.98 1.18 1.5.4q.92 0 1.52-.38.6-.4.94-1.08l1.72.76q-.34.74-.96 1.28-.6.54-1.42.82a5.5 5.5 0 0 1-1.8.28m6.951-.2v-10h1.9l.14 2.72-.28-.26q.38-1.36 1.34-2 .96-.66 2.24-.66 1.02 0 1.82.42.8.4 1.28 1.22t.48 2.06v6.5h-2.16v-5.86q0-1.42-.6-2-.58-.58-1.46-.58-.62 0-1.22.32-.58.3-.96.98-.36.68-.36 1.78V188zm14.714-12.96v9.92q0 .76.38 1.14.38.36 1.02.36.52 0 .88-.16.38-.18.68-.46l.44 1.52a3.3 3.3 0 0 1-1.1.62q-.64.22-1.4.22-1.32 0-2.2-.66-.86-.66-.86-2.22v-9.68zm3.24 2.96v1.68h-7.22V178zm19.314 6.48q-.58 1.82-2 2.78-1.42.94-3.32.94-1.86 0-3.22-.82t-2.1-2.34q-.74-1.54-.74-3.64t.74-3.62q.74-1.54 2.1-2.36 1.359-.82 3.18-.82 1.3 0 2.32.38 1.04.36 1.76 1.1.72.72 1.08 1.84l-1.98.86q-.36-1.22-1.12-1.78t-1.96-.56q-1.161 0-2.04.58-.88.58-1.36 1.7-.48 1.1-.48 2.68 0 1.56.46 2.68.459 1.1 1.32 1.7.88.58 2.08.58 1.179 0 2.04-.64.86-.64 1.18-1.92zm6.58-6.68q1.42 0 2.5.62 1.1.62 1.72 1.8.64 1.16.64 2.78t-.64 2.8a4.34 4.34 0 0 1-1.72 1.78q-1.08.62-2.5.62t-2.52-.62a4.35 4.35 0 0 1-1.72-1.78q-.62-1.18-.62-2.8t.62-2.78q.62-1.18 1.72-1.8t2.52-.62m0 1.68q-.84 0-1.44.42-.6.4-.94 1.18-.32.78-.32 1.92t.32 1.92q.34.78.94 1.2.6.4 1.44.4t1.44-.4q.6-.42.92-1.2.34-.8.34-1.92 0-1.14-.34-1.92-.32-.78-.92-1.18-.6-.42-1.44-.42m7.46 8.52v-10h1.9l.1 1.78q.5-.98 1.38-1.48t1.9-.5q1.08 0 1.96.52.9.5 1.32 1.52.3-.68.84-1.12a3.8 3.8 0 0 1 1.24-.68q.68-.24 1.36-.24.96 0 1.76.4.82.4 1.32 1.22t.5 2.08v6.5h-2.16v-6.14q0-1.22-.58-1.76t-1.44-.54q-.68 0-1.26.34t-.92 1.02q-.34.66-.34 1.6V188h-2.16v-6.14q0-1.22-.6-1.76-.58-.54-1.44-.54-.58 0-1.18.32-.58.32-.96 1t-.38 1.76V188zm18.731 0v-10h1.9l.1 1.78q.5-.98 1.38-1.48t1.9-.5q1.08 0 1.96.52.9.5 1.32 1.52.3-.68.84-1.12a3.8 3.8 0 0 1 1.24-.68q.68-.24 1.36-.24.96 0 1.76.4.819.4 1.32 1.22.5.82.5 2.08v6.5h-2.16v-6.14q0-1.22-.58-1.76t-1.44-.54q-.681 0-1.26.34-.58.34-.92 1.02-.34.66-.34 1.6V188h-2.16v-6.14q0-1.22-.6-1.76-.58-.54-1.44-.54-.58 0-1.18.32-.58.32-.96 1t-.38 1.76V188zm20.89-10v10h-2.16v-10zm-1.02-1.64q-.72 0-1.12-.34-.38-.36-.38-1.02t.38-1q.4-.36 1.12-.36t1.1.36q.38.34.38 1t-.38 1.02q-.38.34-1.1.34m7.051-1.32v9.92q0 .76.38 1.14.381.36 1.02.36.52 0 .88-.16.38-.18.68-.46l.44 1.52a3.3 3.3 0 0 1-1.1.62q-.64.22-1.4.22-1.32 0-2.2-.66-.86-.66-.86-2.22v-9.68zm3.24 2.96v1.68h-7.22V178zm3.577-2.96v9.92q0 .76.38 1.14.38.36 1.02.36.52 0 .88-.16.38-.18.68-.46l.44 1.52a3.3 3.3 0 0 1-1.1.62q-.64.22-1.4.22-1.32 0-2.2-.66-.86-.66-.86-2.22v-9.68zm3.24 2.96v1.68h-7.22V178zm6.305 10.2q-1.46 0-2.56-.62a4.34 4.34 0 0 1-1.72-1.78q-.62-1.18-.62-2.8 0-1.64.6-2.8.62-1.16 1.7-1.78 1.1-.62 2.48-.62 1.42 0 2.42.6t1.52 1.66q.54 1.04.54 2.4 0 .34-.02.62t-.04.48h-7.8v-1.48h6.84l-1.06.32q0-.94-.3-1.58-.28-.66-.82-1t-1.28-.34q-.84 0-1.46.42-.6.4-.92 1.2-.32.78-.32 1.92t.34 1.92.98 1.18 1.5.4q.92 0 1.52-.38.6-.4.94-1.08l1.72.76q-.34.74-.96 1.28-.6.54-1.42.82a5.5 5.5 0 0 1-1.8.28m11.211 0q-1.46 0-2.56-.62a4.34 4.34 0 0 1-1.72-1.78q-.62-1.18-.62-2.8 0-1.64.6-2.8.62-1.16 1.7-1.78 1.1-.62 2.48-.62 1.42 0 2.42.6t1.52 1.66q.54 1.04.54 2.4 0 .34-.02.62t-.04.48h-7.8v-1.48h6.84l-1.06.32q0-.94-.3-1.58-.28-.66-.82-1t-1.28-.34q-.84 0-1.46.42-.6.4-.92 1.2-.32.78-.32 1.92t.34 1.92.98 1.18 1.5.4q.92 0 1.52-.38.6-.4.94-1.08l1.72.76q-.34.74-.96 1.28-.6.54-1.42.82a5.5 5.5 0 0 1-1.8.28"/><rect width="327" height="55" x="347" y="233" fill="#14B1E7" rx="8"/><path fill="#fff" d="M413.255 263.48q-.58 1.82-2 2.78-1.42.94-3.32.94-1.86 0-3.22-.82-1.359-.82-2.1-2.34-.74-1.54-.74-3.64t.74-3.62q.741-1.54 2.1-2.36 1.36-.82 3.18-.82 1.3 0 2.32.38 1.04.36 1.76 1.1.72.72 1.08 1.84l-1.98.86q-.36-1.22-1.12-1.78t-1.96-.56q-1.16 0-2.04.58t-1.36 1.7q-.48 1.1-.48 2.68 0 1.56.46 2.68.46 1.1 1.32 1.7.88.58 2.08.58 1.18 0 2.04-.64t1.18-1.92zm3.365 3.7q-.68 0-1.1-.38-.4-.4-.4-1.02 0-.66.4-1.04.42-.4 1.1-.4t1.08.4q.42.38.42 1.04 0 .62-.42 1.02-.399.38-1.08.38m12.411-13.38v1.82h-4.38V267h-2.18v-11.38h-4.36v-1.82zm1.476 13.38q-.68 0-1.1-.38-.4-.4-.4-1.02 0-.66.4-1.04.42-.4 1.1-.4t1.08.4q.42.38.42 1.04 0 .62-.42 1.02-.4.38-1.08.38m14.721-3.7q-.58 1.82-2 2.78-1.42.94-3.32.94-1.86 0-3.22-.82t-2.1-2.34q-.74-1.54-.74-3.64t.74-3.62q.74-1.54 2.1-2.36t3.18-.82q1.3 0 2.32.38 1.04.36 1.76 1.1.72.72 1.08 1.84l-1.98.86q-.36-1.22-1.12-1.78t-1.96-.56q-1.16 0-2.04.58t-1.36 1.7q-.48 1.1-.48 2.68 0 1.56.46 2.68.46 1.1 1.32 1.7.88.58 2.08.58 1.18 0 2.04-.64t1.18-1.92zm3.365 3.7q-.68 0-1.1-.38-.4-.4-.4-1.02 0-.66.4-1.04.42-.4 1.1-.4t1.08.4q.42.38.42 1.04 0 .62-.42 1.02-.4.38-1.08.38m16.394-13.58q1.88 0 3.24.82 1.359.82 2.1 2.34.74 1.52.74 3.64 0 2.1-.74 3.64-.741 1.52-2.1 2.34-1.36.82-3.24.82t-3.24-.82-2.1-2.34q-.74-1.54-.74-3.64 0-2.12.74-3.64t2.1-2.34q1.359-.82 3.24-.82m0 1.84q-1.2 0-2.06.6-.861.58-1.32 1.68t-.46 2.68q0 1.56.46 2.68.459 1.1 1.32 1.7.86.58 2.06.58t2.04-.58q.86-.6 1.32-1.7.48-1.12.48-2.68 0-1.58-.48-2.68-.46-1.1-1.32-1.68-.84-.6-2.04-.6m8.774 15.76V257h1.92l.14 2.94-.26-.32q.3-1.26 1.24-2.04.96-.78 2.3-.78 1.2 0 2.16.62t1.5 1.78q.56 1.16.56 2.78 0 1.64-.56 2.82-.56 1.16-1.54 1.78-.96.62-2.18.62-1.26 0-2.14-.7a3.9 3.9 0 0 1-1.22-1.8l.24-.36v6.86zm4.76-5.72q1.22 0 1.92-.92.72-.92.72-2.56t-.7-2.56q-.68-.92-1.9-.92-.78 0-1.38.42t-.94 1.2q-.32.78-.32 1.86 0 1.06.32 1.84t.9 1.22q.579.42 1.38.42m11.726 1.72q-1.46 0-2.56-.62a4.35 4.35 0 0 1-1.72-1.78q-.62-1.18-.62-2.8 0-1.64.6-2.8.62-1.16 1.7-1.78 1.1-.62 2.48-.62 1.42 0 2.42.6t1.52 1.66q.54 1.04.54 2.4 0 .34-.02.62t-.04.48h-7.8v-1.48h6.84l-1.06.32q0-.94-.3-1.58-.28-.66-.82-1t-1.28-.34q-.84 0-1.46.42-.6.4-.92 1.2-.32.78-.32 1.92t.34 1.92.98 1.18 1.5.4q.92 0 1.52-.38.6-.4.94-1.08l1.72.76a3.75 3.75 0 0 1-.96 1.28q-.6.54-1.42.82a5.5 5.5 0 0 1-1.8.28m6.951-.2v-10h1.86l.16 1.9q.36-1 1.1-1.54.76-.56 1.84-.56.32 0 .58.06.28.04.48.18l-.28 1.84a1.8 1.8 0 0 0-.46-.12 3.4 3.4 0 0 0-.72-.06q-.58 0-1.14.34t-.92 1.02q-.34.66-.34 1.64v5.3zm13.236-6.44q0-.98-.52-1.54-.519-.56-1.44-.56-.879 0-1.5.42-.6.42-.88 1.36l-1.8-.7q.36-1.24 1.44-1.98 1.08-.76 2.84-.76 1.18 0 2.08.4a2.95 2.95 0 0 1 1.42 1.18q.52.8.52 1.98v4.44q0 .8.72.8.16 0 .34-.02a6 6 0 0 0 .32-.08l-.12 1.42q-.2.1-.5.16-.279.08-.66.08-.6 0-1.1-.22a1.8 1.8 0 0 1-.78-.7q-.28-.48-.28-1.2v-.22l.36-.02q-.14.8-.68 1.34-.519.54-1.26.8-.74.26-1.52.26-1.38 0-2.3-.68-.9-.68-.9-2.02 0-1.08.66-1.8.681-.74 2.04-1.02l3.78-.78v1.42l-2.68.58q-.82.16-1.24.48-.4.32-.4.94 0 .6.42.94t1.16.34q.46 0 .9-.12.441-.14.78-.42.36-.28.56-.7.22-.44.22-1.04zm8.08-6.52v9.92q0 .76.38 1.14.381.36 1.02.36.52 0 .88-.16.38-.18.68-.46l.44 1.52a3.3 3.3 0 0 1-1.1.62q-.64.22-1.4.22-1.32 0-2.2-.66-.86-.66-.86-2.22v-9.68zm3.24 2.96v1.68h-7.22V257zm4.206 0v10h-2.16v-10zm-1.02-1.64q-.72 0-1.12-.34-.38-.36-.38-1.02t.38-1q.4-.36 1.12-.36t1.1.36q.38.34.38 1t-.38 1.02q-.38.34-1.1.34m8.451 1.44q1.42 0 2.5.62 1.1.62 1.72 1.8.64 1.16.64 2.78t-.64 2.8a4.35 4.35 0 0 1-1.72 1.78q-1.08.62-2.5.62t-2.52-.62a4.34 4.34 0 0 1-1.72-1.78q-.62-1.18-.62-2.8t.62-2.78q.62-1.18 1.72-1.8t2.52-.62m0 1.68q-.84 0-1.44.42-.6.4-.94 1.18-.32.78-.32 1.92t.32 1.92q.34.78.94 1.2.6.4 1.44.4t1.44-.4q.6-.42.92-1.2.34-.8.34-1.92 0-1.14-.34-1.92-.32-.78-.92-1.18-.6-.42-1.44-.42m7.459 8.52v-10h1.9l.14 2.72-.28-.26q.38-1.36 1.34-2 .96-.66 2.24-.66 1.02 0 1.82.42.8.4 1.28 1.22t.48 2.06v6.5h-2.16v-5.86q0-1.42-.6-2-.58-.58-1.46-.58-.62 0-1.22.32-.579.3-.96.98-.36.68-.36 1.78V267zm17.612-6.44q0-.98-.52-1.54t-1.44-.56q-.88 0-1.5.42-.6.42-.88 1.36l-1.8-.7q.36-1.24 1.44-1.98 1.08-.76 2.84-.76 1.18 0 2.08.4a2.96 2.96 0 0 1 1.42 1.18q.52.8.52 1.98v4.44q0 .8.72.8.16 0 .34-.02.18-.04.32-.08l-.12 1.42q-.2.1-.5.16-.28.08-.66.08-.6 0-1.1-.22a1.8 1.8 0 0 1-.78-.7q-.28-.48-.28-1.2v-.22l.36-.02q-.14.8-.68 1.34-.52.54-1.26.8t-1.52.26q-1.38 0-2.3-.68-.9-.68-.9-2.02 0-1.08.66-1.8.68-.74 2.04-1.02l3.78-.78v1.42l-2.68.58q-.82.16-1.24.48-.4.32-.4.94 0 .6.42.94t1.16.34q.459 0 .9-.12.44-.14.78-.42.36-.28.56-.7.22-.44.22-1.04zm7.34-8.02v11.62q0 .68.2 1.02.22.34.8.34.32 0 .54-.04.219-.06.54-.18l-.22 1.54a2.7 2.7 0 0 1-.74.26q-.441.1-.84.1-1.401 0-1.92-.76-.52-.78-.52-2.08v-11.82zm14.103 1.06q1.74 0 3 .66 1.28.64 2.16 1.96l-1.36 1.4q-.72-1.16-1.68-1.68-.94-.52-2.22-.52-.92 0-1.52.26-.58.26-.88.7-.28.44-.28.98 0 .66.44 1.12.46.44 1.58.7l2.48.58q1.86.42 2.66 1.28.8.84.8 2.18 0 1.22-.64 2.12t-1.8 1.38q-1.14.48-2.64.48-1.34 0-2.46-.34a6.5 6.5 0 0 1-1.92-.98 6.5 6.5 0 0 1-1.34-1.44l1.38-1.5q.4.72 1.04 1.28.64.54 1.48.86.86.3 1.84.3.88 0 1.5-.22.64-.22.98-.66t.34-1.04-.4-1.04q-.38-.44-1.42-.68l-2.7-.62q-1.1-.26-1.88-.72t-1.18-1.14q-.4-.7-.4-1.62 0-1.14.6-2.04.62-.92 1.74-1.46 1.14-.54 2.7-.54m10.621.44v9.92q0 .76.38 1.14.38.36 1.02.36.52 0 .88-.16.38-.18.68-.46l.44 1.52a3.3 3.3 0 0 1-1.1.62q-.64.22-1.4.22-1.32 0-2.2-.66-.86-.66-.86-2.22v-9.68zm3.24 2.96v1.68h-7.22V257zm7.625 3.56q0-.98-.52-1.54-.519-.56-1.44-.56-.879 0-1.5.42-.6.42-.88 1.36l-1.8-.7q.36-1.24 1.44-1.98 1.08-.76 2.84-.76 1.18 0 2.08.4a2.95 2.95 0 0 1 1.42 1.18q.52.8.52 1.98v4.44q0 .8.72.8.16 0 .34-.02a6 6 0 0 0 .32-.08l-.12 1.42q-.2.1-.5.16-.279.08-.66.08-.6 0-1.1-.22a1.8 1.8 0 0 1-.78-.7q-.28-.48-.28-1.2v-.22l.36-.02q-.14.8-.68 1.34-.519.54-1.26.8-.74.26-1.52.26-1.38 0-2.3-.68-.9-.68-.9-2.02 0-1.08.66-1.8.681-.74 2.04-1.02l3.78-.78v1.42l-2.68.58q-.82.16-1.24.48-.4.32-.4.94 0 .6.42.94t1.16.34q.46 0 .9-.12.441-.14.78-.42.36-.28.56-.7.22-.44.22-1.04zm9.26-8.2q.62 0 1.1.16.501.14.78.36l-.38 1.5a1.6 1.6 0 0 0-.48-.22 2.1 2.1 0 0 0-.62-.08q-.78 0-1.24.4t-.46 1.28v1.46l.08.5V267h-2.16v-11.4q0-1.04.42-1.76a2.77 2.77 0 0 1 1.18-1.1q.76-.38 1.78-.38m1.8 4.64v1.68h-6.94V257zm5.837-4.64q.62 0 1.1.16.5.14.78.36l-.38 1.5a1.6 1.6 0 0 0-.48-.22 2.1 2.1 0 0 0-.62-.08q-.78 0-1.24.4t-.46 1.28v1.46l.08.5V267h-2.16v-11.4q0-1.04.42-1.76t1.18-1.1 1.78-.38m1.8 4.64v1.68h-6.94V257z"/><path stroke="#38CAF9" stroke-width="3" d="m163.5 122.999.016 31M163.516 207v27"/><rect width="327" height="55" y="154" fill="#14B1E7" rx="8"/><path fill="#fff" d="M30.64 184.48q-.58 1.82-2 2.78-1.42.94-3.32.94-1.86 0-3.22-.82t-2.1-2.34q-.74-1.54-.74-3.64t.74-3.62q.74-1.54 2.1-2.36t3.18-.82q1.3 0 2.32.38 1.04.36 1.76 1.1.72.72 1.08 1.84l-1.98.86q-.36-1.22-1.12-1.78t-1.96-.56q-1.16 0-2.04.58t-1.36 1.7q-.48 1.1-.48 2.68 0 1.56.46 2.68.46 1.1 1.32 1.7.88.58 2.08.58 1.18 0 2.04-.64t1.18-1.92zm3.365 3.7q-.68 0-1.1-.38-.4-.4-.4-1.02 0-.66.4-1.04.42-.4 1.1-.4t1.08.4q.42.38.42 1.04 0 .62-.42 1.02-.4.38-1.08.38m12.41-13.38v1.82h-4.38V188h-2.18v-11.38h-4.36v-1.82zm1.477 13.38q-.68 0-1.1-.38-.4-.4-.4-1.02 0-.66.4-1.04.42-.4 1.1-.4t1.08.4q.42.38.42 1.04 0 .62-.42 1.02-.4.38-1.08.38m14.72-3.7q-.58 1.82-2 2.78-1.42.94-3.32.94-1.86 0-3.22-.82-1.359-.82-2.1-2.34-.74-1.54-.74-3.64t.74-3.62q.741-1.54 2.1-2.36 1.36-.82 3.18-.82 1.3 0 2.32.38 1.04.36 1.76 1.1.72.72 1.08 1.84l-1.98.86q-.36-1.22-1.12-1.78t-1.96-.56q-1.16 0-2.04.58t-1.36 1.7q-.48 1.1-.48 2.68 0 1.56.46 2.68.46 1.1 1.32 1.7.88.58 2.08.58 1.18 0 2.04-.64t1.18-1.92zm3.366 3.7q-.68 0-1.1-.38-.4-.4-.4-1.02 0-.66.4-1.04.42-.4 1.1-.4t1.08.4q.42.38.42 1.04 0 .62-.42 1.02-.4.38-1.08.38M90.29 174.8V188h-1.98v-7.74l.14-3.5h-.04L84.551 188h-1.8l-3.88-11.24h-.02l.14 3.5V188h-1.98v-13.2h3.18l2.66 7.88.82 2.9h.04l.82-2.88 2.64-7.9zm8.934 6.76q0-.98-.52-1.54-.519-.56-1.44-.56-.879 0-1.5.42-.6.42-.88 1.36l-1.8-.7q.36-1.24 1.44-1.98 1.08-.76 2.84-.76 1.18 0 2.08.4a2.95 2.95 0 0 1 1.42 1.18q.52.8.52 1.98v4.44q0 .8.72.8.16 0 .34-.02a6 6 0 0 0 .32-.08l-.12 1.42q-.2.1-.5.16-.279.08-.66.08-.6 0-1.1-.22a1.8 1.8 0 0 1-.78-.7q-.28-.48-.28-1.2v-.22l.36-.02a2.44 2.44 0 0 1-.68 1.34q-.519.54-1.26.8-.74.26-1.52.26-1.38 0-2.3-.68-.9-.68-.9-2.02 0-1.08.66-1.8.681-.74 2.04-1.02l3.78-.78v1.42l-2.68.58q-.82.16-1.24.48-.4.32-.4.94 0 .6.42.94t1.16.34q.46 0 .9-.12.441-.14.78-.42.36-.28.56-.7.22-.44.22-1.04zm5.26 6.44v-10h1.9l.14 2.72-.28-.26q.38-1.36 1.34-2 .96-.66 2.24-.66 1.02 0 1.82.42.8.4 1.28 1.22t.48 2.06v6.5h-2.16v-5.86q0-1.42-.6-2-.58-.58-1.46-.58-.62 0-1.22.32-.579.3-.96.98-.36.68-.36 1.78V188zm17.611-6.44q0-.98-.52-1.54-.519-.56-1.44-.56-.879 0-1.5.42-.6.42-.88 1.36l-1.8-.7q.36-1.24 1.44-1.98 1.08-.76 2.84-.76 1.18 0 2.08.4a2.95 2.95 0 0 1 1.42 1.18q.52.8.52 1.98v4.44q0 .8.72.8.16 0 .34-.02a6 6 0 0 0 .32-.08l-.12 1.42q-.2.1-.5.16-.279.08-.66.08-.6 0-1.1-.22a1.8 1.8 0 0 1-.78-.7q-.28-.48-.28-1.2v-.22l.36-.02q-.14.8-.68 1.34-.519.54-1.26.8-.74.26-1.52.26-1.38 0-2.3-.68-.9-.68-.9-2.02 0-1.08.66-1.8.681-.74 2.04-1.02l3.78-.78v1.42l-2.68.58q-.82.16-1.24.48-.4.32-.4.94 0 .6.42.94t1.16.34q.46 0 .9-.12.441-.14.78-.42.36-.28.56-.7.22-.44.22-1.04zm13.86-5.7.3 1.64a.5.5 0 0 0-.14-.02h-.12q-.92 0-1.4.42t-.48 1.22l-.98-.46q0-.8.32-1.44.34-.64.92-1 .58-.38 1.4-.38h.08q.06 0 .1.02m-3.14 10.56q1.5 0 2.34.68t.84 1.86q0 1.06-.64 1.8-.64.76-1.76 1.14-1.1.4-2.54.4-2.42 0-3.58-.76-1.14-.74-1.14-1.88 0-.82.58-1.42.6-.58 1.92-.66l-.1.3q-.86-.18-1.38-.66-.5-.5-.5-1.34 0-.82.64-1.42.64-.62 1.82-.72l1.12.52h-.28q-.86.06-1.26.4-.38.32-.38.76 0 .5.36.76.36.24 1.02.24zm-1.74 4.32q1.041 0 1.74-.2t1.04-.56q.36-.34.36-.74a.9.9 0 0 0-.4-.78q-.38-.28-1.24-.28h-3.14q-.56 0-.96.3-.38.3-.38.82 0 .64.78 1.04.8.4 2.2.4m-.06-12.94q1.3 0 2.24.42.96.42 1.48 1.18.52.74.52 1.76t-.54 1.78q-.52.76-1.48 1.18-.939.4-2.22.4-2.06 0-3.16-.9-1.08-.92-1.08-2.46 0-1.02.52-1.76.52-.76 1.48-1.18t2.24-.42m0 1.44q-.9 0-1.5.52t-.6 1.4.6 1.4q.621.52 1.5.52.9 0 1.5-.52t.6-1.4-.6-1.4q-.579-.52-1.5-.52m11.147 8.96q-1.46 0-2.56-.62a4.35 4.35 0 0 1-1.72-1.78q-.62-1.18-.62-2.8 0-1.64.6-2.8.62-1.16 1.7-1.78 1.1-.62 2.48-.62 1.42 0 2.42.6t1.52 1.66q.54 1.04.54 2.4 0 .34-.02.62t-.04.48h-7.8v-1.48h6.84l-1.06.32q0-.94-.3-1.58-.28-.66-.82-1t-1.28-.34q-.84 0-1.46.42-.6.4-.92 1.2-.32.78-.32 1.92t.34 1.92.98 1.18 1.5.4q.92 0 1.52-.38.6-.4.94-1.08l1.72.76a3.75 3.75 0 0 1-.96 1.28q-.6.54-1.42.82a5.5 5.5 0 0 1-1.8.28m6.951-.2v-10h1.9l.1 1.78q.5-.98 1.38-1.48t1.9-.5q1.08 0 1.96.52.9.5 1.32 1.52.3-.68.84-1.12a3.8 3.8 0 0 1 1.24-.68q.68-.24 1.36-.24.96 0 1.76.4.82.4 1.32 1.22t.5 2.08v6.5h-2.16v-6.14q0-1.22-.58-1.76t-1.44-.54q-.68 0-1.26.34t-.92 1.02q-.34.66-.34 1.6V188h-2.16v-6.14q0-1.22-.6-1.76-.58-.54-1.44-.54-.58 0-1.18.32-.58.32-.96 1t-.38 1.76V188zm22.991.2q-1.46 0-2.56-.62a4.34 4.34 0 0 1-1.72-1.78q-.62-1.18-.62-2.8 0-1.64.6-2.8.62-1.16 1.7-1.78 1.1-.62 2.48-.62 1.42 0 2.42.6t1.52 1.66q.54 1.04.54 2.4 0 .34-.02.62t-.04.48h-7.8v-1.48h6.84l-1.06.32q0-.94-.3-1.58-.28-.66-.82-1t-1.28-.34q-.84 0-1.46.42-.6.4-.92 1.2-.32.78-.32 1.92t.34 1.92.98 1.18 1.5.4q.92 0 1.52-.38.6-.4.94-1.08l1.72.76q-.34.74-.96 1.28-.6.54-1.42.82a5.5 5.5 0 0 1-1.8.28m6.951-.2v-10h1.9l.14 2.72-.28-.26q.38-1.36 1.34-2 .96-.66 2.24-.66 1.02 0 1.82.42.8.4 1.28 1.22t.48 2.06v6.5h-2.16v-5.86q0-1.42-.6-2-.58-.58-1.46-.58-.62 0-1.22.32-.58.3-.96.98-.36.68-.36 1.78V188zm14.714-12.96v9.92q0 .76.38 1.14.38.36 1.02.36.52 0 .88-.16.38-.18.68-.46l.44 1.52a3.3 3.3 0 0 1-1.1.62q-.64.22-1.4.22-1.32 0-2.2-.66-.86-.66-.86-2.22v-9.68zm3.24 2.96v1.68h-7.22V178zm19.314 6.48q-.58 1.82-2 2.78-1.42.94-3.32.94-1.86 0-3.22-.82t-2.1-2.34q-.74-1.54-.74-3.64t.74-3.62q.74-1.54 2.1-2.36 1.359-.82 3.18-.82 1.3 0 2.32.38 1.04.36 1.76 1.1.72.72 1.08 1.84l-1.98.86q-.36-1.22-1.12-1.78t-1.96-.56q-1.161 0-2.04.58-.88.58-1.36 1.7-.48 1.1-.48 2.68 0 1.56.46 2.68.459 1.1 1.32 1.7.88.58 2.08.58 1.179 0 2.04-.64.86-.64 1.18-1.92zm6.58-6.68q1.42 0 2.5.62 1.1.62 1.72 1.8.64 1.16.64 2.78t-.64 2.8a4.34 4.34 0 0 1-1.72 1.78q-1.08.62-2.5.62t-2.52-.62a4.35 4.35 0 0 1-1.72-1.78q-.62-1.18-.62-2.8t.62-2.78q.62-1.18 1.72-1.8t2.52-.62m0 1.68q-.84 0-1.44.42-.6.4-.94 1.18-.32.78-.32 1.92t.32 1.92q.34.78.94 1.2.6.4 1.44.4t1.44-.4q.6-.42.92-1.2.34-.8.34-1.92 0-1.14-.34-1.92-.32-.78-.92-1.18-.6-.42-1.44-.42m7.46 8.52v-10h1.9l.1 1.78q.5-.98 1.38-1.48t1.9-.5q1.08 0 1.96.52.9.5 1.32 1.52.3-.68.84-1.12a3.8 3.8 0 0 1 1.24-.68q.68-.24 1.36-.24.96 0 1.76.4.82.4 1.32 1.22t.5 2.08v6.5h-2.16v-6.14q0-1.22-.58-1.76t-1.44-.54q-.68 0-1.26.34t-.92 1.02q-.34.66-.34 1.6V188h-2.16v-6.14q0-1.22-.6-1.76-.58-.54-1.44-.54-.58 0-1.18.32-.58.32-.96 1t-.38 1.76V188zm18.731 0v-10h1.9l.1 1.78q.5-.98 1.38-1.48t1.9-.5q1.08 0 1.96.52.9.5 1.32 1.52.3-.68.84-1.12a3.8 3.8 0 0 1 1.24-.68q.68-.24 1.36-.24.96 0 1.76.4.819.4 1.32 1.22.5.82.5 2.08v6.5h-2.16v-6.14q0-1.22-.58-1.76t-1.44-.54q-.681 0-1.26.34-.58.34-.92 1.02-.34.66-.34 1.6V188h-2.16v-6.14q0-1.22-.6-1.76-.58-.54-1.44-.54-.58 0-1.18.32-.58.32-.96 1t-.38 1.76V188zm20.89-10v10h-2.16v-10zm-1.02-1.64q-.72 0-1.12-.34-.38-.36-.38-1.02t.38-1q.4-.36 1.12-.36t1.1.36q.38.34.38 1t-.38 1.02q-.38.34-1.1.34m7.051-1.32v9.92q0 .76.38 1.14.381.36 1.02.36.52 0 .88-.16.38-.18.68-.46l.44 1.52a3.3 3.3 0 0 1-1.1.62q-.64.22-1.4.22-1.32 0-2.2-.66-.86-.66-.86-2.22v-9.68zm3.24 2.96v1.68h-7.22V178zm3.577-2.96v9.92q0 .76.38 1.14.38.36 1.02.36.52 0 .88-.16.38-.18.68-.46l.44 1.52a3.3 3.3 0 0 1-1.1.62q-.64.22-1.4.22-1.32 0-2.2-.66-.86-.66-.86-2.22v-9.68zm3.24 2.96v1.68h-7.22V178zm6.305 10.2q-1.46 0-2.56-.62a4.34 4.34 0 0 1-1.72-1.78q-.62-1.18-.62-2.8 0-1.64.6-2.8.62-1.16 1.7-1.78 1.1-.62 2.48-.62 1.42 0 2.42.6t1.52 1.66q.54 1.04.54 2.4 0 .34-.02.62t-.04.48h-7.8v-1.48h6.84l-1.06.32q0-.94-.3-1.58-.28-.66-.82-1t-1.28-.34q-.84 0-1.46.42-.6.4-.92 1.2-.32.78-.32 1.92t.34 1.92.98 1.18 1.5.4q.92 0 1.52-.38.6-.4.94-1.08l1.72.76q-.34.74-.96 1.28-.6.54-1.42.82a5.5 5.5 0 0 1-1.8.28m11.211 0q-1.46 0-2.56-.62a4.34 4.34 0 0 1-1.72-1.78q-.62-1.18-.62-2.8 0-1.64.6-2.8.62-1.16 1.7-1.78 1.1-.62 2.48-.62 1.42 0 2.42.6t1.52 1.66q.54 1.04.54 2.4 0 .34-.02.62t-.04.48h-7.8v-1.48h6.84l-1.06.32q0-.94-.3-1.58-.28-.66-.82-1t-1.28-.34q-.84 0-1.46.42-.6.4-.92 1.2-.32.78-.32 1.92t.34 1.92.98 1.18 1.5.4q.92 0 1.52-.38.6-.4.94-1.08l1.72.76q-.34.74-.96 1.28-.6.54-1.42.82a5.5 5.5 0 0 1-1.8.28"/><rect width="327" height="55" y="233" fill="#14B1E7" rx="8"/><path fill="#fff" d="M66.255 263.48q-.58 1.82-2 2.78-1.42.94-3.32.94-1.86 0-3.22-.82-1.359-.82-2.1-2.34-.74-1.54-.74-3.64t.74-3.62q.741-1.54 2.1-2.36 1.36-.82 3.18-.82 1.3 0 2.32.38 1.04.36 1.76 1.1.72.72 1.08 1.84l-1.98.86q-.36-1.22-1.12-1.78t-1.96-.56q-1.16 0-2.04.58t-1.36 1.7q-.48 1.1-.48 2.68 0 1.56.46 2.68.46 1.1 1.32 1.7.88.58 2.08.58 1.18 0 2.04-.64t1.18-1.92zm3.365 3.7q-.68 0-1.1-.38-.4-.4-.4-1.02 0-.66.4-1.04.42-.4 1.1-.4t1.08.4q.42.38.42 1.04 0 .62-.42 1.02-.399.38-1.08.38m12.41-13.38v1.82h-4.38V267h-2.18v-11.38h-4.36v-1.82zm1.477 13.38q-.68 0-1.1-.38-.4-.4-.4-1.02 0-.66.4-1.04.42-.4 1.1-.4t1.08.4q.42.38.42 1.04 0 .62-.42 1.02-.4.38-1.08.38m14.721-3.7q-.58 1.82-2 2.78-1.42.94-3.32.94-1.86 0-3.22-.82t-2.1-2.34q-.74-1.54-.74-3.64t.74-3.62q.74-1.54 2.1-2.36t3.18-.82q1.3 0 2.32.38 1.04.36 1.76 1.1.72.72 1.08 1.84l-1.98.86q-.36-1.22-1.12-1.78t-1.96-.56q-1.16 0-2.04.58t-1.36 1.7q-.48 1.1-.48 2.68 0 1.56.46 2.68.46 1.1 1.32 1.7.88.58 2.08.58 1.18 0 2.04-.64t1.18-1.92zm3.365 3.7q-.68 0-1.1-.38-.4-.4-.4-1.02 0-.66.4-1.04.42-.4 1.1-.4t1.08.4q.42.38.42 1.04 0 .62-.42 1.02-.4.38-1.08.38m16.394-13.58q1.88 0 3.24.82 1.359.82 2.1 2.34.74 1.52.74 3.64 0 2.1-.74 3.64-.741 1.52-2.1 2.34-1.36.82-3.24.82t-3.24-.82-2.1-2.34q-.74-1.54-.74-3.64 0-2.12.74-3.64t2.1-2.34 3.24-.82m0 1.84q-1.2 0-2.06.6-.861.58-1.32 1.68t-.46 2.68q0 1.56.46 2.68.459 1.1 1.32 1.7.86.58 2.06.58t2.04-.58q.86-.6 1.32-1.7.48-1.12.48-2.68 0-1.58-.48-2.68-.46-1.1-1.32-1.68-.84-.6-2.04-.6m8.774 15.76V257h1.92l.14 2.94-.26-.32q.3-1.26 1.24-2.04.96-.78 2.3-.78 1.2 0 2.16.62t1.5 1.78q.56 1.16.56 2.78 0 1.64-.56 2.82-.56 1.16-1.54 1.78-.96.62-2.18.62-1.26 0-2.14-.7a3.9 3.9 0 0 1-1.22-1.8l.24-.36v6.86zm4.76-5.72q1.22 0 1.92-.92.72-.92.72-2.56t-.7-2.56q-.68-.92-1.9-.92-.78 0-1.38.42t-.94 1.2q-.32.78-.32 1.86 0 1.06.32 1.84t.9 1.22q.579.42 1.38.42m11.726 1.72q-1.46 0-2.56-.62a4.35 4.35 0 0 1-1.72-1.78q-.62-1.18-.62-2.8 0-1.64.6-2.8.62-1.16 1.7-1.78 1.1-.62 2.48-.62 1.42 0 2.42.6t1.52 1.66q.54 1.04.54 2.4 0 .34-.02.62t-.04.48h-7.8v-1.48h6.84l-1.06.32q0-.94-.3-1.58-.28-.66-.82-1t-1.28-.34q-.84 0-1.46.42-.6.4-.92 1.2-.32.78-.32 1.92t.34 1.92.98 1.18 1.5.4q.92 0 1.52-.38.6-.4.94-1.08l1.72.76a3.75 3.75 0 0 1-.96 1.28q-.6.54-1.42.82a5.5 5.5 0 0 1-1.8.28m6.951-.2v-10h1.86l.16 1.9q.36-1 1.1-1.54.76-.56 1.84-.56.32 0 .58.06.28.04.48.18l-.28 1.84a1.8 1.8 0 0 0-.46-.12 3.4 3.4 0 0 0-.72-.06q-.58 0-1.14.34t-.92 1.02q-.34.66-.34 1.64v5.3zm13.236-6.44q0-.98-.52-1.54-.519-.56-1.44-.56-.879 0-1.5.42-.6.42-.88 1.36l-1.8-.7q.36-1.24 1.44-1.98 1.08-.76 2.84-.76 1.18 0 2.08.4a2.95 2.95 0 0 1 1.42 1.18q.52.8.52 1.98v4.44q0 .8.72.8.16 0 .34-.02a6 6 0 0 0 .32-.08l-.12 1.42q-.2.1-.5.16-.279.08-.66.08-.6 0-1.1-.22a1.8 1.8 0 0 1-.78-.7q-.28-.48-.28-1.2v-.22l.36-.02q-.14.8-.68 1.34-.519.54-1.26.8-.74.26-1.52.26-1.38 0-2.3-.68-.9-.68-.9-2.02 0-1.08.66-1.8.681-.74 2.04-1.02l3.78-.78v1.42l-2.68.58q-.82.16-1.24.48-.4.32-.4.94 0 .6.42.94t1.16.34q.46 0 .9-.12.441-.14.78-.42.36-.28.56-.7.22-.44.22-1.04zm8.08-6.52v9.92q0 .76.38 1.14.381.36 1.02.36.52 0 .88-.16.38-.18.68-.46l.44 1.52a3.3 3.3 0 0 1-1.1.62q-.64.22-1.4.22-1.32 0-2.2-.66-.86-.66-.86-2.22v-9.68zm3.24 2.96v1.68h-7.22V257zm4.206 0v10h-2.16v-10zm-1.02-1.64q-.72 0-1.12-.34-.38-.36-.38-1.02t.38-1q.4-.36 1.12-.36t1.1.36q.38.34.38 1t-.38 1.02q-.38.34-1.1.34m8.451 1.44q1.42 0 2.5.62 1.1.62 1.72 1.8.64 1.16.64 2.78t-.64 2.8a4.35 4.35 0 0 1-1.72 1.78q-1.08.62-2.5.62t-2.52-.62a4.34 4.34 0 0 1-1.72-1.78q-.62-1.18-.62-2.8t.62-2.78q.62-1.18 1.72-1.8t2.52-.62m0 1.68q-.84 0-1.44.42-.6.4-.94 1.18-.32.78-.32 1.92t.32 1.92q.34.78.94 1.2.6.4 1.44.4t1.44-.4q.6-.42.92-1.2.34-.8.34-1.92 0-1.14-.34-1.92-.32-.78-.92-1.18-.6-.42-1.44-.42m7.459 8.52v-10h1.9l.14 2.72-.28-.26q.38-1.36 1.34-2 .96-.66 2.24-.66 1.02 0 1.82.42.8.4 1.28 1.22t.48 2.06v6.5h-2.16v-5.86q0-1.42-.6-2-.58-.58-1.46-.58-.62 0-1.22.32-.579.3-.96.98-.36.68-.36 1.78V267zm17.612-6.44q0-.98-.52-1.54t-1.44-.56q-.88 0-1.5.42-.6.42-.88 1.36l-1.8-.7q.36-1.24 1.44-1.98 1.08-.76 2.84-.76 1.18 0 2.08.4a2.96 2.96 0 0 1 1.42 1.18q.52.8.52 1.98v4.44q0 .8.72.8.16 0 .34-.02.18-.04.32-.08l-.12 1.42q-.2.1-.5.16-.28.08-.66.08-.6 0-1.1-.22a1.8 1.8 0 0 1-.78-.7q-.28-.48-.28-1.2v-.22l.36-.02q-.14.8-.68 1.34-.52.54-1.26.8t-1.52.26q-1.38 0-2.3-.68-.9-.68-.9-2.02 0-1.08.66-1.8.68-.74 2.04-1.02l3.78-.78v1.42l-2.68.58q-.82.16-1.24.48-.4.32-.4.94 0 .6.42.94t1.16.34q.459 0 .9-.12.44-.14.78-.42.36-.28.56-.7.22-.44.22-1.04zm7.34-8.02v11.62q0 .68.2 1.02.22.34.8.34.32 0 .54-.04.219-.06.54-.18l-.22 1.54a2.7 2.7 0 0 1-.74.26q-.441.1-.84.1-1.401 0-1.92-.76-.52-.78-.52-2.08v-11.82zm14.103 1.06q1.74 0 3 .66 1.28.64 2.16 1.96l-1.36 1.4q-.72-1.16-1.68-1.68-.94-.52-2.22-.52-.92 0-1.52.26-.58.26-.88.7-.28.44-.28.98 0 .66.44 1.12.46.44 1.58.7l2.48.58q1.86.42 2.66 1.28.8.84.8 2.18 0 1.22-.64 2.12t-1.8 1.38q-1.14.48-2.64.48-1.34 0-2.46-.34a6.5 6.5 0 0 1-1.92-.98 6.5 6.5 0 0 1-1.34-1.44l1.38-1.5q.4.72 1.04 1.28.64.54 1.48.86.86.3 1.84.3.88 0 1.5-.22.64-.22.98-.66t.34-1.04-.4-1.04q-.38-.44-1.42-.68l-2.7-.62q-1.1-.26-1.88-.72t-1.18-1.14q-.4-.7-.4-1.62 0-1.14.6-2.04.62-.92 1.74-1.46 1.14-.54 2.7-.54m10.621.44v9.92q0 .76.38 1.14.38.36 1.02.36.52 0 .88-.16.38-.18.68-.46l.44 1.52a3.3 3.3 0 0 1-1.1.62q-.64.22-1.4.22-1.32 0-2.2-.66-.86-.66-.86-2.22v-9.68zm3.24 2.96v1.68h-7.22V257zm7.625 3.56q0-.98-.52-1.54-.519-.56-1.44-.56-.879 0-1.5.42-.6.42-.88 1.36l-1.8-.7q.36-1.24 1.44-1.98 1.08-.76 2.84-.76 1.18 0 2.08.4a2.95 2.95 0 0 1 1.42 1.18q.52.8.52 1.98v4.44q0 .8.72.8.16 0 .34-.02a6 6 0 0 0 .32-.08l-.12 1.42q-.2.1-.5.16-.279.08-.66.08-.6 0-1.1-.22a1.8 1.8 0 0 1-.78-.7q-.28-.48-.28-1.2v-.22l.36-.02q-.14.8-.68 1.34-.519.54-1.26.8-.74.26-1.52.26-1.38 0-2.3-.68-.9-.68-.9-2.02 0-1.08.66-1.8.681-.74 2.04-1.02l3.78-.78v1.42l-2.68.58q-.82.16-1.24.48-.4.32-.4.94 0 .6.42.94t1.16.34q.46 0 .9-.12.441-.14.78-.42.36-.28.56-.7.22-.44.22-1.04zm9.26-8.2q.62 0 1.1.16.501.14.78.36l-.38 1.5a1.6 1.6 0 0 0-.48-.22 2.1 2.1 0 0 0-.62-.08q-.78 0-1.24.4t-.46 1.28v1.46l.08.5V267h-2.16v-11.4q0-1.04.42-1.76a2.77 2.77 0 0 1 1.18-1.1q.76-.38 1.78-.38m1.8 4.64v1.68h-6.94V257zm5.837-4.64q.62 0 1.1.16.5.14.78.36l-.38 1.5a1.6 1.6 0 0 0-.48-.22 2.1 2.1 0 0 0-.62-.08q-.78 0-1.24.4t-.46 1.28v1.46l.08.5V267h-2.16v-11.4q0-1.04.42-1.76t1.18-1.1 1.78-.38m1.8 4.64v1.68h-6.94V257z"/><path stroke="#38CAF9" stroke-width="3" d="m857.516 126.001-.018 28M857.516 207v27"/><rect width="327" height="55" x="694" y="154" fill="#14B1E7" rx="8"/><path fill="#fff" d="M724.64 184.48q-.58 1.82-2 2.78-1.42.94-3.32.94-1.86 0-3.22-.82t-2.1-2.34q-.74-1.54-.74-3.64t.74-3.62q.74-1.54 2.1-2.36t3.18-.82q1.3 0 2.32.38 1.04.36 1.76 1.1.72.72 1.08 1.84l-1.98.86q-.36-1.22-1.12-1.78t-1.96-.56q-1.16 0-2.04.58t-1.36 1.7q-.48 1.1-.48 2.68 0 1.56.46 2.68.46 1.1 1.32 1.7.88.58 2.08.58 1.18 0 2.04-.64t1.18-1.92zm3.365 3.7q-.68 0-1.1-.38-.4-.4-.4-1.02 0-.66.4-1.04.42-.4 1.1-.4t1.08.4q.42.38.42 1.04 0 .62-.42 1.02-.4.38-1.08.38m12.411-13.38v1.82h-4.38V188h-2.18v-11.38h-4.36v-1.82zm1.476 13.38q-.68 0-1.1-.38-.4-.4-.4-1.02 0-.66.4-1.04.42-.4 1.1-.4t1.08.4q.42.38.42 1.04 0 .62-.42 1.02-.4.38-1.08.38m14.721-3.7q-.58 1.82-2 2.78-1.42.94-3.32.94-1.86 0-3.22-.82t-2.1-2.34q-.74-1.54-.74-3.64t.74-3.62q.74-1.54 2.1-2.36 1.359-.82 3.18-.82 1.3 0 2.32.38 1.04.36 1.76 1.1.72.72 1.08 1.84l-1.98.86q-.36-1.22-1.12-1.78t-1.96-.56q-1.161 0-2.04.58-.88.58-1.36 1.7-.48 1.1-.48 2.68 0 1.56.46 2.68.459 1.1 1.32 1.7.88.58 2.08.58 1.179 0 2.04-.64.86-.64 1.18-1.92zm3.365 3.7q-.68 0-1.1-.38-.4-.4-.4-1.02 0-.66.4-1.04.42-.4 1.1-.4t1.08.4q.42.38.42 1.04 0 .62-.42 1.02-.4.38-1.08.38m24.313-13.38V188h-1.98v-7.74l.14-3.5h-.04l-3.86 11.24h-1.8l-3.88-11.24h-.02l.14 3.5V188h-1.98v-13.2h3.18l2.66 7.88.82 2.9h.04l.82-2.88 2.64-7.9zm8.934 6.76q0-.98-.52-1.54-.519-.56-1.44-.56-.879 0-1.5.42-.6.42-.88 1.36l-1.8-.7q.36-1.24 1.44-1.98 1.08-.76 2.84-.76 1.18 0 2.08.4a2.95 2.95 0 0 1 1.42 1.18q.52.8.52 1.98v4.44q0 .8.72.8.16 0 .34-.02a6 6 0 0 0 .32-.08l-.12 1.42q-.2.1-.5.16-.279.08-.66.08-.6 0-1.1-.22a1.8 1.8 0 0 1-.78-.7q-.28-.48-.28-1.2v-.22l.36-.02q-.14.8-.68 1.34-.519.54-1.26.8-.74.26-1.52.26-1.38 0-2.3-.68-.9-.68-.9-2.02 0-1.08.66-1.8.681-.74 2.04-1.02l3.78-.78v1.42l-2.68.58q-.82.16-1.24.48-.4.32-.4.94 0 .6.42.94t1.16.34q.46 0 .9-.12.441-.14.78-.42.36-.28.56-.7.22-.44.22-1.04zm5.26 6.44v-10h1.9l.14 2.72-.28-.26q.38-1.36 1.34-2 .96-.66 2.24-.66 1.02 0 1.82.42.8.4 1.28 1.22t.48 2.06v6.5h-2.16v-5.86q0-1.42-.6-2-.58-.58-1.46-.58-.62 0-1.22.32-.579.3-.96.98-.36.68-.36 1.78V188zm17.611-6.44q0-.98-.52-1.54-.519-.56-1.44-.56-.879 0-1.5.42-.6.42-.88 1.36l-1.8-.7q.36-1.24 1.44-1.98 1.08-.76 2.84-.76 1.18 0 2.08.4a2.95 2.95 0 0 1 1.42 1.18q.52.8.52 1.98v4.44q0 .8.72.8.16 0 .34-.02a6 6 0 0 0 .32-.08l-.12 1.42q-.2.1-.5.16-.279.08-.66.08-.6 0-1.1-.22a1.8 1.8 0 0 1-.78-.7q-.28-.48-.28-1.2v-.22l.36-.02q-.14.8-.68 1.34-.519.54-1.26.8-.74.26-1.52.26-1.38 0-2.3-.68-.9-.68-.9-2.02 0-1.08.66-1.8.681-.74 2.04-1.02l3.78-.78v1.42l-2.68.58q-.82.16-1.24.48-.4.32-.4.94 0 .6.42.94t1.16.34q.46 0 .9-.12.441-.14.78-.42.36-.28.56-.7.22-.44.22-1.04zm13.86-5.7.3 1.64a.5.5 0 0 0-.14-.02h-.12q-.92 0-1.4.42t-.48 1.22l-.98-.46q0-.8.32-1.44.34-.64.92-1 .58-.38 1.4-.38h.08q.06 0 .1.02m-3.14 10.56q1.5 0 2.34.68t.84 1.86q0 1.06-.64 1.8-.64.76-1.76 1.14-1.1.4-2.54.4-2.42 0-3.58-.76-1.14-.74-1.14-1.88 0-.82.58-1.42.6-.58 1.92-.66l-.1.3q-.86-.18-1.38-.66-.5-.5-.5-1.34 0-.82.64-1.42.64-.62 1.82-.72l1.12.52h-.28q-.86.06-1.26.4-.38.32-.38.76 0 .5.36.76.36.24 1.02.24zm-1.74 4.32q1.041 0 1.74-.2t1.04-.56q.36-.34.36-.74a.9.9 0 0 0-.4-.78q-.38-.28-1.24-.28h-3.14q-.56 0-.96.3-.38.3-.38.82 0 .64.78 1.04.8.4 2.2.4m-.06-12.94q1.3 0 2.24.42.96.42 1.48 1.18.52.74.52 1.76t-.54 1.78q-.52.76-1.48 1.18-.939.4-2.22.4-2.06 0-3.16-.9-1.08-.92-1.08-2.46 0-1.02.52-1.76.52-.76 1.48-1.18t2.24-.42m0 1.44q-.9 0-1.5.52t-.6 1.4.6 1.4q.621.52 1.5.52.9 0 1.5-.52t.6-1.4-.6-1.4q-.579-.52-1.5-.52m11.147 8.96q-1.46 0-2.56-.62a4.35 4.35 0 0 1-1.72-1.78q-.62-1.18-.62-2.8 0-1.64.6-2.8.62-1.16 1.7-1.78 1.1-.62 2.48-.62 1.42 0 2.42.6t1.52 1.66q.54 1.04.54 2.4 0 .34-.02.62t-.04.48h-7.8v-1.48h6.84l-1.06.32q0-.94-.3-1.58-.28-.66-.82-1t-1.28-.34q-.84 0-1.46.42-.6.4-.92 1.2-.32.78-.32 1.92t.34 1.92.98 1.18 1.5.4q.92 0 1.52-.38.6-.4.94-1.08l1.72.76a3.75 3.75 0 0 1-.96 1.28q-.6.54-1.42.82a5.5 5.5 0 0 1-1.8.28m6.951-.2v-10h1.9l.1 1.78q.5-.98 1.38-1.48t1.9-.5q1.08 0 1.96.52.9.5 1.32 1.52.3-.68.84-1.12a3.8 3.8 0 0 1 1.24-.68q.68-.24 1.36-.24.96 0 1.76.4.82.4 1.32 1.22t.5 2.08v6.5h-2.16v-6.14q0-1.22-.58-1.76t-1.44-.54q-.68 0-1.26.34t-.92 1.02q-.34.66-.34 1.6V188h-2.16v-6.14q0-1.22-.6-1.76-.58-.54-1.44-.54-.58 0-1.18.32-.58.32-.96 1t-.38 1.76V188zm22.991.2q-1.46 0-2.56-.62a4.34 4.34 0 0 1-1.72-1.78q-.62-1.18-.62-2.8 0-1.64.6-2.8.62-1.16 1.7-1.78 1.1-.62 2.48-.62 1.42 0 2.42.6t1.52 1.66q.54 1.04.54 2.4 0 .34-.02.62t-.04.48h-7.8v-1.48h6.84l-1.06.32q0-.94-.3-1.58-.28-.66-.82-1t-1.28-.34q-.84 0-1.46.42-.6.4-.92 1.2-.32.78-.32 1.92t.34 1.92.98 1.18 1.5.4q.92 0 1.52-.38.6-.4.94-1.08l1.72.76q-.34.74-.96 1.28-.6.54-1.42.82a5.5 5.5 0 0 1-1.8.28m6.951-.2v-10h1.9l.14 2.72-.28-.26q.38-1.36 1.34-2 .96-.66 2.24-.66 1.02 0 1.82.42.8.4 1.28 1.22t.48 2.06v6.5h-2.16v-5.86q0-1.42-.6-2-.58-.58-1.46-.58-.62 0-1.22.32-.58.3-.96.98-.36.68-.36 1.78V188zm14.714-12.96v9.92q0 .76.38 1.14.38.36 1.02.36.52 0 .88-.16.38-.18.68-.46l.44 1.52a3.3 3.3 0 0 1-1.1.62q-.64.22-1.4.22-1.32 0-2.2-.66-.86-.66-.86-2.22v-9.68zm3.24 2.96v1.68h-7.22V178zm19.314 6.48q-.58 1.82-2 2.78-1.42.94-3.32.94-1.86 0-3.22-.82t-2.1-2.34q-.74-1.54-.74-3.64t.74-3.62q.74-1.54 2.1-2.36 1.359-.82 3.18-.82 1.3 0 2.32.38 1.04.36 1.76 1.1.72.72 1.08 1.84l-1.98.86q-.36-1.22-1.12-1.78t-1.96-.56q-1.161 0-2.04.58-.88.58-1.36 1.7-.48 1.1-.48 2.68 0 1.56.46 2.68.459 1.1 1.32 1.7.88.58 2.08.58 1.179 0 2.04-.64.86-.64 1.18-1.92zm6.58-6.68q1.42 0 2.5.62 1.1.62 1.72 1.8.64 1.16.64 2.78t-.64 2.8a4.34 4.34 0 0 1-1.72 1.78q-1.08.62-2.5.62t-2.52-.62a4.35 4.35 0 0 1-1.72-1.78q-.62-1.18-.62-2.8t.62-2.78q.62-1.18 1.72-1.8t2.52-.62m0 1.68q-.84 0-1.44.42-.6.4-.94 1.18-.32.78-.32 1.92t.32 1.92q.34.78.94 1.2.6.4 1.44.4t1.44-.4q.6-.42.92-1.2.34-.8.34-1.92 0-1.14-.34-1.92-.32-.78-.92-1.18-.6-.42-1.44-.42m7.46 8.52v-10h1.9l.1 1.78q.5-.98 1.38-1.48t1.9-.5q1.08 0 1.96.52.9.5 1.32 1.52.3-.68.84-1.12a3.8 3.8 0 0 1 1.24-.68q.68-.24 1.36-.24.96 0 1.76.4.82.4 1.32 1.22t.5 2.08v6.5h-2.16v-6.14q0-1.22-.58-1.76t-1.44-.54q-.68 0-1.26.34t-.92 1.02q-.34.66-.34 1.6V188h-2.16v-6.14q0-1.22-.6-1.76-.58-.54-1.44-.54-.58 0-1.18.32-.58.32-.96 1t-.38 1.76V188zm18.731 0v-10h1.9l.1 1.78q.5-.98 1.38-1.48t1.9-.5q1.08 0 1.96.52.9.5 1.32 1.52.3-.68.84-1.12a3.8 3.8 0 0 1 1.24-.68q.68-.24 1.36-.24.96 0 1.76.4.819.4 1.32 1.22.5.82.5 2.08v6.5h-2.16v-6.14q0-1.22-.58-1.76t-1.44-.54q-.681 0-1.26.34-.58.34-.92 1.02-.34.66-.34 1.6V188h-2.16v-6.14q0-1.22-.6-1.76-.58-.54-1.44-.54-.58 0-1.18.32-.58.32-.96 1t-.38 1.76V188zm20.89-10v10h-2.16v-10zm-1.02-1.64q-.72 0-1.12-.34-.38-.36-.38-1.02t.38-1q.4-.36 1.12-.36t1.1.36q.38.34.38 1t-.38 1.02q-.38.34-1.1.34m7.051-1.32v9.92q0 .76.38 1.14.381.36 1.02.36.52 0 .88-.16.38-.18.68-.46l.44 1.52a3.3 3.3 0 0 1-1.1.62q-.64.22-1.4.22-1.32 0-2.2-.66-.86-.66-.86-2.22v-9.68zm3.24 2.96v1.68h-7.22V178zm3.577-2.96v9.92q0 .76.38 1.14.38.36 1.02.36.52 0 .88-.16.38-.18.68-.46l.44 1.52a3.3 3.3 0 0 1-1.1.62q-.64.22-1.4.22-1.32 0-2.2-.66-.86-.66-.86-2.22v-9.68zm3.24 2.96v1.68h-7.22V178zm6.305 10.2q-1.46 0-2.56-.62a4.34 4.34 0 0 1-1.72-1.78q-.62-1.18-.62-2.8 0-1.64.6-2.8.62-1.16 1.7-1.78 1.1-.62 2.48-.62 1.42 0 2.42.6t1.52 1.66q.54 1.04.54 2.4 0 .34-.02.62t-.04.48h-7.8v-1.48h6.84l-1.06.32q0-.94-.3-1.58-.28-.66-.82-1t-1.28-.34q-.84 0-1.46.42-.6.4-.92 1.2-.32.78-.32 1.92t.34 1.92.98 1.18 1.5.4q.92 0 1.52-.38.6-.4.94-1.08l1.72.76q-.34.74-.96 1.28-.6.54-1.42.82a5.5 5.5 0 0 1-1.8.28m11.211 0q-1.46 0-2.56-.62a4.34 4.34 0 0 1-1.72-1.78q-.62-1.18-.62-2.8 0-1.64.6-2.8.62-1.16 1.7-1.78 1.1-.62 2.48-.62 1.42 0 2.42.6c.671.4 1.171.953 1.521 1.66q.54 1.04.54 2.4c0 .227-.01.433-.02.62s-.03.347-.04.48h-7.801v-1.48h6.841l-1.061.32q0-.94-.3-1.58-.28-.66-.82-1t-1.28-.34q-.84 0-1.46.42-.6.4-.92 1.2-.32.78-.32 1.92t.34 1.92.98 1.18 1.5.4q.92 0 1.52-.38.6-.4.941-1.08l1.72.76q-.345.74-.96 1.28-.6.54-1.421.82a5.5 5.5 0 0 1-1.8.28"/><rect width="327" height="55" x="694" y="233" fill="#14B1E7" rx="8"/><path fill="#fff" d="M760.255 263.48q-.58 1.82-2 2.78-1.42.94-3.32.94-1.86 0-3.22-.82-1.359-.82-2.1-2.34-.74-1.54-.74-3.64t.74-3.62q.741-1.54 2.1-2.36 1.36-.82 3.18-.82 1.3 0 2.32.38 1.04.36 1.76 1.1.72.72 1.08 1.84l-1.98.86q-.36-1.22-1.12-1.78t-1.96-.56q-1.16 0-2.04.58t-1.36 1.7q-.48 1.1-.48 2.68 0 1.56.46 2.68.46 1.1 1.32 1.7.88.58 2.08.58 1.18 0 2.04-.64t1.18-1.92zm3.365 3.7q-.68 0-1.1-.38-.4-.4-.4-1.02 0-.66.4-1.04.42-.4 1.1-.4t1.08.4q.42.38.42 1.04 0 .62-.42 1.02-.399.38-1.08.38m12.411-13.38v1.82h-4.38V267h-2.18v-11.38h-4.36v-1.82zm1.476 13.38q-.68 0-1.1-.38-.4-.4-.4-1.02 0-.66.4-1.04.42-.4 1.1-.4t1.08.4q.42.38.42 1.04 0 .62-.42 1.02-.4.38-1.08.38m14.721-3.7q-.58 1.82-2 2.78-1.42.94-3.32.94-1.86 0-3.22-.82t-2.1-2.34q-.74-1.54-.74-3.64t.74-3.62q.74-1.54 2.1-2.36t3.18-.82q1.3 0 2.32.38 1.04.36 1.76 1.1.72.72 1.08 1.84l-1.98.86q-.36-1.22-1.12-1.78t-1.96-.56q-1.16 0-2.04.58t-1.36 1.7q-.48 1.1-.48 2.68 0 1.56.46 2.68.46 1.1 1.32 1.7.88.58 2.08.58 1.18 0 2.04-.64t1.18-1.92zm3.365 3.7q-.68 0-1.1-.38-.4-.4-.4-1.02 0-.66.4-1.04.42-.4 1.1-.4t1.08.4q.42.38.42 1.04 0 .62-.42 1.02-.4.38-1.08.38m16.394-13.58q1.88 0 3.24.82 1.359.82 2.1 2.34.74 1.52.74 3.64 0 2.1-.74 3.64-.741 1.52-2.1 2.34-1.36.82-3.24.82t-3.24-.82-2.1-2.34q-.74-1.54-.74-3.64 0-2.12.74-3.64t2.1-2.34 3.24-.82m0 1.84q-1.2 0-2.06.6-.861.58-1.32 1.68t-.46 2.68q0 1.56.46 2.68.459 1.1 1.32 1.7.86.58 2.06.58t2.04-.58q.86-.6 1.32-1.7.48-1.12.48-2.68 0-1.58-.48-2.68-.46-1.1-1.32-1.68-.84-.6-2.04-.6m8.774 15.76V257h1.92l.14 2.94-.26-.32q.3-1.26 1.24-2.04.96-.78 2.3-.78 1.2 0 2.16.62t1.5 1.78q.56 1.16.56 2.78 0 1.64-.56 2.82-.56 1.16-1.54 1.78-.96.62-2.18.62-1.26 0-2.14-.7a3.9 3.9 0 0 1-1.22-1.8l.24-.36v6.86zm4.76-5.72q1.22 0 1.92-.92.72-.92.72-2.56t-.7-2.56q-.68-.92-1.9-.92-.78 0-1.38.42t-.94 1.2q-.32.78-.32 1.86 0 1.06.32 1.84t.9 1.22q.579.42 1.38.42m11.726 1.72q-1.46 0-2.56-.62a4.35 4.35 0 0 1-1.72-1.78q-.62-1.18-.62-2.8 0-1.64.6-2.8.62-1.16 1.7-1.78 1.1-.62 2.48-.62 1.42 0 2.42.6t1.52 1.66q.54 1.04.54 2.4 0 .34-.02.62t-.04.48h-7.8v-1.48h6.84l-1.06.32q0-.94-.3-1.58-.28-.66-.82-1t-1.28-.34q-.84 0-1.46.42-.6.4-.92 1.2-.32.78-.32 1.92t.34 1.92.98 1.18 1.5.4q.92 0 1.52-.38.6-.4.94-1.08l1.72.76a3.75 3.75 0 0 1-.96 1.28q-.6.54-1.42.82a5.5 5.5 0 0 1-1.8.28m6.951-.2v-10h1.86l.16 1.9q.36-1 1.1-1.54.76-.56 1.84-.56.32 0 .58.06.28.04.48.18l-.28 1.84a1.8 1.8 0 0 0-.46-.12 3.4 3.4 0 0 0-.72-.06q-.58 0-1.14.34t-.92 1.02q-.34.66-.34 1.64v5.3zm13.236-6.44q0-.98-.52-1.54-.519-.56-1.44-.56-.879 0-1.5.42-.6.42-.88 1.36l-1.8-.7q.36-1.24 1.44-1.98 1.08-.76 2.84-.76 1.18 0 2.08.4a2.95 2.95 0 0 1 1.42 1.18q.52.8.52 1.98v4.44q0 .8.72.8.16 0 .34-.02a6 6 0 0 0 .32-.08l-.12 1.42q-.2.1-.5.16-.279.08-.66.08-.6 0-1.1-.22a1.8 1.8 0 0 1-.78-.7q-.28-.48-.28-1.2v-.22l.36-.02q-.14.8-.68 1.34-.519.54-1.26.8-.74.26-1.52.26-1.38 0-2.3-.68-.9-.68-.9-2.02 0-1.08.66-1.8.681-.74 2.04-1.02l3.78-.78v1.42l-2.68.58q-.82.16-1.24.48-.4.32-.4.94 0 .6.42.94t1.16.34q.46 0 .9-.12.441-.14.78-.42.36-.28.56-.7.22-.44.22-1.04zm8.08-6.52v9.92q0 .76.38 1.14.381.36 1.02.36.52 0 .88-.16.38-.18.68-.46l.44 1.52a3.3 3.3 0 0 1-1.1.62q-.64.22-1.4.22-1.32 0-2.2-.66-.86-.66-.86-2.22v-9.68zm3.24 2.96v1.68h-7.22V257zm4.206 0v10h-2.16v-10zm-1.02-1.64q-.72 0-1.12-.34-.38-.36-.38-1.02t.38-1q.4-.36 1.12-.36t1.1.36q.38.34.38 1t-.38 1.02q-.38.34-1.1.34m8.451 1.44q1.42 0 2.5.62 1.1.62 1.72 1.8.64 1.16.64 2.78t-.64 2.8a4.35 4.35 0 0 1-1.72 1.78q-1.08.62-2.5.62t-2.52-.62a4.34 4.34 0 0 1-1.72-1.78q-.62-1.18-.62-2.8t.62-2.78q.62-1.18 1.72-1.8t2.52-.62m0 1.68q-.84 0-1.44.42-.6.4-.94 1.18-.32.78-.32 1.92t.32 1.92q.34.78.94 1.2.6.4 1.44.4t1.44-.4q.6-.42.92-1.2.34-.8.34-1.92 0-1.14-.34-1.92-.32-.78-.92-1.18-.6-.42-1.44-.42m7.459 8.52v-10h1.9l.14 2.72-.28-.26q.38-1.36 1.34-2 .96-.66 2.24-.66 1.02 0 1.82.42.8.4 1.28 1.22t.48 2.06v6.5h-2.16v-5.86q0-1.42-.6-2-.58-.58-1.46-.58-.62 0-1.22.32-.579.3-.96.98-.36.68-.36 1.78V267zm17.612-6.44q0-.98-.52-1.54t-1.44-.56q-.88 0-1.5.42-.6.42-.88 1.36l-1.8-.7q.36-1.24 1.44-1.98 1.08-.76 2.84-.76 1.18 0 2.08.4a2.96 2.96 0 0 1 1.42 1.18q.52.8.52 1.98v4.44q0 .8.72.8.16 0 .34-.02.18-.04.32-.08l-.12 1.42q-.2.1-.5.16-.28.08-.66.08-.6 0-1.1-.22a1.8 1.8 0 0 1-.78-.7q-.28-.48-.28-1.2v-.22l.36-.02q-.14.8-.68 1.34-.52.54-1.26.8t-1.52.26q-1.38 0-2.3-.68-.9-.68-.9-2.02 0-1.08.66-1.8.68-.74 2.04-1.02l3.78-.78v1.42l-2.68.58q-.82.16-1.24.48-.4.32-.4.94 0 .6.42.94t1.16.34q.459 0 .9-.12.44-.14.78-.42.36-.28.56-.7.22-.44.22-1.04zm7.34-8.02v11.62q0 .68.2 1.02.22.34.8.34.32 0 .54-.04.219-.06.54-.18l-.22 1.54a2.7 2.7 0 0 1-.74.26q-.441.1-.84.1-1.401 0-1.92-.76-.52-.78-.52-2.08v-11.82zm14.103 1.06q1.74 0 3 .66 1.28.64 2.16 1.96l-1.36 1.4q-.72-1.16-1.68-1.68-.94-.52-2.22-.52-.92 0-1.52.26-.58.26-.88.7-.28.44-.28.98 0 .66.44 1.12.46.44 1.58.7l2.48.58q1.86.42 2.66 1.28.8.84.8 2.18 0 1.22-.64 2.12t-1.8 1.38q-1.14.48-2.64.48-1.34 0-2.46-.34a6.5 6.5 0 0 1-1.92-.98 6.5 6.5 0 0 1-1.34-1.44l1.38-1.5q.4.72 1.04 1.28.64.54 1.48.86.86.3 1.84.3.88 0 1.5-.22.64-.22.98-.66t.34-1.04-.4-1.04q-.38-.44-1.42-.68l-2.7-.62q-1.1-.26-1.88-.72t-1.18-1.14q-.4-.7-.4-1.62 0-1.14.6-2.04.62-.92 1.74-1.46 1.14-.54 2.7-.54m10.621.44v9.92q0 .76.38 1.14.38.36 1.02.36.52 0 .88-.16.38-.18.68-.46l.44 1.52a3.3 3.3 0 0 1-1.1.62q-.64.22-1.4.22-1.32 0-2.2-.66-.86-.66-.86-2.22v-9.68zm3.24 2.96v1.68h-7.22V257zm7.625 3.56q0-.98-.52-1.54-.519-.56-1.44-.56-.879 0-1.5.42-.6.42-.88 1.36l-1.8-.7q.36-1.24 1.44-1.98 1.08-.76 2.84-.76 1.18 0 2.08.4a2.95 2.95 0 0 1 1.42 1.18q.52.8.52 1.98v4.44q0 .8.72.8.16 0 .34-.02a6 6 0 0 0 .32-.08l-.12 1.42q-.2.1-.5.16-.279.08-.66.08-.6 0-1.1-.22a1.8 1.8 0 0 1-.78-.7q-.28-.48-.28-1.2v-.22l.36-.02q-.14.8-.68 1.34-.519.54-1.26.8-.74.26-1.52.26-1.38 0-2.3-.68-.9-.68-.9-2.02 0-1.08.66-1.8.681-.74 2.04-1.02l3.78-.78v1.42l-2.68.58q-.82.16-1.24.48-.4.32-.4.94 0 .6.42.94t1.16.34q.46 0 .9-.12.441-.14.78-.42.36-.28.56-.7.22-.44.22-1.04zm9.26-8.2q.62 0 1.1.16.501.14.78.36l-.38 1.5a1.6 1.6 0 0 0-.48-.22 2.1 2.1 0 0 0-.62-.08q-.78 0-1.24.4t-.46 1.28v1.46l.08.5V267h-2.16v-11.4q0-1.04.42-1.76a2.77 2.77 0 0 1 1.18-1.1q.76-.38 1.78-.38m1.8 4.64v1.68h-6.94V257zm5.837-4.64q.62 0 1.1.16.5.14.78.36l-.38 1.5a1.6 1.6 0 0 0-.48-.22 2.1 2.1 0 0 0-.62-.08q-.78 0-1.24.4t-.46 1.28v1.46l.08.5V267h-2.16v-11.4q0-1.04.42-1.76t1.18-1.1 1.78-.38m1.8 4.64v1.68h-6.94V257z"/></svg>