<svg xmlns="http://www.w3.org/2000/svg" width="1021" height="288" fill="none"><rect width="378" height="72" x="321" fill="#004282" rx="10"/><path fill="#fff" d="M390.135 48.36q-2.08 0-3.28-.94-1.18-.94-1.18-2.64v-9.54q0-.48-.2-.72a1.2 1.2 0 0 0-.52-.38V32.9q0-.96.46-1.44.48-.5 1.4-.5h1.82v2.14h-1q-.38 0-.38.42v.18q.6.24.88.6.28.34.28 1v9.48q0 .74.46 1.16t1.26.42 1.26-.42.46-1.16v-.72h2.74v.72q0 1.7-1.2 2.64-1.18.94-3.26.94m1.712-10.26q0-1.84 1.24-2.84 1.24-1.02 3.44-1.02t3.42 1.02q1.24 1 1.24 2.84V43h-2.74v-4.9q0-.9-.52-1.38t-1.4-.48-1.42.48q-.52.48-.52 1.38V43h-2.74zm-.08-5v-2.14h9.5v2.14zm6.906 15.06v-4.1h2.52v4.1zm10.587-4.96q-2.18 0-3.42-1-1.22-1.02-1.22-2.86v-4.1q0-.48-.2-.72a1.2 1.2 0 0 0-.52-.38V32.9q0-.96.46-1.44.48-.5 1.4-.5h1.82v2.14h-1q-.38 0-.38.42v.18q.6.24.88.6.28.34.28 1v4.04q0 .88.5 1.38.52.48 1.4.48t1.38-.48q.5-.5.5-1.38v-4.1q0-.48-.2-.72a1.2 1.2 0 0 0-.52-.38V32.9q0-.96.48-1.44.48-.5 1.4-.5h1.8v2.14h-.98q-.38 0-.38.42v.18q.58.24.86.6.3.34.3 1v4.04q0 1.84-1.22 2.86-1.22 1-3.42 1m-3.34-5.14V36.2h6.66v1.86zm15.856 10.3q-2.08 0-3.28-.94-1.18-.94-1.18-2.64v-9.54q0-.48-.2-.72a1.2 1.2 0 0 0-.52-.38V32.9q0-.96.46-1.44.48-.5 1.4-.5h1.82v2.14h-1q-.38 0-.38.42v.18q.6.24.88.6.28.34.28 1v9.48q0 .74.46 1.16.459.42 1.26.42t1.26-.42.46-1.16v-.72h2.74v.72q0 1.7-1.2 2.64-1.18.94-3.26.94m6.352-5.16q-2.181 0-3.42-1-1.22-1.02-1.22-2.86v-4.1q0-.48-.2-.72a1.2 1.2 0 0 0-.52-.38V32.9q0-.96.46-1.44.48-.5 1.4-.5h1.82v2.14h-1q-.38 0-.38.42v.18q.6.24.88.6.28.34.28 1v4.04q0 .88.5 1.38.52.48 1.4.48t1.38-.48q.5-.5.5-1.38v-4.1q0-.48-.2-.72a1.2 1.2 0 0 0-.52-.38V32.9q0-.96.48-1.44.48-.5 1.4-.5h1.8v2.14h-.98q-.38 0-.38.42v.18q.58.24.86.6.3.34.3 1v4.04q0 1.84-1.22 2.86-1.221 1-3.42 1m-1.608-13.6q-1.26 0-1.92-.48-.66-.5-.66-1.44 0-1.04.76-1.72.74-.68 2.12-.68.86 0 1.56.28.7.26 1.3.78l.36.74q-.18 0-.48-.16t-.3-.36q0-.74.54-1.22.519-.48 1.38-.48t1.4.54q.54.54.54 1.32 0 .76-.5 1.3-.52.52-1.18.52-.18 0-.26-.14a2 2 0 0 1-.18-.36l.7-.2q.26.2.5.42a4 4 0 0 1 .4.42v.92zm.58-1.22h3.22a3 3 0 0 0-.34-.32 7 7 0 0 0-.56-.4 4.3 4.3 0 0 0-.98-.44q-.54-.18-1.12-.18-.52 0-.78.2a.59.59 0 0 0-.26.52q0 .28.2.46.2.16.62.16m4.08-1q.26 0 .42-.18a.72.72 0 0 0 .16-.46.67.67 0 0 0-.16-.46.54.54 0 0 0-.42-.18.53.53 0 0 0-.42.18.62.62 0 0 0-.18.46q0 .28.18.46.159.18.42.18m5.003 10.72q0-1.84 1.24-2.84 1.24-1.02 3.44-1.02t3.42 1.02q1.24 1 1.24 2.84V43h-2.74v-4.9q0-.9-.52-1.38t-1.4-.48-1.42.48q-.52.48-.52 1.38V43h-2.74zm-.08-5v-2.14h9.5v2.14zm19.273 1.42q0-1.42-1.3-1.42h-2.58v-2.14h3.38q3.24 0 3.24 3.26V43h-2.74zm-8.14 13.84q-2.1 0-3.28-.94-1.18-.92-1.18-2.6v-.76h2.74v.76q0 .72.46 1.12.46.42 1.26.42.801 0 1.26-.42.46-.4.46-1.12v-9.58q0-.48-.2-.72a1.2 1.2 0 0 0-.52-.38V32.9q0-.96.46-1.44.48-.5 1.4-.5h1.82v2.14h-1q-.38 0-.38.42v.18q.6.24.88.6.28.34.28 1v9.52q0 1.68-1.18 2.6-1.18.94-3.28.94m.46-7.54v-1.64h5.26v1.64zm15.317 2.3q-1.12 0-1.66-.44-.52-.46-.52-1.36t.46-1.32q.48-.44 1.38-.44h.26l-.64.68v-4.92q0-.52-.26-.76-.26-.26-.74-.4V32.9q0-.96.46-1.44.48-.5 1.4-.5h2.04v2.14h-1.22q-.38 0-.38.42v.18q.74.22 1.08.6.36.38.36 1.06v6.52q0 1.24-2.02 1.24m-.24-2.5q-.68 0-.68.72t.68.72zm18.613-6.1q0-1.42-1.32-1.42h-2.98v-2.14h3.8q3.24 0 3.24 3.26V43h-2.74zM468.546 43v-7.34h2.74v4.76l1.84-1.94 1.82 1.94v-4.76h2.76V43h-2.56l-2.02-2.06-2.02 2.06zm4.08-8.08q-2.1 0-3.16-.56t-1.06-1.7q0-.96.66-1.38.66-.44 1.7-.44.38 0 .76.06.4.06.64.16v1.3a1.4 1.4 0 0 0-.34-.08 1 1 0 0 0-.26-.04.35.35 0 0 0-.26.1.37.37 0 0 0-.08.24q0 .28.38.4.4.12 1.12.12 1.26 0 1.82-.38.58-.38.58-1.18v-1.22h2.7v1.22q0 1.66-1.32 2.52t-3.88.86m-1.542 13.32q-1.22 0-1.8-.56t-.58-1.52q0-1.06.66-1.58t1.82-.52h6.7v1.24h-5.92q-.36 0-.58.2a.75.75 0 0 0-.24.58q0 .34.18.56a.61.61 0 0 0 .5.22l1.26-.9 1.68.84v-2.16h2.4v3.52h-2.36l-1.98-1.1.64-.04-1.56 1.22zm17.845-5.1q-.72 0-1.2-.22a2.2 2.2 0 0 1-.8-.68q-.3-.46-.48-1.1l1.36-.58q.12.48.3.84t.42.56h.04a1 1 0 0 0 .06-.16q.02-.1.02-.2 0-.34-.14-.72a13 13 0 0 0-.34-.86q-.18-.48-.32-1.02a5 5 0 0 1-.14-1.2q0-1.62 1.2-2.58 1.2-.98 3.4-.98 2.18 0 3.4 1.02 1.24 1 1.24 2.84V43h-2.74v-4.9q0-.88-.52-1.36-.52-.5-1.42-.5-.82 0-1.32.44-.48.44-.48 1.2 0 .38.1.82t.22.9q.14.44.24.9t.1.92q0 .92-.62 1.32t-1.58.4m-1.4-10.04v-2.14h9.5v2.14zm3.346-3.5q-1.26 0-1.92-.48-.66-.5-.66-1.46 0-1.02.8-1.7.78-.68 2.3-.68 1.06 0 1.98.32.92.3 1.64.8.72.48 1.22 1t.72.94v1.26zm.58-1.22h3.4q-.3-.36-.82-.66-.54-.3-1.16-.48a3.9 3.9 0 0 0-1.2-.2q-.52 0-.78.2a.6.6 0 0 0-.26.52q0 .28.2.46.2.16.62.16m21.967 6.14q0-1.42-1.32-1.42h-2.56v-2.14h3.38q3.24 0 3.24 3.26V43h-2.74zm-9.88 8.68q-1.46 0-2.32-.84-.84-.84-.84-2.4v-4.72q0-.46-.16-.72a1.4 1.4 0 0 0-.44-.44v-1.02q0-1.06.56-1.58t1.6-.52h7.8v2.14h-7a.7.7 0 0 0-.3.08q-.14.08-.14.38v.14q.38.24.6.58.22.32.22.98v4.24q0 .76.32 1.18.32.4.96.4.54 0 1.04-.24.5-.26.88-.72.4-.48.64-1.1.26-.62.36-1.36l1.04.56q-.32 1.54-.98 2.66t-1.62 1.72-2.22.6m3.44-.2v-8h2.74v8zm23.578.2q-2.14 0-3.34-1-1.18-1-1.18-2.84V34.6q0-.86-.5-1.34-.48-.5-1.34-.5-.84 0-1.34.5-.48.48-.48 1.34v5.64l-.68-.68h.3q.9 0 1.38.42.5.42.5 1.32t-.52 1.36-1.66.46q-1.06 0-1.56-.3-.5-.32-.5-.94V34.6q0-1.84 1.2-2.84t3.36-1q2.18 0 3.38 1t1.2 2.84v4.76q0 .86.46 1.36.48.48 1.32.48.86 0 1.32-.48.48-.5.48-1.36v-4.12q0-.48-.2-.72a1.2 1.2 0 0 0-.52-.38V32.9q0-.96.46-1.44.48-.5 1.4-.5h1.82v2.14h-1q-.38 0-.38.42v.18q.6.24.88.6.28.34.28 1v4.06q0 1.84-1.2 2.84-1.18 1-3.34 1m-8.52-1.14q.66 0 .66-.72 0-.74-.66-.74zm29.286-7.74q0-.64-.32-.98t-.94-.34h-.86l-1.86.54q-.38.12-.64.16-.24.04-.58.04h-.88v-1.66h1.34l2.92-1.12h1.14q1.761 0 2.58.82.84.82.84 2.46V43h-2.74zm-12.78.92q0-.42-.16-.7a1.1 1.1 0 0 0-.46-.46v-1.02q0-1.06.56-1.58t1.6-.52h2.16l1.98.86h.34q.3 0 .46-.12.18-.14.18-.48v-.9h2.42v1.22q0 .62-.18 1.12t-.68.8q-.48.28-1.42.28h-1.7l-1.46-.64h-1.28a.6.6 0 0 0-.32.1q-.14.08-.14.36v.14q.381.24.6.58.22.32.22.98v5.16l1.82-1.78 1.8 1.78v-4.98h2.74V43h-2.54l-2-2.06-1.98 2.06h-2.56zm25.604 2.86q0-.88-.52-1.36-.52-.5-1.42-.5-.86 0-1.4.5-.52.48-.52 1.36v2.14l-.68-.68h.3q.9 0 1.38.42.5.42.5 1.32t-.52 1.36-1.66.46q-1.06 0-1.56-.3-.5-.32-.5-.94V38.1q0-1.84 1.24-2.84 1.24-1.02 3.42-1.02 2.22 0 3.44 1.02 1.24 1 1.24 2.84V43h-2.74zm-4.2 3.96q.66 0 .66-.72 0-.74-.66-.74zm-2.48-8.96v-2.14h9.5v2.14zm3.346-3.5q-1.26 0-1.92-.48-.66-.5-.66-1.46 0-1.02.8-1.7.78-.68 2.3-.68 1.06 0 1.98.32.92.3 1.64.8.72.48 1.22 1 .501.52.72.94v1.26zm.58-1.22h3.4q-.3-.36-.82-.66-.54-.3-1.16-.48a3.9 3.9 0 0 0-1.2-.2q-.519 0-.78.2a.6.6 0 0 0-.26.52q0 .28.2.46.2.16.62.16m19.603 14.82q-2.181 0-3.42-1-1.22-1.02-1.22-2.86v-4.1q0-.48-.2-.72a1.2 1.2 0 0 0-.52-.38V32.9q0-.96.46-1.44.48-.5 1.4-.5h1.82v2.14h-1q-.38 0-.38.42v.18q.6.24.88.6.28.34.28 1v4.04q0 .88.5 1.38.52.48 1.4.48t1.38-.48q.5-.5.5-1.38v-4.1q0-.48-.2-.72a1.2 1.2 0 0 0-.52-.38V32.9q0-.96.48-1.44.48-.5 1.4-.5h1.8v2.14h-.98q-.38 0-.38.42v.18q.58.24.86.6.3.34.3 1v4.04q0 1.84-1.22 2.86-1.221 1-3.42 1m-3.34-5.14V36.2h6.66v1.86zm12.515 5.12q-.78 0-1.26-.42-.48-.44-.48-1.18 0-.76.48-1.18.48-.44 1.26-.44.82 0 1.28.44.46.42.46 1.18 0 .74-.46 1.18-.46.42-1.28.42m9.223.02q-2.18 0-3.42-1-1.22-1.02-1.22-2.86v-4.1q0-.48-.2-.72a1.2 1.2 0 0 0-.52-.38V32.9q0-.96.46-1.44.48-.5 1.4-.5h1.82v2.14h-1q-.38 0-.38.42v.18q.6.24.88.6.28.34.28 1v4.04q0 .88.5 1.38.52.48 1.4.48t1.38-.48q.5-.5.5-1.38v-4.1q0-.48-.2-.72a1.2 1.2 0 0 0-.52-.38V32.9q0-.96.48-1.44.48-.5 1.4-.5h1.8v2.14h-.98q-.38 0-.38.42v.18q.58.24.86.6.3.34.3 1v4.04q0 1.84-1.22 2.86-1.22 1-3.42 1m9.175-.02q-.78 0-1.26-.42-.48-.44-.48-1.18 0-.76.48-1.18.48-.44 1.26-.44.82 0 1.28.44.46.42.46 1.18 0 .74-.46 1.18-.46.42-1.28.42m15.504.02q-2.14 0-3.34-1-1.18-1-1.18-2.84V37.8q0-.82-.5-1.26-.48-.46-1.34-.46-.84 0-1.34.46-.48.44-.48 1.26v2.44l-.68-.68h.3q.9 0 1.38.42.5.42.5 1.32t-.52 1.36-1.66.46q-1.06 0-1.56-.3-.5-.32-.5-.94V37.8q0-1.76 1.2-2.72 1.2-.98 3.36-.98 2.18 0 3.38.98 1.2.96 1.2 2.72v1.56q0 .86.46 1.36.48.48 1.32.48.86 0 1.32-.48.48-.5.48-1.36v-4.12q0-.48-.2-.72a1.2 1.2 0 0 0-.52-.38V32.9q0-.96.46-1.44.48-.5 1.4-.5h1.82v2.14h-1q-.38 0-.38.42v.18q.6.24.88.6.28.34.28 1v4.06q0 1.84-1.2 2.84-1.18 1-3.34 1m-8.52-1.14q.66 0 .66-.72 0-.74-.66-.74zm0-6.4-1.76-1.72V32.9q0-.96.48-1.44.48-.5 1.4-.5h5.46v2.14h-4.66q-.16 0-.28.1-.1.1-.1.3v.18l1.2 1.16zm17.626 7.52q-.78 0-1.26-.42-.48-.44-.48-1.18 0-.76.48-1.18.48-.44 1.26-.44.82 0 1.28.44.46.42.46 1.18 0 .74-.46 1.18-.46.42-1.28.42"/><path stroke="#38CAF9" stroke-width="3" d="M509.5 72v53M163 124.5h696M163.5 122.999l.016 31M163.516 207v27"/><rect width="327" height="55" y="154" fill="#14B1E7" rx="8"/><path fill="#fff" d="M80.146 182.92q0-1.86 1.16-2.88 1.18-1.04 3.26-1.04 2.1 0 3.26 1.04 1.16 1.02 1.16 2.88V188h-2.14v-5.08q0-1.08-.6-1.68t-1.68-.6q-1.06 0-1.68.6-.6.6-.6 1.68v2.74h-.24q.16-.88.76-1.5.62-.62 1.88-.62h.4v1.5h-.4q-.7 0-1.16.2-.46.18-.76.54-.3.34-.48.8V188h-2.14zm-.08-5.14v-1.74h9v1.74zm18.937 1.74q0-.96-.54-1.5t-1.5-.54-1.5.54-.54 1.5v5.72l-.54-.6h.3q.84 0 1.32.4t.48 1.3-.48 1.34-1.5.44q-.86 0-1.3-.28-.42-.28-.42-.86v-7.46q0-1.74 1.1-2.7 1.12-.98 3.08-.98 1.98 0 3.06.98 1.1.96 1.1 2.7v6.34l1.9-2.02 1.9 2.02v-6.34q0-1.74 1.08-2.7 1.1-.98 3.08-.98 1.959 0 3.06.98 1.12.96 1.12 2.7V188h-2.14v-8.48q0-.96-.54-1.5t-1.5-.54-1.5.54q-.52.54-.52 1.5V188h-2.04l-2-2.14-2 2.14h-2.02zm-4.3 7.6q.7 0 .7-.76t-.7-.76zm22.777-7.76q-.6 0-1-.36-.38-.38-.38-.98 0-.62.38-.98.4-.36 1-.36t.98.36.38.98q0 .6-.38.98-.38.36-.98.36m0 7.98q-.6 0-1-.36-.38-.38-.38-.98t.38-.96q.4-.38 1-.38t.98.38q.38.36.38.96t-.38.98q-.38.36-.98.36m8.23 6.02q-1.86 0-2.96-.9-1.08-.9-1.08-2.46v-10.12q0-.46-.22-.68a1.5 1.5 0 0 0-.58-.4v-1.04q0-.86.42-1.28.44-.44 1.26-.44h1.56v1.74h-1.04q-.38 0-.38.42v.18q.54.22.82.56.3.34.3.98V190q0 .78.5 1.26.52.48 1.4.48.86 0 1.38-.48t.52-1.26v-.88h2.12v.88q0 1.56-1.08 2.46t-2.94.9m1.897-10.44q0-1.86 1.16-2.88 1.18-1.04 3.26-1.04 2.1 0 3.26 1.04 1.16 1.02 1.16 2.88V188h-2.14v-5.08q0-1.08-.6-1.68t-1.68-.6q-1.06 0-1.68.6-.6.6-.6 1.68v2.74h-.24q.16-.88.76-1.5.62-.62 1.88-.62h.4v1.5h-.4q-.7 0-1.16.2-.46.18-.76.54-.3.34-.48.8V188h-2.14zm-.08-5.14v-1.74h9v1.74zm17.117 10.42q-2.08 0-3.24-1.02-1.16-1.04-1.16-2.9v-4.4q0-.46-.22-.68a1.5 1.5 0 0 0-.58-.4v-1.04q0-.86.42-1.28.44-.44 1.26-.44h1.56v1.74h-1.04q-.38 0-.38.42v.18q.54.22.82.56.3.34.3.98v4.36q0 1.08.6 1.68t1.66.6 1.66-.6.6-1.68v-4.4q0-.46-.22-.68a1.5 1.5 0 0 0-.58-.4v-1.04q0-.86.42-1.28.44-.44 1.26-.44h1.54v1.74h-1.02q-.4 0-.4.42v.18q.56.22.84.56t.28.98v4.36q0 1.86-1.16 2.9-1.14 1.02-3.22 1.02m-.881-13.6v-3.84h1.76v3.84zm13.099 18.76q-1.86 0-2.96-.9-1.08-.9-1.08-2.46v-10.12q0-.46-.22-.68-.2-.24-.58-.4v-1.04q0-.86.42-1.28.44-.44 1.26-.44h1.56v1.74h-1.04q-.38 0-.38.42v.18q.54.22.82.56.3.34.3.98V190q0 .78.5 1.26.52.48 1.4.48.86 0 1.38-.48t.52-1.26v-.88h2.12v.88q0 1.56-1.08 2.46t-2.94.9m1.897-10.44q0-1.86 1.16-2.88 1.18-1.04 3.26-1.04 2.1 0 3.26 1.04 1.16 1.02 1.16 2.88V188h-2.14v-5.08q0-1.08-.6-1.68t-1.68-.6q-1.059 0-1.68.6-.6.6-.6 1.68v2.74h-.24q.16-.88.76-1.5.62-.62 1.88-.62h.4v1.5h-.4q-.7 0-1.16.2-.46.18-.76.54-.3.34-.48.8V188h-2.14zm-.08-5.14v-1.74h9v1.74zM171.396 188v-4.96h-.92v-1.42h3.06v4.22l2.28-2.08 2.28 2.08v-4.66q0-.56-.18-.92-.16-.38-.82-.66l1.48-.78q1 .38 1.32.94.34.56.34 1.42V188h-2.02l-2.4-2.26-2.38 2.26zm3.16-7.4q-1.46 0-2.36-.54-.88-.54-.88-1.5 0-.5.16-.88t.16-.7q0-.2-.1-.26-.08-.08-.26-.08h-.3v-1.32h1.18q.78 0 1.12.3.36.3.36.88 0 .46-.16.86-.14.4-.14.8 0 .48.38.78.4.3 1.24.3.72 0 1.22-.24.52-.24 1-.68l.2.86a1.6 1.6 0 0 1-1.06-.48 1.5 1.5 0 0 1-.44-1.1q0-.78.52-1.22.54-.46 1.42-.46.9 0 1.42.46.52.44.52 1.22 0 .5-.26.88-.24.36-.64.6-.38.22-.8.3-.22.24-.7.52t-1.18.5q-.7.2-1.62.2m3.26-2.38a.57.57 0 0 0 .42-.16.6.6 0 0 0 .16-.42.57.57 0 0 0-.16-.42.54.54 0 0 0-.42-.18q-.24 0-.4.18a.57.57 0 0 0-.16.42q0 .24.16.42.16.16.4.16m16.554 9.98q-2.079 0-3.24-1.02-1.16-1.04-1.16-2.9v-4.4q0-.46-.22-.68a1.5 1.5 0 0 0-.58-.4v-1.04q0-.86.42-1.28.441-.44 1.26-.44h1.56v1.74h-1.04q-.38 0-.38.42v.18q.54.22.82.56.3.34.3.98v4.36q0 1.08.6 1.68t1.66.6 1.66-.6.6-1.68v-4.4q0-.46-.22-.68a1.5 1.5 0 0 0-.58-.4v-1.04q0-.86.42-1.28.441-.44 1.26-.44h1.54v1.74h-1.02q-.4 0-.4.42v.18q.561.22.84.56.28.34.28.98v4.36q0 1.86-1.16 2.9-1.14 1.02-3.22 1.02m-3.32-5.42v-1.52h6.62v1.52zm12.398 5.4q-.68 0-1.1-.38-.4-.4-.4-1.02 0-.66.4-1.04.42-.4 1.1-.4t1.08.4q.42.38.42 1.04 0 .62-.42 1.02-.399.38-1.08.38m9.106.02q-2.08 0-3.24-1.02-1.16-1.04-1.16-2.9v-4.4q0-.46-.22-.68-.2-.24-.58-.4v-1.04q0-.86.42-1.28.44-.44 1.26-.44h1.56v1.74h-1.04q-.38 0-.38.42v.18q.54.22.82.56.3.34.3.98v4.36q0 1.08.6 1.68t1.66.6 1.66-.6.6-1.68v-4.4q0-.46-.22-.68-.2-.24-.58-.4v-1.04q0-.86.42-1.28.44-.44 1.26-.44h1.54v1.74h-1.02q-.4 0-.4.42v.18q.56.22.84.56t.28.98v4.36q0 1.86-1.16 2.9-1.14 1.02-3.22 1.02m9.078-.02q-.68 0-1.1-.38-.4-.4-.4-1.02 0-.66.4-1.04.42-.4 1.1-.4t1.08.4q.42.38.42 1.04 0 .62-.42 1.02-.4.38-1.08.38m15.386.02q-2.02 0-3.14-1.02-1.1-1.02-1.1-2.86v-1.66q0-1-.58-1.56-.56-.56-1.58-.56t-1.58.56-.56 1.56v2.58l-.54-.6h.3q.84 0 1.32.4t.48 1.3-.48 1.34-1.5.44q-.86 0-1.3-.28-.42-.28-.42-.86v-4.32q0-1.78 1.12-2.76 1.14-.98 3.16-.98 2.06 0 3.18.98t1.12 2.76v1.66q0 1.06.539 1.66.56.58 1.561.58.999 0 1.56-.58.56-.6.56-1.66v-4.44q0-.46-.22-.68a1.5 1.5 0 0 0-.58-.4v-1.04q0-.86.42-1.28.42-.44 1.26-.44h1.54v1.74h-1.02q-.4 0-.4.42v.18q.56.22.84.56t.28.98v4.4q0 1.84-1.12 2.86-1.101 1.02-3.12 1.02m-8.76-1.08q.7 0 .7-.76t-.7-.76zm.26-6.96-1.52-1.56v-.84q0-.86.42-1.28.44-.44 1.28-.44h5.1v1.74h-4.62q-.18 0-.28.1-.1.08-.1.3v.18l1.18 1.2zm17.43 8.02q-.68 0-1.1-.38-.4-.4-.4-1.02 0-.66.4-1.04.42-.4 1.1-.4t1.08.4q.42.38.42 1.04 0 .62-.42 1.02-.399.38-1.08.38"/><rect width="327" height="55" y="233" fill="#14B1E7" rx="8"/><path fill="#fff" d="M66.91 267.2q-2.08 0-3.24-1.02-1.16-1.04-1.16-2.9v-4.4q0-.46-.22-.68a1.5 1.5 0 0 0-.58-.4v-1.04q0-.86.42-1.28.44-.44 1.26-.44h1.56v1.74h-1.04q-.38 0-.38.42v.18q.54.22.82.56.3.34.3.98v4.36q0 1.08.6 1.68t1.66.6 1.66-.6.6-1.68v-4.4q0-.46-.22-.68a1.5 1.5 0 0 0-.58-.4v-1.04q0-.86.42-1.28.44-.44 1.26-.44h1.54v1.74h-1.02q-.4 0-.4.42v.18q.56.22.84.56t.28.98v4.36q0 1.86-1.16 2.9-1.14 1.02-3.22 1.02m2.2 4.96v-4.04h2v4.04zm5.978-10.24q0-1.86 1.16-2.88 1.18-1.04 3.26-1.04 2.1 0 3.26 1.04 1.16 1.02 1.16 2.88V267h-2.14v-5.08q0-1.08-.6-1.68t-1.68-.6q-1.06 0-1.68.6-.6.6-.6 1.68v2.74h-.24q.16-.88.76-1.5.62-.62 1.88-.62h.4v1.5h-.4q-.7 0-1.16.2-.46.18-.76.54-.3.34-.48.8V267h-2.14zm-.08-5.14v-1.74h9v1.74zm.48 15.38v-1.36q.001-1.36.98-2.12.981-.76 3.04-.76 2.061 0 3.04.76t.98 2.12v1.36h-1.94v-1.38q0-.72-.48-1.1-.499-.36-1.6-.36-1.08 0-1.56.36-.499.38-.5 1.1v.26l2.14-.86v1.12l-2.14.86zm22.916-4.96q-2.02 0-3.14-1.02-1.1-1.02-1.1-2.86v-4.62q0-1.04-.58-1.62-.56-.6-1.58-.6t-1.58.6q-.56.58-.56 1.62v5.54l-.54-.6h.3q.84 0 1.32.4t.48 1.3-.48 1.34-1.5.44q-.86 0-1.3-.28-.42-.28-.42-.86v-7.28q0-1.84 1.12-2.84 1.14-1.02 3.16-1.02 2.061 0 3.18 1.02 1.12 1 1.12 2.84v4.62q0 1.06.54 1.66.561.58 1.56.58 1 0 1.56-.58.56-.6.56-1.66v-4.44q0-.46-.22-.68a1.5 1.5 0 0 0-.58-.4v-1.04q0-.86.42-1.28.42-.44 1.26-.44h1.54v1.74h-1.02q-.4 0-.4.42v.18q.561.22.84.56.28.34.28.98v4.4q0 1.84-1.12 2.86-1.1 1.02-3.12 1.02m-8.76-1.08q.7 0 .7-.76t-.7-.76zm7.248-12.52q-1.16 0-1.76-.48-.62-.48-.62-1.38 0-.96.74-1.58t2.14-.62q1 0 1.88.3.86.28 1.54.76.68.46 1.16.96.46.5.68.9v1.14zm.34-1.12h3.66q-.3-.4-.86-.72a6 6 0 0 0-1.2-.56 4 4 0 0 0-1.28-.22q-.56 0-.86.22t-.3.6q0 .3.22.5.2.18.62.18m9.203 9.44q0-1.86 1.16-2.88 1.18-1.04 3.26-1.04 2.1 0 3.26 1.04 1.16 1.02 1.16 2.88V267h-2.14v-5.08q0-1.08-.6-1.68t-1.68-.6q-1.06 0-1.68.6-.6.6-.6 1.68V267h-2.14zm-.08-5.14v-1.74h9v1.74zm16.757 15.58q-1.86 0-2.96-.9-1.08-.9-1.08-2.46v-10.12q0-.46-.22-.68-.2-.24-.58-.4v-1.04q0-.86.42-1.28.44-.44 1.26-.44h1.56v1.74h-1.04q-.38 0-.38.42v.18q.54.22.82.56.3.34.3.98V269q0 .78.5 1.26.52.48 1.4.48.86 0 1.38-.48t.52-1.26v-.88h2.12v.88q0 1.56-1.08 2.46t-2.94.9m6.297-5.16q-2.079 0-3.24-1.02-1.16-1.04-1.16-2.9v-4.4q0-.46-.22-.68a1.5 1.5 0 0 0-.58-.4v-1.04q0-.86.42-1.28.441-.44 1.26-.44h1.56v1.74h-1.04q-.38 0-.38.42v.18q.54.22.82.56.3.34.3.98v4.36q0 1.08.6 1.68t1.66.6 1.66-.6.6-1.68v-4.4q0-.46-.22-.68a1.5 1.5 0 0 0-.58-.4v-1.04q0-.86.42-1.28.441-.44 1.26-.44h1.54v1.74h-1.02q-.4 0-.4.42v.18q.561.22.84.56.28.34.28.98v4.36q0 1.86-1.16 2.9-1.14 1.02-3.22 1.02m14.879-5.28q0-1.08-.6-1.68t-1.68-.6q-1.06 0-1.68.6-.6.6-.6 1.68v2.32l-.54-.6h.3q.84 0 1.32.4t.48 1.3-.48 1.34-1.5.44q-.86 0-1.3-.28-.42-.28-.42-.86v-4.06q0-1.86 1.16-2.88 1.18-1.04 3.26-1.04 2.1 0 3.26 1.04 1.16 1.02 1.16 2.88V267h-2.14zm-4.78 4.2q.7 0 .7-.76t-.7-.76zm-2-9.34v-1.74h9v1.74zm3.173-3.18q-1.16 0-1.76-.48-.62-.48-.62-1.38 0-.96.74-1.58t2.14-.62q1 0 1.88.3.86.28 1.54.76.68.46 1.16.96.46.5.68.9v1.14zm.34-1.12h3.66q-.3-.4-.86-.72a6 6 0 0 0-1.2-.56 4 4 0 0 0-1.28-.22q-.56 0-.86.22t-.3.6q0 .3.22.5.2.18.62.18m13.603 14.72q-2.079 0-3.24-1.02-1.16-1.04-1.16-2.9v-4.4q0-.46-.22-.68a1.5 1.5 0 0 0-.58-.4v-1.04q0-.86.42-1.28.441-.44 1.26-.44h1.56v1.74h-1.04q-.38 0-.38.42v.18q.54.22.82.56.3.34.3.98v4.36q0 1.08.6 1.68t1.66.6 1.66-.6.6-1.68v-4.4q0-.46-.22-.68a1.5 1.5 0 0 0-.58-.4v-1.04q0-.86.42-1.28.441-.44 1.26-.44h1.54v1.74h-1.02q-.4 0-.4.42v.18q.561.22.84.56.28.34.28.98v4.36q0 1.86-1.16 2.9-1.14 1.02-3.22 1.02m14.878-5.28q0-1.08-.6-1.68t-1.68-.6q-1.059 0-1.68.6-.6.6-.6 1.68v2.32l-.54-.6h.3q.84 0 1.32.4t.48 1.3-.48 1.34-1.5.44q-.86 0-1.3-.28-.42-.28-.42-.86v-4.06q0-1.86 1.16-2.88 1.18-1.04 3.26-1.04 2.1 0 3.26 1.04 1.16 1.02 1.16 2.88V267h-2.14zm-4.78 4.2q.7 0 .7-.76t-.7-.76zm-2-9.34v-1.74h9v1.74zm2.162 15.5q-.92 0-1.3-.24-.38-.22-.38-.68v-1q0-.76.38-1.32.38-.54 1.26-.84.88-.28 2.38-.28t2.38.28q.879.3 1.26.84.38.56.38 1.32v1.8h-1.96v-1.78a.94.94 0 0 0-.44-.82q-.441-.3-1.62-.3t-1.66.28a.91.91 0 0 0-.48.84l-.06-.42h.14q.62 0 .92.28t.3.86-.36.88-1.14.3m.14-.68q.26 0 .38-.14.12-.12.12-.36 0-.26-.12-.38t-.38-.12zm.872-18q-1.16 0-1.76-.48-.62-.48-.62-1.38 0-.96.74-1.58t2.14-.62q1 0 1.88.3.86.28 1.54.76.68.46 1.16.96.46.5.68.9v1.14zm.34-1.12h3.66q-.3-.4-.86-.72a6 6 0 0 0-1.2-.56 4 4 0 0 0-1.28-.22q-.56 0-.86.22t-.3.6q0 .3.22.5.2.18.62.18m22.323 5.86q0-1.56-1.44-1.56h-3v-1.74h3.44q3.14 0 3.14 3.14V267h-2.14zm-13.12 3.58q0-1.86 1.16-2.88 1.18-1.04 3.26-1.04 2.1 0 3.26 1.04 1.16 1.02 1.16 2.88V267h-2.14v-5.08q0-1.08-.6-1.68t-1.68-.6q-1.06 0-1.68.6-.6.6-.6 1.68V267h-2.14zm-.08-5.14v-1.74h9v1.74zm20.401 10.34q-.98 0-1.46-.44t-.48-1.32.46-1.3 1.28-.42h.26l-.5.6V259q0-.48-.3-.74t-.84-.44v-1.06q0-.86.42-1.28.42-.44 1.26-.44h1.74v1.74h-1.22q-.4 0-.4.42v.18q.74.2 1.1.6t.36 1.06v6.94q0 1.14-1.68 1.14m-.14-2.5q-.68 0-.68.76 0 .74.68.74zm16.387 2.58q-2.08 0-3.24-1.02-1.16-1.04-1.16-2.9v-4.4q0-.46-.22-.68-.2-.24-.58-.4v-1.04q0-.86.42-1.28.44-.44 1.26-.44h1.56v1.74h-1.04q-.38 0-.38.42v.18q.54.22.82.56.3.34.3.98v4.36q0 1.08.6 1.68t1.66.6 1.66-.6.6-1.68v-4.4q0-.46-.22-.68-.2-.24-.58-.4v-1.04q0-.86.42-1.28.44-.44 1.26-.44h1.54v1.74h-1.02q-.4 0-.4.42v.18q.56.22.84.56t.28.98v4.36q0 1.86-1.16 2.9-1.14 1.02-3.22 1.02m-3.32-5.42v-1.52h6.62v1.52zm12.398 5.4q-.68 0-1.1-.38-.4-.4-.4-1.02 0-.66.4-1.04.42-.4 1.1-.4t1.08.4q.42.38.42 1.04 0 .62-.42 1.02-.4.38-1.08.38m9.106.02q-2.08 0-3.24-1.02-1.16-1.04-1.16-2.9v-4.4q0-.46-.22-.68a1.5 1.5 0 0 0-.58-.4v-1.04q0-.86.42-1.28.44-.44 1.26-.44h1.56v1.74h-1.04q-.38 0-.38.42v.18q.54.22.82.56.3.34.3.98v4.36q0 1.08.6 1.68t1.66.6 1.66-.6.6-1.68v-4.4q0-.46-.22-.68a1.5 1.5 0 0 0-.58-.4v-1.04q0-.86.42-1.28.44-.44 1.26-.44h1.54v1.74h-1.02q-.4 0-.4.42v.18q.56.22.84.56t.28.98v4.36q0 1.86-1.16 2.9-1.14 1.02-3.22 1.02m9.078-.02q-.68 0-1.1-.38-.4-.4-.4-1.02 0-.66.4-1.04.42-.4 1.1-.4t1.08.4q.42.38.42 1.04 0 .62-.42 1.02-.4.38-1.08.38m15.385.02q-2.02 0-3.14-1.02-1.1-1.02-1.1-2.86v-1.66q0-1-.58-1.56-.56-.56-1.58-.56t-1.58.56-.56 1.56v2.58l-.54-.6h.3q.84 0 1.32.4t.48 1.3-.48 1.34-1.5.44q-.86 0-1.3-.28-.42-.28-.42-.86v-4.32q0-1.78 1.12-2.76 1.14-.98 3.16-.98 2.061 0 3.18.98t1.12 2.76v1.66q0 1.06.54 1.66.561.58 1.56.58 1 0 1.56-.58.56-.6.56-1.66v-4.44q0-.46-.22-.68a1.5 1.5 0 0 0-.58-.4v-1.04q0-.86.42-1.28.42-.44 1.26-.44h1.54v1.74h-1.02q-.4 0-.4.42v.18q.561.22.84.56.28.34.28.98v4.4q0 1.84-1.12 2.86-1.1 1.02-3.12 1.02m-8.76-1.08q.7 0 .7-.76t-.7-.76zm.26-6.96-1.52-1.56v-.84q0-.86.42-1.28.44-.44 1.28-.44h5.1v1.74h-4.62a.38.38 0 0 0-.28.1q-.1.08-.1.3v.18l1.18 1.2zm17.431 8.02q-.68 0-1.1-.38-.4-.4-.4-1.02 0-.66.4-1.04.42-.4 1.1-.4t1.08.4q.42.38.42 1.04 0 .62-.42 1.02-.4.38-1.08.38"/><path stroke="#38CAF9" stroke-width="3" d="m509.5 122.999.016 31M509.516 207v27"/><rect width="327" height="55" x="346" y="154" fill="#14B1E7" rx="8"/><path fill="#fff" d="M426.146 182.92q0-1.86 1.16-2.88 1.18-1.04 3.26-1.04 2.1 0 3.26 1.04 1.16 1.02 1.16 2.88V188h-2.14v-5.08q0-1.08-.6-1.68t-1.68-.6q-1.06 0-1.68.6-.6.6-.6 1.68v2.74h-.24q.16-.88.76-1.5.62-.62 1.88-.62h.4v1.5h-.4q-.7 0-1.16.2-.46.18-.76.54-.3.34-.48.8V188h-2.14zm-.08-5.14v-1.74h9v1.74zm18.937 1.74q0-.96-.54-1.5t-1.5-.54-1.5.54-.54 1.5v5.72l-.54-.6h.3q.84 0 1.32.4t.48 1.3-.48 1.34-1.5.44q-.86 0-1.3-.28-.42-.28-.42-.86v-7.46q0-1.74 1.1-2.7 1.12-.98 3.08-.98 1.98 0 3.06.98 1.1.96 1.1 2.7v6.34l1.9-2.02 1.9 2.02v-6.34q0-1.74 1.08-2.7 1.1-.98 3.08-.98 1.959 0 3.06.98 1.12.96 1.12 2.7V188h-2.14v-8.48q0-.96-.54-1.5t-1.5-.54-1.5.54q-.52.54-.52 1.5V188h-2.04l-2-2.14-2 2.14h-2.02zm-4.3 7.6q.7 0 .7-.76t-.7-.76zm22.777-7.76q-.6 0-1-.36-.38-.38-.38-.98 0-.62.38-.98.4-.36 1-.36t.98.36.38.98q0 .6-.38.98-.38.36-.98.36m0 7.98q-.6 0-1-.36-.38-.38-.38-.98t.38-.96q.4-.38 1-.38t.98.38q.38.36.38.96t-.38.98q-.38.36-.98.36m8.23 6.02q-1.86 0-2.96-.9-1.08-.9-1.08-2.46v-10.12q0-.46-.22-.68a1.5 1.5 0 0 0-.58-.4v-1.04q0-.86.42-1.28.44-.44 1.26-.44h1.56v1.74h-1.04q-.38 0-.38.42v.18q.54.22.82.56.3.34.3.98V190q0 .78.5 1.26.52.48 1.4.48.86 0 1.38-.48t.52-1.26v-.88h2.12v.88q0 1.56-1.08 2.46t-2.94.9m1.897-10.44q0-1.86 1.16-2.88 1.18-1.04 3.26-1.04 2.1 0 3.26 1.04 1.16 1.02 1.16 2.88V188h-2.14v-5.08q0-1.08-.6-1.68t-1.68-.6q-1.06 0-1.68.6-.6.6-.6 1.68v2.74h-.24q.16-.88.76-1.5.62-.62 1.88-.62h.4v1.5h-.4q-.7 0-1.16.2-.46.18-.76.54-.3.34-.48.8V188h-2.14zm-.08-5.14v-1.74h9v1.74zm17.117 10.42q-2.08 0-3.24-1.02-1.16-1.04-1.16-2.9v-4.4q0-.46-.22-.68a1.5 1.5 0 0 0-.58-.4v-1.04q0-.86.42-1.28.44-.44 1.26-.44h1.56v1.74h-1.04q-.38 0-.38.42v.18q.54.22.82.56.3.34.3.98v4.36q0 1.08.6 1.68t1.66.6 1.66-.6.6-1.68v-4.4q0-.46-.22-.68a1.5 1.5 0 0 0-.58-.4v-1.04q0-.86.42-1.28.44-.44 1.26-.44h1.54v1.74h-1.02q-.4 0-.4.42v.18q.56.22.84.56t.28.98v4.36q0 1.86-1.16 2.9-1.14 1.02-3.22 1.02m-.881-13.6v-3.84h1.76v3.84zm13.099 18.76q-1.86 0-2.96-.9-1.08-.9-1.08-2.46v-10.12q0-.46-.22-.68-.2-.24-.58-.4v-1.04q0-.86.42-1.28.44-.44 1.26-.44h1.56v1.74h-1.04q-.38 0-.38.42v.18q.54.22.82.56.3.34.3.98V190q0 .78.5 1.26.52.48 1.4.48.86 0 1.38-.48t.52-1.26v-.88h2.12v.88q0 1.56-1.08 2.46t-2.94.9m1.897-10.44q0-1.86 1.16-2.88 1.18-1.04 3.26-1.04 2.1 0 3.26 1.04 1.16 1.02 1.16 2.88V188h-2.14v-5.08q0-1.08-.6-1.68t-1.68-.6q-1.059 0-1.68.6-.6.6-.6 1.68v2.74h-.24q.16-.88.76-1.5.62-.62 1.88-.62h.4v1.5h-.4q-.7 0-1.16.2-.46.18-.76.54-.3.34-.48.8V188h-2.14zm-.08-5.14v-1.74h9v1.74zM517.396 188v-4.96h-.92v-1.42h3.06v4.22l2.28-2.08 2.28 2.08v-4.66q0-.56-.18-.92-.16-.38-.82-.66l1.48-.78q1 .38 1.32.94.34.56.34 1.42V188h-2.02l-2.4-2.26-2.38 2.26zm3.16-7.4q-1.46 0-2.36-.54-.88-.54-.88-1.5 0-.5.16-.88t.16-.7q0-.2-.1-.26-.08-.08-.26-.08h-.3v-1.32h1.18q.78 0 1.12.3.36.3.36.88 0 .46-.16.86-.14.4-.14.8 0 .48.38.78.4.3 1.24.3.72 0 1.22-.24.52-.24 1-.68l.2.86a1.6 1.6 0 0 1-1.06-.48 1.5 1.5 0 0 1-.44-1.1q0-.78.52-1.22.54-.46 1.42-.46.9 0 1.42.46.52.44.52 1.22 0 .5-.26.88-.24.36-.64.6-.38.22-.8.3-.22.24-.7.52t-1.18.5q-.7.2-1.62.2m3.26-2.38a.57.57 0 0 0 .42-.16.6.6 0 0 0 .16-.42.57.57 0 0 0-.16-.42.54.54 0 0 0-.42-.18q-.24 0-.4.18a.57.57 0 0 0-.16.42q0 .24.16.42.16.16.4.16m16.554 9.98q-2.079 0-3.24-1.02-1.16-1.04-1.16-2.9v-4.4q0-.46-.22-.68a1.5 1.5 0 0 0-.58-.4v-1.04q0-.86.42-1.28.441-.44 1.26-.44h1.56v1.74h-1.04q-.38 0-.38.42v.18q.54.22.82.56.3.34.3.98v4.36q0 1.08.6 1.68t1.66.6 1.66-.6.6-1.68v-4.4q0-.46-.22-.68a1.5 1.5 0 0 0-.58-.4v-1.04q0-.86.42-1.28.441-.44 1.26-.44h1.54v1.74h-1.02q-.4 0-.4.42v.18q.561.22.84.56.28.34.28.98v4.36q0 1.86-1.16 2.9-1.14 1.02-3.22 1.02m-3.32-5.42v-1.52h6.62v1.52zm12.398 5.4q-.68 0-1.1-.38-.4-.4-.4-1.02 0-.66.4-1.04.42-.4 1.1-.4t1.08.4q.42.38.42 1.04 0 .62-.42 1.02-.399.38-1.08.38m9.106.02q-2.08 0-3.24-1.02-1.16-1.04-1.16-2.9v-4.4q0-.46-.22-.68-.2-.24-.58-.4v-1.04q0-.86.42-1.28.44-.44 1.26-.44h1.56v1.74h-1.04q-.38 0-.38.42v.18q.54.22.82.56.3.34.3.98v4.36q0 1.08.6 1.68t1.66.6 1.66-.6.6-1.68v-4.4q0-.46-.22-.68-.2-.24-.58-.4v-1.04q0-.86.42-1.28.44-.44 1.26-.44h1.54v1.74h-1.02q-.4 0-.4.42v.18q.56.22.84.56t.28.98v4.36q0 1.86-1.16 2.9-1.14 1.02-3.22 1.02m9.078-.02q-.68 0-1.1-.38-.4-.4-.4-1.02 0-.66.4-1.04.42-.4 1.1-.4t1.08.4q.42.38.42 1.04 0 .62-.42 1.02-.4.38-1.08.38m15.386.02q-2.02 0-3.14-1.02-1.1-1.02-1.1-2.86v-1.66q0-1-.58-1.56-.56-.56-1.58-.56t-1.58.56-.56 1.56v2.58l-.54-.6h.3q.84 0 1.32.4t.48 1.3-.48 1.34-1.5.44q-.86 0-1.3-.28-.42-.28-.42-.86v-4.32q0-1.78 1.12-2.76 1.14-.98 3.16-.98 2.06 0 3.18.98t1.12 2.76v1.66q0 1.06.539 1.66.56.58 1.561.58.999 0 1.56-.58.56-.6.56-1.66v-4.44q0-.46-.22-.68a1.5 1.5 0 0 0-.58-.4v-1.04q0-.86.42-1.28.42-.44 1.26-.44h1.54v1.74h-1.02q-.4 0-.4.42v.18q.56.22.84.56t.28.98v4.4q0 1.84-1.12 2.86-1.101 1.02-3.12 1.02m-8.76-1.08q.7 0 .7-.76t-.7-.76zm.26-6.96-1.52-1.56v-.84q0-.86.42-1.28.44-.44 1.28-.44h5.1v1.74h-4.62q-.18 0-.28.1-.1.08-.1.3v.18l1.18 1.2zm17.43 8.02q-.68 0-1.1-.38-.4-.4-.4-1.02 0-.66.4-1.04.42-.4 1.1-.4t1.08.4q.42.38.42 1.04 0 .62-.42 1.02-.399.38-1.08.38"/><rect width="327" height="55" x="346" y="233" fill="#14B1E7" rx="8"/><path fill="#fff" d="M412.909 267.2q-2.079 0-3.24-1.02-1.16-1.04-1.16-2.9v-4.4q0-.46-.22-.68a1.5 1.5 0 0 0-.58-.4v-1.04q0-.86.42-1.28.441-.44 1.26-.44h1.56v1.74h-1.04q-.38 0-.38.42v.18q.54.22.82.56.3.34.3.98v4.36q0 1.08.6 1.68t1.66.6 1.66-.6.6-1.68v-4.4q0-.46-.22-.68a1.5 1.5 0 0 0-.58-.4v-1.04q0-.86.42-1.28.441-.44 1.26-.44h1.54v1.74h-1.02q-.4 0-.4.42v.18q.561.22.84.56.28.34.28.98v4.36q0 1.86-1.16 2.9-1.14 1.02-3.22 1.02m2.2 4.96v-4.04h2v4.04zm5.979-10.24q0-1.86 1.16-2.88 1.18-1.04 3.26-1.04 2.1 0 3.26 1.04 1.16 1.02 1.16 2.88V267h-2.14v-5.08q0-1.08-.6-1.68t-1.68-.6q-1.06 0-1.68.6-.6.6-.6 1.68v2.74h-.24q.16-.88.76-1.5.62-.62 1.88-.62h.4v1.5h-.4q-.7 0-1.161.2-.459.18-.759.54-.3.34-.48.8V267h-2.14zm-.08-5.14v-1.74h9v1.74zm.481 15.38v-1.36q0-1.36.98-2.12t3.04-.76 3.04.76.98 2.12v1.36h-1.94v-1.38q0-.72-.48-1.1-.5-.36-1.6-.36-1.08 0-1.56.36-.5.38-.5 1.1v.26l2.14-.86v1.12l-2.14.86zm22.915-4.96q-2.02 0-3.14-1.02-1.1-1.02-1.1-2.86v-4.62q0-1.04-.58-1.62-.56-.6-1.58-.6t-1.58.6q-.56.58-.56 1.62v5.54l-.54-.6h.3q.84 0 1.32.4t.48 1.3-.48 1.34-1.5.44q-.86 0-1.3-.28-.42-.28-.42-.86v-7.28q0-1.84 1.12-2.84 1.14-1.02 3.16-1.02 2.061 0 3.18 1.02 1.12 1 1.12 2.84v4.62q0 1.06.54 1.66.561.58 1.56.58 1 0 1.56-.58.56-.6.56-1.66v-4.44q0-.46-.22-.68a1.5 1.5 0 0 0-.58-.4v-1.04q0-.86.42-1.28.42-.44 1.26-.44h1.54v1.74h-1.02q-.4 0-.4.42v.18q.561.22.84.56.28.34.28.98v4.4q0 1.84-1.12 2.86-1.1 1.02-3.12 1.02m-8.76-1.08q.7 0 .7-.76t-.7-.76zm7.248-12.52q-1.16 0-1.76-.48-.62-.48-.62-1.38 0-.96.74-1.58t2.14-.62q1 0 1.88.3.86.28 1.54.76.68.46 1.16.96.46.5.68.9v1.14zm.34-1.12h3.66q-.3-.4-.86-.72a6 6 0 0 0-1.2-.56 4 4 0 0 0-1.28-.22q-.56 0-.86.22t-.3.6q0 .3.22.5.2.18.62.18m9.203 9.44q0-1.86 1.16-2.88 1.18-1.04 3.26-1.04 2.1 0 3.26 1.04 1.16 1.02 1.16 2.88V267h-2.14v-5.08q0-1.08-.6-1.68t-1.68-.6q-1.06 0-1.68.6-.6.6-.6 1.68V267h-2.14zm-.08-5.14v-1.74h9v1.74zm16.757 15.58q-1.86 0-2.96-.9-1.08-.9-1.08-2.46v-10.12q0-.46-.22-.68-.2-.24-.58-.4v-1.04q0-.86.42-1.28.44-.44 1.26-.44h1.56v1.74h-1.04q-.38 0-.38.42v.18q.54.22.82.56.3.34.3.98V269q0 .78.5 1.26.52.48 1.4.48.86 0 1.38-.48t.52-1.26v-.88h2.12v.88q0 1.56-1.08 2.46t-2.94.9m6.297-5.16q-2.079 0-3.24-1.02-1.16-1.04-1.16-2.9v-4.4q0-.46-.22-.68a1.5 1.5 0 0 0-.58-.4v-1.04q0-.86.42-1.28.441-.44 1.26-.44h1.56v1.74h-1.04q-.38 0-.38.42v.18q.54.22.82.56.3.34.3.98v4.36q0 1.08.6 1.68t1.66.6 1.66-.6.6-1.68v-4.4q0-.46-.22-.68a1.5 1.5 0 0 0-.58-.4v-1.04q0-.86.42-1.28.441-.44 1.26-.44h1.54v1.74h-1.02q-.4 0-.4.42v.18q.561.22.84.56.28.34.28.98v4.36q0 1.86-1.16 2.9-1.14 1.02-3.22 1.02m14.879-5.28q0-1.08-.6-1.68t-1.68-.6q-1.06 0-1.68.6-.6.6-.6 1.68v2.32l-.54-.6h.3q.84 0 1.32.4t.48 1.3-.48 1.34-1.5.44q-.86 0-1.3-.28-.42-.28-.42-.86v-4.06q0-1.86 1.16-2.88 1.18-1.04 3.26-1.04 2.1 0 3.26 1.04 1.16 1.02 1.16 2.88V267h-2.14zm-4.78 4.2q.7 0 .7-.76t-.7-.76zm-2-9.34v-1.74h9v1.74zm3.173-3.18q-1.16 0-1.76-.48-.62-.48-.62-1.38 0-.96.74-1.58t2.14-.62q1 0 1.88.3.86.28 1.54.76.68.46 1.16.96.46.5.68.9v1.14zm.34-1.12h3.66q-.3-.4-.86-.72a6 6 0 0 0-1.2-.56 4 4 0 0 0-1.28-.22q-.56 0-.86.22t-.3.6q0 .3.22.5.2.18.62.18m13.603 14.72q-2.079 0-3.24-1.02-1.16-1.04-1.16-2.9v-4.4q0-.46-.22-.68a1.5 1.5 0 0 0-.58-.4v-1.04q0-.86.42-1.28.441-.44 1.26-.44h1.56v1.74h-1.04q-.38 0-.38.42v.18q.54.22.82.56.3.34.3.98v4.36q0 1.08.6 1.68t1.66.6 1.66-.6.6-1.68v-4.4q0-.46-.22-.68a1.5 1.5 0 0 0-.58-.4v-1.04q0-.86.42-1.28.441-.44 1.26-.44h1.54v1.74h-1.02q-.4 0-.4.42v.18q.561.22.84.56.28.34.28.98v4.36q0 1.86-1.16 2.9-1.14 1.02-3.22 1.02m14.878-5.28q0-1.08-.6-1.68t-1.68-.6q-1.059 0-1.68.6-.6.6-.6 1.68v2.32l-.54-.6h.3q.84 0 1.32.4t.48 1.3-.48 1.34-1.5.44q-.86 0-1.3-.28-.42-.28-.42-.86v-4.06q0-1.86 1.16-2.88 1.18-1.04 3.26-1.04 2.1 0 3.26 1.04 1.16 1.02 1.16 2.88V267h-2.14zm-4.78 4.2q.7 0 .7-.76t-.7-.76zm-2-9.34v-1.74h9v1.74zm2.162 15.5q-.92 0-1.3-.24-.38-.22-.38-.68v-1q0-.76.38-1.32.38-.54 1.26-.84.88-.28 2.38-.28t2.38.28q.879.3 1.26.84.38.56.38 1.32v1.8h-1.96v-1.78a.94.94 0 0 0-.44-.82q-.441-.3-1.62-.3t-1.66.28a.91.91 0 0 0-.48.84l-.06-.42h.14q.62 0 .92.28t.3.86-.36.88-1.14.3m.14-.68q.26 0 .38-.14.12-.12.12-.36 0-.26-.12-.38t-.38-.12zm.872-18q-1.16 0-1.76-.48-.62-.48-.62-1.38 0-.96.74-1.58t2.14-.62q1 0 1.88.3.86.28 1.54.76.68.46 1.16.96.46.5.68.9v1.14zm.34-1.12h3.66q-.3-.4-.86-.72a6 6 0 0 0-1.2-.56 4 4 0 0 0-1.28-.22q-.56 0-.86.22t-.3.6q0 .3.22.5.2.18.62.18m22.323 5.86q0-1.56-1.44-1.56h-3v-1.74h3.44q3.14 0 3.14 3.14V267h-2.14zm-13.12 3.58q0-1.86 1.16-2.88 1.18-1.04 3.26-1.04 2.1 0 3.26 1.04 1.16 1.02 1.16 2.88V267h-2.14v-5.08q0-1.08-.6-1.68t-1.68-.6q-1.06 0-1.68.6-.6.6-.6 1.68V267h-2.14zm-.08-5.14v-1.74h9v1.74zm20.401 10.34q-.98 0-1.46-.44t-.48-1.32.46-1.3 1.28-.42h.26l-.5.6V259q0-.48-.3-.74t-.84-.44v-1.06q0-.86.42-1.28.42-.44 1.26-.44h1.74v1.74h-1.22q-.4 0-.4.42v.18q.74.2 1.1.6t.36 1.06v6.94q0 1.14-1.68 1.14m-.14-2.5q-.68 0-.68.76 0 .74.68.74zm16.387 2.58q-2.08 0-3.24-1.02-1.16-1.04-1.16-2.9v-4.4q0-.46-.22-.68-.2-.24-.58-.4v-1.04q0-.86.42-1.28.44-.44 1.26-.44h1.56v1.74h-1.04q-.38 0-.38.42v.18q.54.22.82.56.3.34.3.98v4.36q0 1.08.6 1.68t1.66.6 1.66-.6.6-1.68v-4.4q0-.46-.22-.68-.2-.24-.58-.4v-1.04q0-.86.42-1.28.44-.44 1.26-.44h1.54v1.74h-1.02q-.4 0-.4.42v.18q.56.22.84.56t.28.98v4.36q0 1.86-1.16 2.9-1.14 1.02-3.22 1.02m-3.32-5.42v-1.52h6.62v1.52zm12.398 5.4q-.68 0-1.1-.38-.4-.4-.4-1.02 0-.66.4-1.04.42-.4 1.1-.4t1.08.4q.42.38.42 1.04 0 .62-.42 1.02-.4.38-1.08.38m9.106.02q-2.08 0-3.24-1.02-1.16-1.04-1.16-2.9v-4.4q0-.46-.22-.68a1.5 1.5 0 0 0-.58-.4v-1.04q0-.86.42-1.28.44-.44 1.26-.44h1.56v1.74h-1.04q-.38 0-.38.42v.18q.54.22.82.56.3.34.3.98v4.36q0 1.08.6 1.68t1.66.6 1.66-.6.6-1.68v-4.4q0-.46-.22-.68a1.5 1.5 0 0 0-.58-.4v-1.04q0-.86.42-1.28.44-.44 1.26-.44h1.54v1.74h-1.02q-.4 0-.4.42v.18q.56.22.84.56t.28.98v4.36q0 1.86-1.16 2.9-1.14 1.02-3.22 1.02m9.078-.02q-.68 0-1.1-.38-.4-.4-.4-1.02 0-.66.4-1.04.42-.4 1.1-.4t1.08.4q.42.38.42 1.04 0 .62-.42 1.02-.4.38-1.08.38m15.385.02q-2.02 0-3.14-1.02-1.1-1.02-1.1-2.86v-1.66q0-1-.58-1.56-.56-.56-1.58-.56t-1.58.56-.56 1.56v2.58l-.54-.6h.3q.84 0 1.32.4t.48 1.3-.48 1.34-1.5.44q-.86 0-1.3-.28-.42-.28-.42-.86v-4.32q0-1.78 1.12-2.76 1.14-.98 3.16-.98 2.061 0 3.18.98t1.12 2.76v1.66q0 1.06.54 1.66.561.58 1.56.58 1 0 1.56-.58.56-.6.56-1.66v-4.44q0-.46-.22-.68a1.5 1.5 0 0 0-.58-.4v-1.04q0-.86.42-1.28.42-.44 1.26-.44h1.54v1.74h-1.02q-.4 0-.4.42v.18q.561.22.84.56.28.34.28.98v4.4q0 1.84-1.12 2.86-1.1 1.02-3.12 1.02m-8.76-1.08q.7 0 .7-.76t-.7-.76zm.26-6.96-1.52-1.56v-.84q0-.86.42-1.28.44-.44 1.28-.44h5.1v1.74h-4.62a.38.38 0 0 0-.28.1q-.1.08-.1.3v.18l1.18 1.2zm17.431 8.02q-.68 0-1.1-.38-.4-.4-.4-1.02 0-.66.4-1.04.42-.4 1.1-.4t1.08.4q.42.38.42 1.04 0 .62-.42 1.02-.4.38-1.08.38"/><path stroke="#38CAF9" stroke-width="3" d="m857.5 122.999.016 31M857.516 207v27"/><rect width="327" height="55" x="694" y="154" fill="#14B1E7" rx="8"/><path fill="#fff" d="M774.146 182.92q0-1.86 1.16-2.88 1.18-1.04 3.26-1.04 2.1 0 3.26 1.04 1.16 1.02 1.16 2.88V188h-2.14v-5.08q0-1.08-.6-1.68t-1.68-.6q-1.06 0-1.68.6-.6.6-.6 1.68v2.74h-.24q.16-.88.76-1.5.62-.62 1.88-.62h.4v1.5h-.4q-.7 0-1.16.2-.46.18-.76.54-.3.34-.48.8V188h-2.14zm-.08-5.14v-1.74h9v1.74zm18.937 1.74q0-.96-.54-1.5t-1.5-.54-1.5.54-.54 1.5v5.72l-.54-.6h.3q.84 0 1.32.4t.48 1.3-.48 1.34-1.5.44q-.86 0-1.3-.28-.42-.28-.42-.86v-7.46q0-1.74 1.1-2.7 1.12-.98 3.08-.98 1.98 0 3.06.98 1.1.96 1.1 2.7v6.34l1.9-2.02 1.9 2.02v-6.34q0-1.74 1.08-2.7 1.1-.98 3.08-.98 1.959 0 3.06.98 1.12.96 1.12 2.7V188h-2.14v-8.48q0-.96-.54-1.5t-1.5-.54-1.5.54q-.52.54-.52 1.5V188h-2.04l-2-2.14-2 2.14h-2.02zm-4.3 7.6q.7 0 .7-.76t-.7-.76zm22.777-7.76q-.6 0-1-.36-.38-.38-.38-.98 0-.62.38-.98.4-.36 1-.36t.98.36.38.98q0 .6-.38.98-.38.36-.98.36m0 7.98q-.6 0-1-.36-.38-.38-.38-.98t.38-.96q.4-.38 1-.38t.98.38q.38.36.38.96t-.38.98q-.38.36-.98.36m8.23 6.02q-1.86 0-2.96-.9-1.08-.9-1.08-2.46v-10.12q0-.46-.22-.68a1.5 1.5 0 0 0-.58-.4v-1.04q0-.86.42-1.28.44-.44 1.26-.44h1.56v1.74h-1.04q-.38 0-.38.42v.18q.54.22.82.56.3.34.3.98V190q0 .78.5 1.26.52.48 1.4.48.86 0 1.38-.48t.52-1.26v-.88h2.12v.88q0 1.56-1.08 2.46t-2.94.9m1.897-10.44q0-1.86 1.16-2.88 1.18-1.04 3.26-1.04 2.1 0 3.26 1.04 1.16 1.02 1.16 2.88V188h-2.14v-5.08q0-1.08-.6-1.68t-1.68-.6q-1.06 0-1.68.6-.6.6-.6 1.68v2.74h-.24q.16-.88.76-1.5.62-.62 1.88-.62h.4v1.5h-.4q-.7 0-1.16.2-.46.18-.76.54-.3.34-.48.8V188h-2.14zm-.08-5.14v-1.74h9v1.74zm17.117 10.42q-2.08 0-3.24-1.02-1.16-1.04-1.16-2.9v-4.4q0-.46-.22-.68a1.5 1.5 0 0 0-.58-.4v-1.04q0-.86.42-1.28.44-.44 1.26-.44h1.56v1.74h-1.04q-.38 0-.38.42v.18q.54.22.82.56.3.34.3.98v4.36q0 1.08.6 1.68t1.66.6 1.66-.6.6-1.68v-4.4q0-.46-.22-.68a1.5 1.5 0 0 0-.58-.4v-1.04q0-.86.42-1.28.44-.44 1.26-.44h1.54v1.74h-1.02q-.4 0-.4.42v.18q.56.22.84.56t.28.98v4.36q0 1.86-1.16 2.9-1.14 1.02-3.22 1.02m-.881-13.6v-3.84h1.76v3.84zm13.099 18.76q-1.86 0-2.96-.9-1.08-.9-1.08-2.46v-10.12q0-.46-.22-.68-.2-.24-.58-.4v-1.04q0-.86.42-1.28.44-.44 1.26-.44h1.56v1.74h-1.04q-.38 0-.38.42v.18q.54.22.82.56.3.34.3.98V190q0 .78.5 1.26.52.48 1.4.48.86 0 1.38-.48t.52-1.26v-.88h2.12v.88q0 1.56-1.08 2.46t-2.94.9m1.897-10.44q0-1.86 1.16-2.88 1.18-1.04 3.26-1.04 2.1 0 3.26 1.04 1.16 1.02 1.16 2.88V188h-2.14v-5.08q0-1.08-.6-1.68t-1.68-.6q-1.059 0-1.68.6-.6.6-.6 1.68v2.74h-.24q.16-.88.76-1.5.62-.62 1.88-.62h.4v1.5h-.4q-.7 0-1.16.2-.46.18-.76.54-.3.34-.48.8V188h-2.14zm-.08-5.14v-1.74h9v1.74zM865.396 188v-4.96h-.92v-1.42h3.06v4.22l2.28-2.08 2.28 2.08v-4.66q0-.56-.18-.92-.16-.38-.82-.66l1.48-.78q1 .38 1.32.94.34.56.34 1.42V188h-2.02l-2.4-2.26-2.38 2.26zm3.16-7.4q-1.46 0-2.36-.54-.88-.54-.88-1.5 0-.5.16-.88t.16-.7q0-.2-.1-.26-.08-.08-.26-.08h-.3v-1.32h1.18q.78 0 1.12.3.36.3.36.88 0 .46-.16.86-.14.4-.14.8 0 .48.38.78.4.3 1.24.3.72 0 1.22-.24.52-.24 1-.68l.2.86a1.6 1.6 0 0 1-1.06-.48 1.5 1.5 0 0 1-.44-1.1q0-.78.52-1.22.54-.46 1.42-.46.9 0 1.42.46.52.44.52 1.22 0 .5-.26.88-.24.36-.64.6-.38.22-.8.3-.22.24-.7.52t-1.18.5q-.7.2-1.62.2m3.26-2.38a.57.57 0 0 0 .42-.16.6.6 0 0 0 .16-.42.57.57 0 0 0-.16-.42.54.54 0 0 0-.42-.18q-.24 0-.4.18a.57.57 0 0 0-.16.42q0 .24.16.42.16.16.4.16m16.554 9.98q-2.079 0-3.24-1.02-1.16-1.04-1.16-2.9v-4.4q0-.46-.22-.68a1.5 1.5 0 0 0-.58-.4v-1.04q0-.86.42-1.28.441-.44 1.26-.44h1.56v1.74h-1.04q-.38 0-.38.42v.18q.54.22.82.56.3.34.3.98v4.36q0 1.08.6 1.68t1.66.6 1.66-.6.6-1.68v-4.4q0-.46-.22-.68a1.5 1.5 0 0 0-.58-.4v-1.04q0-.86.42-1.28.441-.44 1.26-.44h1.54v1.74h-1.02q-.4 0-.4.42v.18q.561.22.84.56.28.34.28.98v4.36q0 1.86-1.16 2.9-1.14 1.02-3.22 1.02m-3.32-5.42v-1.52h6.62v1.52zm12.398 5.4q-.68 0-1.1-.38-.4-.4-.4-1.02 0-.66.4-1.04.42-.4 1.1-.4t1.08.4q.42.38.42 1.04 0 .62-.42 1.02-.399.38-1.08.38m9.106.02q-2.08 0-3.24-1.02-1.16-1.04-1.16-2.9v-4.4q0-.46-.22-.68-.2-.24-.58-.4v-1.04q0-.86.42-1.28.44-.44 1.26-.44h1.56v1.74h-1.04q-.38 0-.38.42v.18q.54.22.82.56.3.34.3.98v4.36q0 1.08.6 1.68t1.66.6 1.66-.6.6-1.68v-4.4q0-.46-.22-.68-.2-.24-.58-.4v-1.04q0-.86.42-1.28.44-.44 1.26-.44h1.54v1.74h-1.02q-.4 0-.4.42v.18q.56.22.84.56t.28.98v4.36q0 1.86-1.16 2.9-1.14 1.02-3.22 1.02m9.078-.02q-.68 0-1.1-.38-.4-.4-.4-1.02 0-.66.4-1.04.42-.4 1.1-.4t1.08.4q.42.38.42 1.04 0 .62-.42 1.02-.4.38-1.08.38m15.386.02q-2.02 0-3.14-1.02-1.1-1.02-1.1-2.86v-1.66q0-1-.58-1.56-.56-.56-1.58-.56t-1.58.56-.56 1.56v2.58l-.54-.6h.3q.84 0 1.32.4t.48 1.3-.48 1.34-1.5.44q-.86 0-1.3-.28-.42-.28-.42-.86v-4.32q0-1.78 1.12-2.76 1.14-.98 3.16-.98 2.06 0 3.18.98t1.12 2.76v1.66q0 1.06.539 1.66.56.58 1.561.58.999 0 1.56-.58.56-.6.56-1.66v-4.44q0-.46-.22-.68a1.5 1.5 0 0 0-.58-.4v-1.04q0-.86.42-1.28.42-.44 1.26-.44h1.54v1.74h-1.02q-.4 0-.4.42v.18q.56.22.84.56t.28.98v4.4q0 1.84-1.12 2.86-1.101 1.02-3.12 1.02m-8.76-1.08q.7 0 .7-.76t-.7-.76zm.26-6.96-1.52-1.56v-.84q0-.86.42-1.28.44-.44 1.28-.44h5.1v1.74h-4.62q-.18 0-.28.1-.1.08-.1.3v.18l1.18 1.2zm17.43 8.02q-.68 0-1.1-.38-.4-.4-.4-1.02 0-.66.4-1.04.42-.4 1.1-.4t1.08.4q.42.38.42 1.04 0 .62-.42 1.02-.399.38-1.08.38"/><rect width="327" height="55" x="694" y="233" fill="#14B1E7" rx="8"/><path fill="#fff" d="M760.909 267.2q-2.079 0-3.24-1.02-1.16-1.04-1.16-2.9v-4.4q0-.46-.22-.68a1.5 1.5 0 0 0-.58-.4v-1.04q0-.86.42-1.28.441-.44 1.26-.44h1.56v1.74h-1.04q-.38 0-.38.42v.18q.54.22.82.56.3.34.3.98v4.36q0 1.08.6 1.68t1.66.6 1.66-.6.6-1.68v-4.4q0-.46-.22-.68a1.5 1.5 0 0 0-.58-.4v-1.04q0-.86.42-1.28.441-.44 1.26-.44h1.54v1.74h-1.02q-.4 0-.4.42v.18q.561.22.84.56.28.34.28.98v4.36q0 1.86-1.16 2.9-1.14 1.02-3.22 1.02m2.2 4.96v-4.04h2v4.04zm5.979-10.24q0-1.86 1.16-2.88 1.18-1.04 3.26-1.04 2.1 0 3.26 1.04 1.16 1.02 1.16 2.88V267h-2.14v-5.08q0-1.08-.6-1.68t-1.68-.6q-1.06 0-1.68.6-.6.6-.6 1.68v2.74h-.24q.16-.88.76-1.5.62-.62 1.88-.62h.4v1.5h-.4q-.7 0-1.161.2-.459.18-.759.54-.3.34-.48.8V267h-2.14zm-.08-5.14v-1.74h9v1.74zm.481 15.38v-1.36q0-1.36.98-2.12t3.04-.76 3.04.76.98 2.12v1.36h-1.94v-1.38q0-.72-.48-1.1-.5-.36-1.6-.36-1.08 0-1.56.36-.5.38-.5 1.1v.26l2.14-.86v1.12l-2.14.86zm22.915-4.96q-2.02 0-3.14-1.02-1.1-1.02-1.1-2.86v-4.62q0-1.04-.58-1.62-.56-.6-1.58-.6t-1.58.6q-.56.58-.56 1.62v5.54l-.54-.6h.3q.84 0 1.32.4t.48 1.3-.48 1.34-1.5.44q-.86 0-1.3-.28-.42-.28-.42-.86v-7.28q0-1.84 1.12-2.84 1.14-1.02 3.16-1.02 2.061 0 3.18 1.02 1.12 1 1.12 2.84v4.62q0 1.06.54 1.66.561.58 1.56.58 1 0 1.56-.58.56-.6.56-1.66v-4.44q0-.46-.22-.68a1.5 1.5 0 0 0-.58-.4v-1.04q0-.86.42-1.28.42-.44 1.26-.44h1.54v1.74h-1.02q-.4 0-.4.42v.18q.561.22.84.56.28.34.28.98v4.4q0 1.84-1.12 2.86-1.1 1.02-3.12 1.02m-8.76-1.08q.7 0 .7-.76t-.7-.76zm7.248-12.52q-1.16 0-1.76-.48-.62-.48-.62-1.38 0-.96.74-1.58t2.14-.62q1 0 1.88.3.86.28 1.54.76.68.46 1.16.96.46.5.68.9v1.14zm.34-1.12h3.66q-.3-.4-.86-.72a6 6 0 0 0-1.2-.56 4 4 0 0 0-1.28-.22q-.56 0-.86.22t-.3.6q0 .3.22.5.2.18.62.18m9.203 9.44q0-1.86 1.16-2.88 1.18-1.04 3.26-1.04 2.1 0 3.26 1.04 1.16 1.02 1.16 2.88V267h-2.14v-5.08q0-1.08-.6-1.68t-1.68-.6q-1.06 0-1.68.6-.6.6-.6 1.68V267h-2.14zm-.08-5.14v-1.74h9v1.74zm16.757 15.58q-1.86 0-2.96-.9-1.08-.9-1.08-2.46v-10.12q0-.46-.22-.68-.2-.24-.58-.4v-1.04q0-.86.42-1.28.44-.44 1.26-.44h1.56v1.74h-1.04q-.38 0-.38.42v.18q.54.22.82.56.3.34.3.98V269q0 .78.5 1.26.52.48 1.4.48.86 0 1.38-.48t.52-1.26v-.88h2.12v.88q0 1.56-1.08 2.46t-2.94.9m6.297-5.16q-2.079 0-3.24-1.02-1.16-1.04-1.16-2.9v-4.4q0-.46-.22-.68a1.5 1.5 0 0 0-.58-.4v-1.04q0-.86.42-1.28.441-.44 1.26-.44h1.56v1.74h-1.04q-.38 0-.38.42v.18q.54.22.82.56.3.34.3.98v4.36q0 1.08.6 1.68t1.66.6 1.66-.6.6-1.68v-4.4q0-.46-.22-.68a1.5 1.5 0 0 0-.58-.4v-1.04q0-.86.42-1.28.441-.44 1.26-.44h1.54v1.74h-1.02q-.4 0-.4.42v.18q.561.22.84.56.28.34.28.98v4.36q0 1.86-1.16 2.9-1.14 1.02-3.22 1.02m14.879-5.28q0-1.08-.6-1.68t-1.68-.6q-1.06 0-1.68.6-.6.6-.6 1.68v2.32l-.54-.6h.3q.84 0 1.32.4t.48 1.3-.48 1.34-1.5.44q-.86 0-1.3-.28-.42-.28-.42-.86v-4.06q0-1.86 1.16-2.88 1.18-1.04 3.26-1.04 2.1 0 3.26 1.04 1.16 1.02 1.16 2.88V267h-2.14zm-4.78 4.2q.7 0 .7-.76t-.7-.76zm-2-9.34v-1.74h9v1.74zm3.173-3.18q-1.16 0-1.76-.48-.62-.48-.62-1.38 0-.96.74-1.58t2.14-.62q1 0 1.88.3.86.28 1.54.76.68.46 1.16.96.46.5.68.9v1.14zm.34-1.12h3.66q-.3-.4-.86-.72a6 6 0 0 0-1.2-.56 4 4 0 0 0-1.28-.22q-.56 0-.86.22t-.3.6q0 .3.22.5.2.18.62.18m13.603 14.72q-2.079 0-3.24-1.02-1.16-1.04-1.16-2.9v-4.4q0-.46-.22-.68a1.5 1.5 0 0 0-.58-.4v-1.04q0-.86.42-1.28.441-.44 1.26-.44h1.56v1.74h-1.04q-.38 0-.38.42v.18q.54.22.82.56.3.34.3.98v4.36q0 1.08.6 1.68t1.66.6 1.66-.6.6-1.68v-4.4q0-.46-.22-.68a1.5 1.5 0 0 0-.58-.4v-1.04q0-.86.42-1.28.441-.44 1.26-.44h1.54v1.74h-1.02q-.4 0-.4.42v.18q.561.22.84.56.28.34.28.98v4.36q0 1.86-1.16 2.9-1.14 1.02-3.22 1.02m14.878-5.28q0-1.08-.6-1.68t-1.68-.6q-1.059 0-1.68.6-.6.6-.6 1.68v2.32l-.54-.6h.3q.84 0 1.32.4t.48 1.3-.48 1.34-1.5.44q-.86 0-1.3-.28-.42-.28-.42-.86v-4.06q0-1.86 1.16-2.88 1.18-1.04 3.26-1.04 2.1 0 3.26 1.04 1.16 1.02 1.16 2.88V267h-2.14zm-4.78 4.2q.7 0 .7-.76t-.7-.76zm-2-9.34v-1.74h9v1.74zm2.162 15.5q-.92 0-1.3-.24-.38-.22-.38-.68v-1q0-.76.38-1.32.38-.54 1.26-.84.88-.28 2.38-.28t2.38.28q.879.3 1.26.84.38.56.38 1.32v1.8h-1.96v-1.78a.94.94 0 0 0-.44-.82q-.441-.3-1.62-.3t-1.66.28a.91.91 0 0 0-.48.84l-.06-.42h.14q.62 0 .92.28t.3.86-.36.88-1.14.3m.14-.68q.26 0 .38-.14.12-.12.12-.36 0-.26-.12-.38t-.38-.12zm.872-18q-1.16 0-1.76-.48-.62-.48-.62-1.38 0-.96.74-1.58t2.14-.62q1 0 1.88.3.86.28 1.54.76.68.46 1.16.96.46.5.68.9v1.14zm.34-1.12h3.66q-.3-.4-.86-.72a6 6 0 0 0-1.2-.56 4 4 0 0 0-1.28-.22q-.56 0-.86.22t-.3.6q0 .3.22.5.2.18.62.18m22.323 5.86q0-1.56-1.44-1.56h-3v-1.74h3.44q3.14 0 3.14 3.14V267h-2.14zm-13.12 3.58q0-1.86 1.16-2.88 1.18-1.04 3.26-1.04 2.1 0 3.26 1.04 1.16 1.02 1.16 2.88V267h-2.14v-5.08q0-1.08-.6-1.68t-1.68-.6q-1.06 0-1.68.6-.6.6-.6 1.68V267h-2.14zm-.08-5.14v-1.74h9v1.74zm20.401 10.34q-.98 0-1.46-.44t-.48-1.32.46-1.3 1.28-.42h.26l-.5.6V259q0-.48-.3-.74t-.84-.44v-1.06q0-.86.42-1.28.42-.44 1.26-.44h1.74v1.74h-1.22q-.4 0-.4.42v.18q.74.2 1.1.6t.36 1.06v6.94q0 1.14-1.68 1.14m-.14-2.5q-.68 0-.68.76 0 .74.68.74zm16.387 2.58q-2.08 0-3.24-1.02-1.16-1.04-1.16-2.9v-4.4q0-.46-.22-.68-.2-.24-.58-.4v-1.04q0-.86.42-1.28.44-.44 1.26-.44h1.56v1.74h-1.04q-.38 0-.38.42v.18q.54.22.82.56.3.34.3.98v4.36q0 1.08.6 1.68t1.66.6 1.66-.6.6-1.68v-4.4q0-.46-.22-.68-.2-.24-.58-.4v-1.04q0-.86.42-1.28.44-.44 1.26-.44h1.54v1.74h-1.02q-.4 0-.4.42v.18q.56.22.84.56t.28.98v4.36q0 1.86-1.16 2.9-1.14 1.02-3.22 1.02m-3.32-5.42v-1.52h6.62v1.52zm12.398 5.4q-.68 0-1.1-.38-.4-.4-.4-1.02 0-.66.4-1.04.42-.4 1.1-.4t1.08.4q.42.38.42 1.04 0 .62-.42 1.02-.4.38-1.08.38m9.106.02q-2.08 0-3.24-1.02-1.16-1.04-1.16-2.9v-4.4q0-.46-.22-.68a1.5 1.5 0 0 0-.58-.4v-1.04q0-.86.42-1.28.44-.44 1.26-.44h1.56v1.74h-1.04q-.38 0-.38.42v.18q.54.22.82.56.3.34.3.98v4.36q0 1.08.6 1.68t1.66.6 1.66-.6.6-1.68v-4.4q0-.46-.22-.68a1.5 1.5 0 0 0-.58-.4v-1.04q0-.86.42-1.28.44-.44 1.26-.44h1.54v1.74h-1.02q-.4 0-.4.42v.18q.56.22.84.56t.28.98v4.36q0 1.86-1.16 2.9-1.14 1.02-3.22 1.02m9.078-.02q-.68 0-1.1-.38-.4-.4-.4-1.02 0-.66.4-1.04.42-.4 1.1-.4t1.08.4q.42.38.42 1.04 0 .62-.42 1.02-.4.38-1.08.38m15.385.02q-2.02 0-3.14-1.02-1.1-1.02-1.1-2.86v-1.66q0-1-.58-1.56-.56-.56-1.58-.56t-1.58.56-.56 1.56v2.58l-.54-.6h.3q.84 0 1.32.4t.48 1.3-.48 1.34-1.5.44q-.86 0-1.3-.28-.42-.28-.42-.86v-4.32q0-1.78 1.12-2.76 1.14-.98 3.16-.98 2.061 0 3.18.98t1.12 2.76v1.66q0 1.06.54 1.66.561.58 1.56.58 1 0 1.56-.58.56-.6.56-1.66v-4.44q0-.46-.22-.68a1.5 1.5 0 0 0-.58-.4v-1.04q0-.86.42-1.28.42-.44 1.26-.44h1.54v1.74h-1.02q-.4 0-.4.42v.18q.561.22.84.56.28.34.28.98v4.4q0 1.84-1.12 2.86-1.1 1.02-3.12 1.02m-8.76-1.08q.7 0 .7-.76t-.7-.76zm.26-6.96-1.52-1.56v-.84q0-.86.42-1.28.44-.44 1.28-.44h5.1v1.74h-4.62a.38.38 0 0 0-.28.1q-.1.08-.1.3v.18l1.18 1.2zm17.431 8.02q-.68 0-1.1-.38-.4-.4-.4-1.02 0-.66.4-1.04.42-.4 1.1-.4t1.08.4q.42.38.42 1.04 0 .62-.42 1.02-.4.38-1.08.38"/></svg>